<svg id="Group_760" data-name="Group 760" xmlns="http://www.w3.org/2000/svg" width="115.78" height="156.037" viewBox="0 0 115.78 156.037">
  <g id="Background_Complete" data-name="Background Complete" transform="translate(0 0)">
    <g id="Group_362" data-name="Group 362" transform="translate(68.236 61.705)">
      <g id="Group_341" data-name="Group 341">
        <g id="Group_322" data-name="Group 322" transform="translate(28.693 38.013)">
          <g id="Group_321" data-name="Group 321">
            <g id="Group_320" data-name="Group 320">
              <path id="Path_123" data-name="Path 123" d="M415.2,355.079a15.494,15.494,0,0,1,9.613-1.168,7.99,7.99,0,0,1,4.749,2.12c1.187,1.31,1.411,3.615.049,4.741a4.55,4.55,0,0,1-2.994.76c-2.541-.03-5.361-.477-7.391,1.052-1.158.872-1.929,2.322-3.314,2.752a3.274,3.274,0,0,1-3.6-1.6,5.594,5.594,0,0,1-.408-4.129A6.3,6.3,0,0,1,415.2,355.079Z" transform="translate(-411.697 -353.639)" fill="#ebebeb"/>
            </g>
          </g>
        </g>
        <g id="Group_325" data-name="Group 325" transform="translate(23.812)">
          <g id="Group_324" data-name="Group 324">
            <g id="Group_323" data-name="Group 323">
              <path id="Path_124" data-name="Path 124" d="M404.512,311.058c1.788,2.554,5.263,1.708,6.874.15s2.292-3.818,2.912-5.972c1.416-4.922,2.844-10.086,1.791-15.1a8.4,8.4,0,0,0-1.928-4.1,4.383,4.383,0,0,0-4.153-1.382c-1.752.463-2.841,2.179-3.628,3.812a35.992,35.992,0,0,0-3.556,15.445,12.487,12.487,0,0,0,1.688,7.151" transform="translate(-402.824 -284.538)" fill="#ebebeb"/>
            </g>
          </g>
        </g>
        <g id="Group_328" data-name="Group 328" transform="translate(0 8.216)">
          <g id="Group_327" data-name="Group 327">
            <g id="Group_326" data-name="Group 326">
              <path id="Path_125" data-name="Path 125" d="M380.128,321.442a9.292,9.292,0,0,0,1.446-8.55,16.479,16.479,0,0,0-5.064-7.346,27.261,27.261,0,0,0-9.069-5.351,9.669,9.669,0,0,0-4.078-.693,4.28,4.28,0,0,0-3.423,2.071c-.954,1.82-.04,4.028.95,5.829a69.148,69.148,0,0,0,5.956,9.07c1.785,2.3,3.83,4.572,6.551,5.612s5.547.918,6.99-.969" transform="translate(-359.537 -299.474)" fill="#ebebeb"/>
            </g>
          </g>
        </g>
        <g id="Group_332" data-name="Group 332" transform="translate(25.347 41.558)">
          <g id="Group_331" data-name="Group 331">
            <g id="Group_330" data-name="Group 330">
              <g id="Group_329" data-name="Group 329">
                <path id="Path_126" data-name="Path 126" d="M405.646,383.567a5.529,5.529,0,0,0,.162-1.16c.082-.844.185-1.9.308-3.166a45.71,45.71,0,0,1,.712-4.645,35.882,35.882,0,0,1,1.688-5.482,20.2,20.2,0,0,1,2.8-4.961,10.455,10.455,0,0,1,3.539-2.942,9.909,9.909,0,0,1,2.981-.928,5.572,5.572,0,0,0,1.155-.167,5.393,5.393,0,0,0-1.176-.018,9.022,9.022,0,0,0-3.108.809,10.438,10.438,0,0,0-3.734,2.968,19.75,19.75,0,0,0-2.9,5.06,33.553,33.553,0,0,0-1.676,5.571,39.216,39.216,0,0,0-.617,4.7c-.1,1.344-.139,2.433-.157,3.186A5.435,5.435,0,0,0,405.646,383.567Z" transform="translate(-405.613 -360.085)" fill="#e0e0e0"/>
              </g>
            </g>
          </g>
        </g>
        <g id="Group_336" data-name="Group 336" transform="translate(25.347 10.26)">
          <g id="Group_335" data-name="Group 335">
            <g id="Group_334" data-name="Group 334">
              <g id="Group_333" data-name="Group 333">
                <path id="Path_127" data-name="Path 127" d="M405.864,355.533a2.305,2.305,0,0,0,.031-.539c0-.4,0-.914,0-1.54,0-1.336,0-3.27.068-5.657.118-4.775.53-9.915,1.324-17.16.753-6.814,1.762-14.743,2.827-19.9.228-1.173.458-2.228.675-3.152s.383-1.725.553-2.37l.36-1.5a2.3,2.3,0,0,0,.094-.531,2.257,2.257,0,0,0-.187.505l-.447,1.475c-.2.64-.4,1.434-.633,2.356s-.5,1.973-.746,3.143a174.654,174.654,0,0,0-2.972,18.463c-.8,7.261-1.154,13.872-1.186,18.66-.029,2.393.023,4.331.084,5.668.038.625.069,1.134.094,1.539A2.278,2.278,0,0,0,405.864,355.533Z" transform="translate(-405.613 -303.19)" fill="#e0e0e0"/>
              </g>
            </g>
          </g>
        </g>
        <g id="Group_340" data-name="Group 340" transform="translate(8.572 14.159)">
          <g id="Group_339" data-name="Group 339">
            <g id="Group_338" data-name="Group 338">
              <g id="Group_337" data-name="Group 337">
                <path id="Path_128" data-name="Path 128" d="M392.178,345.97a10.245,10.245,0,0,0-.012-1.608c-.059-1.034-.2-2.528-.492-4.357a57.5,57.5,0,0,0-1.417-6.349,52.036,52.036,0,0,0-2.655-7.512,40.022,40.022,0,0,0-7.8-12.14,19.71,19.71,0,0,0-1.834-1.7c-.282-.238-.53-.475-.783-.663l-.712-.491a10.31,10.31,0,0,0-1.354-.867,48.012,48.012,0,0,1,4.438,3.96,42.169,42.169,0,0,1,7.6,12.1,59.34,59.34,0,0,1,2.67,7.443,64.531,64.531,0,0,1,1.508,6.285c.332,1.811.525,3.29.64,4.314A10.319,10.319,0,0,0,392.178,345.97Z" transform="translate(-375.12 -310.277)" fill="#e0e0e0"/>
              </g>
            </g>
          </g>
        </g>
      </g>
      <g id="Group_344" data-name="Group 344" transform="translate(12.452 70.408)">
        <g id="Group_343" data-name="Group 343">
          <g id="Group_342" data-name="Group 342">
            <path id="Path_129" data-name="Path 129" d="M382.172,412.53l1.278,17.5h22.488l1.278-17.5Z" transform="translate(-382.172 -412.53)" fill="#ebebeb"/>
          </g>
        </g>
      </g>
      <g id="Group_347" data-name="Group 347" transform="translate(10.279 63.509)">
        <g id="Group_346" data-name="Group 346">
          <g id="Group_345" data-name="Group 345">
            <rect id="Rectangle_5" data-name="Rectangle 5" width="29.899" height="6.9" fill="#ebebeb"/>
          </g>
        </g>
      </g>
      <g id="Group_350" data-name="Group 350" transform="translate(10.279 87.243)">
        <g id="Group_349" data-name="Group 349">
          <g id="Group_348" data-name="Group 348">
            <path id="Path_130" data-name="Path 130" d="M378.223,443.133v1.912h29.4v-1.912Z" transform="translate(-378.223 -443.133)" fill="#e0e0e0"/>
          </g>
        </g>
      </g>
      <g id="Group_353" data-name="Group 353" transform="translate(11.684 88.944)">
        <g id="Group_352" data-name="Group 352">
          <g id="Group_351" data-name="Group 351">
            <path id="Path_131" data-name="Path 131" d="M382.154,449.591l-1.377-3.366h26.928l-1.607,3.366Z" transform="translate(-380.777 -446.225)" fill="#e0e0e0"/>
          </g>
        </g>
      </g>
      <g id="Group_357" data-name="Group 357" transform="translate(12.83 73.67)">
        <g id="Group_356" data-name="Group 356">
          <g id="Group_355" data-name="Group 355">
            <g id="Group_354" data-name="Group 354">
              <path id="Path_132" data-name="Path 132" d="M407.108,420.919a.725.725,0,0,1-.105.161l-.336.446-1.31,1.677-.058.075-.057-.078-3.218-4.451h.185l-3.169,4.487-.1.141-.111-.133-3.758-4.471.217,0-.207.26-3.36,4.213-.112.14-.1-.146-3.17-4.486.185.009-3.9,4.448-.069.079-.053-.089-1.222-2.054-.314-.547a.878.878,0,0,1-.1-.2.86.86,0,0,1,.131.173l.347.526,1.283,2.017-.122-.01,3.842-4.5.1-.113.087.122,3.2,4.466-.216-.006,3.352-4.219.207-.26.107-.134.11.131,3.747,4.48-.21.008,3.2-4.465.094-.13.091.13,3.151,4.5-.115,0,1.363-1.634.365-.422C407.056,420.961,407.1,420.915,407.108,420.919Z" transform="translate(-382.861 -418.46)" fill="#f5f5f5"/>
            </g>
          </g>
        </g>
      </g>
      <g id="Group_361" data-name="Group 361" transform="translate(12.639 70.153)">
        <g id="Group_360" data-name="Group 360">
          <g id="Group_359" data-name="Group 359">
            <g id="Group_358" data-name="Group 358">
              <path id="Path_133" data-name="Path 133" d="M407.681,412.206c0,.078-5.635.14-12.584.14s-12.585-.063-12.585-.14,5.634-.14,12.585-.14S407.681,412.129,407.681,412.206Z" transform="translate(-382.512 -412.066)" fill="#f5f5f5"/>
            </g>
          </g>
        </g>
      </g>
    </g>
    <g id="Group_432" data-name="Group 432">
      <g id="Group_367" data-name="Group 367" transform="translate(1.619 0)">
        <g id="Group_366" data-name="Group 366">
          <g id="Group_365" data-name="Group 365">
            <g id="Group_364" data-name="Group 364">
              <g id="Group_363" data-name="Group 363">
                <rect id="Rectangle_6" data-name="Rectangle 6" width="32.205" height="46.679" fill="#e0e0e0"/>
              </g>
            </g>
          </g>
        </g>
      </g>
      <g id="Group_372" data-name="Group 372" transform="translate(0.006 0)">
        <g id="Group_371" data-name="Group 371">
          <g id="Group_370" data-name="Group 370">
            <g id="Group_369" data-name="Group 369">
              <g id="Group_368" data-name="Group 368">
                <rect id="Rectangle_7" data-name="Rectangle 7" width="32.205" height="46.679" fill="#f5f5f5"/>
              </g>
            </g>
          </g>
        </g>
      </g>
      <g id="Group_384" data-name="Group 384" transform="translate(3.919 4.969)">
        <g id="Group_377" data-name="Group 377" transform="translate(0.088 0.087)">
          <g id="Group_376" data-name="Group 376">
            <g id="Group_375" data-name="Group 375">
              <g id="Group_374" data-name="Group 374">
                <g id="Group_373" data-name="Group 373">
                  <rect id="Rectangle_8" data-name="Rectangle 8" width="24.202" height="36.568" fill="#fff"/>
                </g>
              </g>
            </g>
          </g>
        </g>
        <g id="Group_383" data-name="Group 383">
          <g id="Group_382" data-name="Group 382">
            <g id="Group_381" data-name="Group 381">
              <g id="Group_380" data-name="Group 380">
                <g id="Group_379" data-name="Group 379">
                  <g id="Group_378" data-name="Group 378">
                    <path id="Path_134" data-name="Path 134" d="M393.13,192.068s0-.062,0-.179,0-.293,0-.519c0-.459-.006-1.132-.01-2.006,0-1.753-.012-4.306-.021-7.533-.009-6.448-.023-15.579-.04-26.332l.08.08-24.2.007h0l.087-.087c-.007,13.795-.013,26.514-.018,36.568l-.07-.07,17.616.037,4.867.018,1.277.008c.289,0,.442.007.442.007s-.142,0-.427.008l-1.264.008-4.851.018-17.66.037h-.07v-.07c0-10.054-.011-22.773-.018-36.568v-.087h.09l24.2.007h.081v.08c-.017,10.774-.03,19.923-.04,26.385-.009,3.218-.016,5.766-.022,7.514,0,.866-.007,1.534-.009,1.99,0,.222,0,.391,0,.509S393.13,192.068,393.13,192.068Z" transform="translate(-368.84 -155.413)" fill="#e0e0e0"/>
                  </g>
                </g>
              </g>
            </g>
          </g>
        </g>
      </g>
      <g id="Group_390" data-name="Group 390" transform="translate(27.087 5.3)">
        <g id="Group_389" data-name="Group 389">
          <g id="Group_388" data-name="Group 388">
            <g id="Group_387" data-name="Group 387">
              <g id="Group_386" data-name="Group 386">
                <g id="Group_385" data-name="Group 385">
                  <path id="Path_135" data-name="Path 135" d="M410.956,156.016" transform="translate(-410.956 -156.016)" fill="none" stroke="#fbfbfb" stroke-miterlimit="10" stroke-width="0.25"/>
                </g>
              </g>
            </g>
          </g>
        </g>
      </g>
      <g id="Group_396" data-name="Group 396" transform="translate(27.914 0)">
        <g id="Group_395" data-name="Group 395">
          <g id="Group_394" data-name="Group 394">
            <g id="Group_393" data-name="Group 393">
              <g id="Group_392" data-name="Group 392">
                <g id="Group_391" data-name="Group 391">
                  <path id="Path_136" data-name="Path 136" d="M416.846,146.382a5.57,5.57,0,0,1-.574.834c-.374.5-.9,1.181-1.511,1.917s-1.172,1.387-1.592,1.851a5.5,5.5,0,0,1-.709.723,6.091,6.091,0,0,1,.615-.8l1.55-1.881,1.549-1.882A6,6,0,0,1,416.846,146.382Z" transform="translate(-412.459 -146.381)" fill="#e0e0e0"/>
                </g>
              </g>
            </g>
          </g>
        </g>
      </g>
      <g id="Group_408" data-name="Group 408" transform="translate(28.331 41.506)">
        <g id="Group_401" data-name="Group 401" transform="translate(0.001 0)">
          <g id="Group_400" data-name="Group 400">
            <g id="Group_399" data-name="Group 399">
              <g id="Group_398" data-name="Group 398">
                <g id="Group_397" data-name="Group 397">
                  <path id="Path_137" data-name="Path 137" d="M413.22,221.833a29.958,29.958,0,0,0,4.221,5.279" transform="translate(-413.22 -221.833)" fill="#fff"/>
                </g>
              </g>
            </g>
          </g>
        </g>
        <g id="Group_407" data-name="Group 407">
          <g id="Group_406" data-name="Group 406">
            <g id="Group_405" data-name="Group 405">
              <g id="Group_404" data-name="Group 404">
                <g id="Group_403" data-name="Group 403">
                  <g id="Group_402" data-name="Group 402">
                    <path id="Path_138" data-name="Path 138" d="M417.44,227.112a4.834,4.834,0,0,1-.736-.669,23.669,23.669,0,0,1-2.994-3.745,4.8,4.8,0,0,1-.491-.865,6.746,6.746,0,0,1,.594.8c.355.5.854,1.18,1.436,1.908s1.138,1.365,1.546,1.821A6.662,6.662,0,0,1,417.44,227.112Z" transform="translate(-413.217 -221.832)" fill="#e0e0e0"/>
                  </g>
                </g>
              </g>
            </g>
          </g>
        </g>
      </g>
      <g id="Group_420" data-name="Group 420" transform="translate(0 41.437)">
        <g id="Group_413" data-name="Group 413" transform="translate(0.001 0.001)">
          <g id="Group_412" data-name="Group 412">
            <g id="Group_411" data-name="Group 411">
              <g id="Group_410" data-name="Group 410">
                <g id="Group_409" data-name="Group 409">
                  <path id="Path_139" data-name="Path 139" d="M361.717,226.914l4.218-5.205" transform="translate(-361.717 -221.709)" fill="#fff"/>
                </g>
              </g>
            </g>
          </g>
        </g>
        <g id="Group_419" data-name="Group 419">
          <g id="Group_418" data-name="Group 418">
            <g id="Group_417" data-name="Group 417">
              <g id="Group_416" data-name="Group 416">
                <g id="Group_415" data-name="Group 415">
                  <g id="Group_414" data-name="Group 414">
                    <path id="Path_140" data-name="Path 140" d="M365.934,221.708a64.093,64.093,0,0,1-4.218,5.205,64.382,64.382,0,0,1,4.218-5.205Z" transform="translate(-361.715 -221.708)" fill="#e0e0e0"/>
                  </g>
                </g>
              </g>
            </g>
          </g>
        </g>
      </g>
      <g id="Group_426" data-name="Group 426" transform="translate(0.005)">
        <g id="Group_425" data-name="Group 425">
          <g id="Group_424" data-name="Group 424">
            <g id="Group_423" data-name="Group 423">
              <g id="Group_422" data-name="Group 422">
                <g id="Group_421" data-name="Group 421">
                  <path id="Path_141" data-name="Path 141" d="M361.725,146.381a58.072,58.072,0,0,1,3.957,5,58.244,58.244,0,0,1-3.957-5Z" transform="translate(-361.724 -146.381)" fill="#e0e0e0"/>
                </g>
              </g>
            </g>
          </g>
        </g>
      </g>
      <g id="Group_431" data-name="Group 431" transform="translate(12.565 12.481)">
        <g id="Group_430" data-name="Group 430">
          <g id="Group_429" data-name="Group 429">
            <g id="Group_428" data-name="Group 428">
              <g id="Group_427" data-name="Group 427">
                <rect id="Rectangle_9" data-name="Rectangle 9" width="8.104" height="23.009" fill="#e0e0e0"/>
              </g>
            </g>
          </g>
        </g>
      </g>
    </g>
  </g>
  <g id="Character" transform="translate(20.422 37.458)">
    <g id="Group_662" data-name="Group 662" transform="translate(0)">
      <g id="Group_462" data-name="Group 462" transform="translate(0 33.919)">
        <g id="Group_440" data-name="Group 440" transform="translate(4.003)">
          <g id="Group_434" data-name="Group 434">
            <g id="Group_433" data-name="Group 433">
              <path id="Path_142" data-name="Path 142" d="M327.831,342.162,315.983,328.9l-.12,16.125,3.566,10.342-35.438,6.147-1.5-27.962-2.551-21.474a5.831,5.831,0,0,1,3.654-6.113l9.752-3.841,13.736,2.52,5.526,2.1a15.151,15.151,0,0,1,6.021,4.188L335.26,329.95" transform="translate(-279.897 -302.12)" fill="#e8505b"/>
            </g>
          </g>
          <g id="Group_436" data-name="Group 436" transform="translate(35.256 15.338)">
            <g id="Group_435" data-name="Group 435">
              <path id="Path_143" data-name="Path 143" d="M343.987,338.269a18.764,18.764,0,0,0,2-.141,8.121,8.121,0,0,0,6.661-6.143,18.761,18.761,0,0,0,.3-1.983,1.743,1.743,0,0,1,.05.545,7.009,7.009,0,0,1-.155,1.484,7.939,7.939,0,0,1-6.829,6.3,7.009,7.009,0,0,1-1.492.035A1.735,1.735,0,0,1,343.987,338.269Z" transform="translate(-343.987 -330.002)" fill="#fff"/>
            </g>
          </g>
          <g id="Group_439" data-name="Group 439" transform="translate(36.009 17.266)">
            <g id="Group_438" data-name="Group 438">
              <g id="Group_437" data-name="Group 437">
                <path id="Path_144" data-name="Path 144" d="M345.639,358.456c.083,0,.1-5.587.048-12.475s-.169-12.474-.252-12.474-.1,5.585-.048,12.476S345.556,358.456,345.639,358.456Z" transform="translate(-345.355 -333.507)" fill="#263238"/>
              </g>
            </g>
          </g>
        </g>
        <g id="Group_441" data-name="Group 441" transform="translate(0 3.841)">
          <path id="Path_145" data-name="Path 145" d="M311.617,351.575l-21.413-8.62a4.894,4.894,0,0,1-3.051-4.166l-1.567-20.53s.185-8.732-5.268-9.156l-3.1,1.222c-4.01,2.129-5,7.968-4.457,12.475.776,6.4,1.1,15.468,1.967,21.027.71,4.547,3.314,8.546,7.765,9.718l26.374,5.709Z" transform="translate(-272.619 -309.102)" fill="#e8505b"/>
        </g>
        <g id="Group_443" data-name="Group 443" transform="translate(13.268 16.129)">
          <g id="Group_442" data-name="Group 442">
            <path id="Path_146" data-name="Path 146" d="M296.743,331.44a2.962,2.962,0,0,1,.067.47q.051.5.138,1.353c.109,1.2.264,2.9.453,4.979.181,2.111.4,4.612.634,7.386q.088,1.043.18,2.136a16.012,16.012,0,0,0,.273,2.2,3.647,3.647,0,0,0,1.064,1.924,7.238,7.238,0,0,0,1.975,1.229c5.9,2.555,11.346,4.665,15.3,6.144l4.69,1.728,1.275.47a2.913,2.913,0,0,1,.438.182,2.966,2.966,0,0,1-.457-.127l-1.293-.42c-1.121-.371-2.736-.927-4.723-1.643-3.973-1.433-9.424-3.511-15.346-6.074a7.474,7.474,0,0,1-2.053-1.283,3.931,3.931,0,0,1-1.141-2.067,16.111,16.111,0,0,1-.273-2.236q-.087-1.092-.17-2.137c-.215-2.777-.409-5.28-.574-7.393l-.362-4.986q-.053-.854-.084-1.357A2.862,2.862,0,0,1,296.743,331.44Z" transform="translate(-296.738 -331.44)" fill="#263238"/>
          </g>
        </g>
        <g id="Group_445" data-name="Group 445" transform="translate(0.989 27.289)">
          <g id="Group_444" data-name="Group 444">
            <path id="Path_147" data-name="Path 147" d="M274.433,351.728a1.048,1.048,0,0,1,.042.276l.071.792c.064.732.15,1.716.254,2.913.118,1.229.267,2.691.48,4.307a41.2,41.2,0,0,0,.967,5.2,7.767,7.767,0,0,0,1.045,2.479,14.182,14.182,0,0,0,1.6,1.966,13.69,13.69,0,0,0,3.427,2.571,12.869,12.869,0,0,0,3.76,1.231,1.02,1.02,0,0,1-.278-.007,5.952,5.952,0,0,1-.792-.1,10.48,10.48,0,0,1-2.782-.942,13.425,13.425,0,0,1-3.522-2.566,14.167,14.167,0,0,1-1.644-1.994,7.96,7.96,0,0,1-1.089-2.56,38.7,38.7,0,0,1-.952-5.243c-.2-1.624-.328-3.091-.42-4.324s-.138-2.233-.163-2.924c-.007-.318-.012-.581-.017-.8A1,1,0,0,1,274.433,351.728Z" transform="translate(-274.418 -351.728)" fill="#263238"/>
          </g>
        </g>
        <g id="Group_447" data-name="Group 447" transform="translate(10.156 36.586)">
          <g id="Group_446" data-name="Group 446">
            <path id="Path_148" data-name="Path 148" d="M291.087,373.7a3.138,3.138,0,0,1,.39-1.141,7.364,7.364,0,0,1,4.344-3.71,3.157,3.157,0,0,1,1.188-.207c.009.048-.441.138-1.122.4a8.332,8.332,0,0,0-4.232,3.615C291.291,373.283,291.133,373.713,291.087,373.7Z" transform="translate(-291.082 -368.628)" fill="#263238"/>
          </g>
        </g>
        <g id="Group_449" data-name="Group 449" transform="translate(14.373 4.83)">
          <g id="Group_448" data-name="Group 448">
            <path id="Path_149" data-name="Path 149" d="M298.747,332.113a.545.545,0,0,1,.136.06l.383.2a13.274,13.274,0,0,0,1.528.647,12.091,12.091,0,0,0,6,.513,11.852,11.852,0,0,0,7.461-4.635,9.842,9.842,0,0,0,1.953-4.851,6.613,6.613,0,0,0-.286-2.745,5.571,5.571,0,0,0-1.544-2.359,4.664,4.664,0,0,0-2.513-1.222,2.994,2.994,0,0,0-2.519.708,1.619,1.619,0,0,0-.492,1.14,1.993,1.993,0,0,0,.414,1.177,3.216,3.216,0,0,0,2.178,1.136,8.817,8.817,0,0,0,4.681-.669,8.687,8.687,0,0,0,4.931-5.513,9.313,9.313,0,0,0,.407-2.576,9.731,9.731,0,0,0-.12-1.651l-.078-.425a.6.6,0,0,1-.019-.147,6.911,6.911,0,0,1,.328,2.225,9.167,9.167,0,0,1-.365,2.622,8.976,8.976,0,0,1-1.61,3.114,9.154,9.154,0,0,1-8.194,3.284,3.475,3.475,0,0,1-2.359-1.234,2.262,2.262,0,0,1-.471-1.341,1.9,1.9,0,0,1,.57-1.337,3.268,3.268,0,0,1,2.757-.792,4.949,4.949,0,0,1,2.668,1.292,5.851,5.851,0,0,1,1.622,2.481,6.877,6.877,0,0,1,.294,2.862,10.076,10.076,0,0,1-2.021,4.982,11.829,11.829,0,0,1-13.712,4.07A8.71,8.71,0,0,1,298.747,332.113Z" transform="translate(-298.747 -310.901)" fill="#fff"/>
          </g>
        </g>
        <g id="Group_451" data-name="Group 451" transform="translate(0.345 17.388)">
          <g id="Group_450" data-name="Group 450">
            <path id="Path_150" data-name="Path 150" d="M273.248,336.907a1.924,1.924,0,0,1,.352-.438,7.91,7.91,0,0,1,1.157-1.006,9.694,9.694,0,0,1,4.737-1.679,9.149,9.149,0,0,1,2.792.117,8.589,8.589,0,0,1,2.151.756,9.673,9.673,0,0,1,1.308.8,1.978,1.978,0,0,1,.43.362c-.03.045-.67-.439-1.825-.976a8.993,8.993,0,0,0-4.825-.771,10.184,10.184,0,0,0-4.653,1.561C273.812,336.335,273.288,336.947,273.248,336.907Z" transform="translate(-273.247 -333.728)" fill="#fff"/>
          </g>
        </g>
        <g id="Group_453" data-name="Group 453" transform="translate(3.77 1.597)">
          <g id="Group_452" data-name="Group 452">
            <path id="Path_151" data-name="Path 151" d="M279.474,309.313a8.746,8.746,0,0,0,1.733,1.26,6.2,6.2,0,0,0,2.206.647,5.525,5.525,0,0,0,4.987-2.063,6.22,6.22,0,0,0,1.1-2.017,8.734,8.734,0,0,0,.336-2.116,1.857,1.857,0,0,1,.072.584,5.3,5.3,0,0,1-.213,1.591,6.113,6.113,0,0,1-1.092,2.123,5.637,5.637,0,0,1-5.221,2.16,6.088,6.088,0,0,1-2.272-.731,5.271,5.271,0,0,1-1.276-.975A1.856,1.856,0,0,1,279.474,309.313Z" transform="translate(-279.473 -305.023)" fill="#fff"/>
          </g>
        </g>
        <g id="Group_455" data-name="Group 455" transform="translate(22.428 31.492)">
          <g id="Group_454" data-name="Group 454">
            <path id="Path_152" data-name="Path 152" d="M313.394,367.521a2.131,2.131,0,0,1,.045-.406,4.467,4.467,0,0,1,.38-1.108,6.109,6.109,0,0,1,3.205-2.782,9.376,9.376,0,0,1,6.3-.226,6.01,6.01,0,0,1,3.281,1.858,1.988,1.988,0,0,1,.241,2.014,3.2,3.2,0,0,1-1.526,1.44,4.846,4.846,0,0,1-2.027.5,2.952,2.952,0,0,1-1.947-.6,2.489,2.489,0,0,1-.871-1.764,4.431,4.431,0,0,1,.292-1.855,8.325,8.325,0,0,1,4.413-4.467,8.658,8.658,0,0,1,4.212-.723,5.955,5.955,0,0,1,1.539.324c-.009.037-.545-.144-1.547-.213a8.818,8.818,0,0,0-4.12.8,8.611,8.611,0,0,0-2.4,1.63,7.712,7.712,0,0,0-1.846,2.742,4.179,4.179,0,0,0-.267,1.743,2.213,2.213,0,0,0,.777,1.57,2.68,2.68,0,0,0,1.764.535,4.582,4.582,0,0,0,1.9-.473,2.927,2.927,0,0,0,1.394-1.3,1.7,1.7,0,0,0-.209-1.733,3.972,3.972,0,0,0-1.432-1.137,10.268,10.268,0,0,0-1.692-.631,9.254,9.254,0,0,0-6.146.159,6.105,6.105,0,0,0-3.184,2.647A6.248,6.248,0,0,0,313.394,367.521Z" transform="translate(-313.391 -359.368)" fill="#fff"/>
          </g>
        </g>
        <g id="Group_457" data-name="Group 457" transform="translate(8.174 37.445)">
          <g id="Group_456" data-name="Group 456">
            <path id="Path_153" data-name="Path 153" d="M287.479,380.12c-.009-.055.816-.124,2.054-.565a10.24,10.24,0,0,0,6.569-7.267c.314-1.275.3-2.1.355-2.1a2.006,2.006,0,0,1,.03.578,8.62,8.62,0,0,1-.188,1.567,9.878,9.878,0,0,1-6.7,7.413,8.7,8.7,0,0,1-1.54.345A2,2,0,0,1,287.479,380.12Z" transform="translate(-287.479 -370.189)" fill="#fff"/>
          </g>
        </g>
        <g id="Group_459" data-name="Group 459" transform="translate(1.235 30.018)">
          <g id="Group_458" data-name="Group 458">
            <path id="Path_154" data-name="Path 154" d="M274.864,358.087a1.007,1.007,0,0,1,.259-.1c.173-.057.429-.136.765-.221a9.222,9.222,0,0,1,2.917-.3,6.091,6.091,0,0,1,1.983.491,4.57,4.57,0,0,1,1.85,1.452,3.8,3.8,0,0,1,.719,2.5,3.042,3.042,0,0,1-.425,1.339,2.128,2.128,0,0,1-1.122.939,1.481,1.481,0,0,1-1.447-.286,1.931,1.931,0,0,1-.5-1.335,5.71,5.71,0,0,1,.5-2.547,5.567,5.567,0,0,1,3.123-2.963,5.667,5.667,0,0,1,2.912-.289,4.816,4.816,0,0,1,.775.2,1.017,1.017,0,0,1,.255.112c-.008.028-.367-.114-1.045-.2a5.8,5.8,0,0,0-2.824.367,5.408,5.408,0,0,0-2.955,2.882,5.486,5.486,0,0,0-.465,2.425,1.668,1.668,0,0,0,.414,1.141,1.2,1.2,0,0,0,1.165.22,1.848,1.848,0,0,0,.966-.815,2.782,2.782,0,0,0,.388-1.213,3.557,3.557,0,0,0-.654-2.319,4.367,4.367,0,0,0-1.733-1.39,5.993,5.993,0,0,0-1.9-.5,9.88,9.88,0,0,0-2.875.2C275.239,358.009,274.87,358.109,274.864,358.087Z" transform="translate(-274.864 -356.688)" fill="#fff"/>
          </g>
        </g>
        <g id="Group_461" data-name="Group 461" transform="translate(13.971 22.232)" opacity="0.3">
          <g id="Group_460" data-name="Group 460">
            <path id="Path_155" data-name="Path 155" d="M316.889,364.169c-2.29-1.293-4.53-2.287-6.924-3.375a15.685,15.685,0,0,1-6.306-4.6c-2.955-3.983-2.619-9.732-5.643-13.662l.592,7.929c.181,2.423-.19,4.818,1.37,6.464,1.314,1.387,3.877,2.45,5.691,3.049,3.647,1.2,7.573,2.99,11.219,4.192" transform="translate(-298.016 -342.535)"/>
          </g>
        </g>
      </g>
      <g id="Group_489" data-name="Group 489" transform="translate(65.923 107.001)">
        <g id="Group_464" data-name="Group 464" transform="translate(0 0.957)">
          <g id="Group_463" data-name="Group 463">
            <path id="Path_156" data-name="Path 156" d="M396.586,436.713s17.916,4.959,18.635,5.212c1.079.38.9,4.334-.782,4.273-.794-.029-13.762.483-15.4.38s-6.582-2.05-6.582-2.05Z" transform="translate(-392.458 -436.713)" fill="#e8505b"/>
          </g>
        </g>
        <g id="Group_467" data-name="Group 467" transform="translate(11.556 4.215)">
          <g id="Group_466" data-name="Group 466">
            <g id="Group_465" data-name="Group 465">
              <path id="Path_157" data-name="Path 157" d="M413.5,446.214a7.859,7.859,0,0,1,2.057-3.573,3.981,3.981,0,0,0-2.057,3.573Z" transform="translate(-413.465 -442.635)" fill="#263238"/>
            </g>
          </g>
        </g>
        <g id="Group_470" data-name="Group 470" transform="translate(9.696 3.523)">
          <g id="Group_469" data-name="Group 469">
            <g id="Group_468" data-name="Group 468">
              <path id="Path_158" data-name="Path 158" d="M410.112,444.8c.087.015.269-.832.746-1.767s1.04-1.591.976-1.652a4.492,4.492,0,0,0-1.722,3.42Z" transform="translate(-410.083 -441.377)" fill="#263238"/>
            </g>
          </g>
        </g>
        <g id="Group_473" data-name="Group 473" transform="translate(7.853 2.903)">
          <g id="Group_472" data-name="Group 472">
            <g id="Group_471" data-name="Group 471">
              <path id="Path_159" data-name="Path 159" d="M406.852,443.825a6.291,6.291,0,0,1,1.4-3.569,3.364,3.364,0,0,0-1.4,3.569Z" transform="translate(-406.734 -440.251)" fill="#263238"/>
            </g>
          </g>
        </g>
        <g id="Group_476" data-name="Group 476" transform="translate(6.869)">
          <g id="Group_475" data-name="Group 475">
            <g id="Group_474" data-name="Group 474">
              <path id="Path_160" data-name="Path 160" d="M406.365,439.136a3.163,3.163,0,0,0,.193-1.333,6.282,6.282,0,0,0-.182-1.461,6.1,6.1,0,0,0-.267-.832,1,1,0,0,0-.287-.439.477.477,0,0,0-.615.03.79.79,0,0,0-.239.507,3.487,3.487,0,0,0-.023.473,3.953,3.953,0,0,0,.111.877,5.316,5.316,0,0,0,.551,1.37,3.608,3.608,0,0,0,.8,1.078c.041-.029-.259-.446-.617-1.177a5.884,5.884,0,0,1-.47-1.332,3.906,3.906,0,0,1-.086-.819c.008-.276,0-.619.165-.752a.174.174,0,0,1,.237-.02.752.752,0,0,1,.2.313,6.638,6.638,0,0,1,.272.79,7.222,7.222,0,0,1,.237,1.4C406.4,438.622,406.317,439.129,406.365,439.136Z" transform="translate(-404.944 -434.973)" fill="#263238"/>
            </g>
          </g>
        </g>
        <g id="Group_479" data-name="Group 479" transform="translate(4.682 3.795)">
          <g id="Group_478" data-name="Group 478">
            <g id="Group_477" data-name="Group 477">
              <path id="Path_161" data-name="Path 161" d="M404.555,442.057a2.5,2.5,0,0,0-1.156-.187,5.174,5.174,0,0,0-1.271.156,2.8,2.8,0,0,0-.732.27.757.757,0,0,0-.4.819.9.9,0,0,0,.646.639,1.639,1.639,0,0,0,.8,0,3.091,3.091,0,0,0,1.164-.572,3.162,3.162,0,0,0,.833-.82,7.889,7.889,0,0,0-.954.646,3.181,3.181,0,0,1-1.1.476,1.42,1.42,0,0,1-.665-.009.608.608,0,0,1-.436-.426.463.463,0,0,1,.266-.5,2.711,2.711,0,0,1,.65-.254,6.005,6.005,0,0,1,1.207-.211C404.108,442.034,404.547,442.105,404.555,442.057Z" transform="translate(-400.97 -441.871)" fill="#263238"/>
            </g>
          </g>
        </g>
        <g id="Group_482" data-name="Group 482" transform="translate(14.206 4.959)">
          <g id="Group_481" data-name="Group 481">
            <g id="Group_480" data-name="Group 480">
              <path id="Path_162" data-name="Path 162" d="M418.421,447.014A4.835,4.835,0,0,1,419.652,444a2.57,2.57,0,0,0-1.231,3.019Z" transform="translate(-418.282 -443.988)" fill="#263238"/>
            </g>
          </g>
        </g>
        <g id="Group_485" data-name="Group 485" transform="translate(1.843 8.808)">
          <g id="Group_484" data-name="Group 484">
            <g id="Group_483" data-name="Group 483">
              <path id="Path_163" data-name="Path 163" d="M395.809,450.989a3.7,3.7,0,0,0,.693.326,15.412,15.412,0,0,0,1.994.618,28.434,28.434,0,0,0,6.84.648c2.685-.029,5.1-.151,6.859-.222l2.077-.11a3.685,3.685,0,0,0,.76-.081,3.792,3.792,0,0,0-.764-.035l-2.079.015-6.854.134a32.045,32.045,0,0,1-6.792-.555C396.83,451.374,395.83,450.934,395.809,450.989Z" transform="translate(-395.809 -450.984)" fill="#263238"/>
            </g>
          </g>
        </g>
        <g id="Group_488" data-name="Group 488" transform="translate(1.313 7.697)">
          <g id="Group_487" data-name="Group 487">
            <g id="Group_486" data-name="Group 486">
              <path id="Path_164" data-name="Path 164" d="M394.846,450.489c.024.041.514-.245,1.342-.608a6.239,6.239,0,0,1,3.39-.564,5.37,5.37,0,0,1,2.93,1.743,10.558,10.558,0,0,0,1.033,1.055,5.525,5.525,0,0,0-.877-1.2,7.075,7.075,0,0,0-1.188-1.111,4.25,4.25,0,0,0-1.851-.785,5.927,5.927,0,0,0-3.527.667A4.764,4.764,0,0,0,394.846,450.489Z" transform="translate(-394.845 -448.966)" fill="#263238"/>
            </g>
          </g>
        </g>
      </g>
      <g id="Group_519" data-name="Group 519" transform="translate(33.132 103.012)">
        <g id="Group_491" data-name="Group 491">
          <g id="Group_490" data-name="Group 490">
            <path id="Path_165" data-name="Path 165" d="M350.75,427.721s-16.954,11.1-17.562,11.56c-.913.69.134,3.975,1.716,3.406.748-.269,14.975-4.226,16.5-4.822s5.648-3.952,5.648-3.952Z" transform="translate(-332.849 -427.721)" fill="#e8505b"/>
          </g>
        </g>
        <g id="Group_494" data-name="Group 494" transform="translate(9.822 5.986)">
          <g id="Group_493" data-name="Group 493">
            <g id="Group_492" data-name="Group 492">
              <path id="Path_166" data-name="Path 166" d="M353.749,441.4a3.982,3.982,0,0,0-3.044-2.78,7.86,7.86,0,0,1,3.044,2.78Z" transform="translate(-350.703 -438.603)" fill="#263238"/>
            </g>
          </g>
        </g>
        <g id="Group_497" data-name="Group 497" transform="translate(11.708 4.661)">
          <g id="Group_496" data-name="Group 496">
            <g id="Group_495" data-name="Group 495">
              <path id="Path_167" data-name="Path 167" d="M356.814,438.939a4.495,4.495,0,0,0-2.679-2.736c-.043.078.7.524,1.431,1.278S356.735,438.98,356.814,438.939Z" transform="translate(-354.133 -436.195)" fill="#263238"/>
            </g>
          </g>
        </g>
        <g id="Group_500" data-name="Group 500" transform="translate(13.502 3.439)">
          <g id="Group_499" data-name="Group 499">
            <g id="Group_498" data-name="Group 498">
              <path id="Path_168" data-name="Path 168" d="M359.808,436.96a3.363,3.363,0,0,0-2.413-2.977,6.288,6.288,0,0,1,2.413,2.977Z" transform="translate(-357.393 -433.972)" fill="#263238"/>
            </g>
          </g>
        </g>
        <g id="Group_503" data-name="Group 503" transform="translate(14.037 0.077)">
          <g id="Group_502" data-name="Group 502">
            <g id="Group_501" data-name="Group 501">
              <path id="Path_169" data-name="Path 169" d="M359.239,432.1c.045-.021-.188-.48-.384-1.269a7.188,7.188,0,0,1-.2-1.4,6.5,6.5,0,0,1,.019-.836.748.748,0,0,1,.092-.358.174.174,0,0,1,.232-.053c.193.078.294.407.385.666a3.932,3.932,0,0,1,.167.806,5.865,5.865,0,0,1-.043,1.412c-.119.8-.278,1.294-.23,1.309a3.627,3.627,0,0,0,.439-1.272,5.325,5.325,0,0,0,.109-1.472,3.949,3.949,0,0,0-.161-.869,3.468,3.468,0,0,0-.166-.444.792.792,0,0,0-.382-.41.478.478,0,0,0-.6.158,1,1,0,0,0-.14.506,6.17,6.17,0,0,0,0,.874,6.294,6.294,0,0,0,.271,1.447A3.177,3.177,0,0,0,359.239,432.1Z" transform="translate(-358.366 -427.86)" fill="#263238"/>
            </g>
          </g>
        </g>
        <g id="Group_506" data-name="Group 506" transform="translate(14.876 3.36)">
          <g id="Group_505" data-name="Group 505">
            <g id="Group_504" data-name="Group 504">
              <path id="Path_170" data-name="Path 170" d="M359.891,434.607c.022.043.419-.158,1.1-.325a6,6,0,0,1,1.214-.166,2.715,2.715,0,0,1,.7.044.462.462,0,0,1,.405.4.608.608,0,0,1-.287.538,1.41,1.41,0,0,1-.63.211,3.176,3.176,0,0,1-1.191-.119,7.941,7.941,0,0,0-1.106-.326,3.14,3.14,0,0,0,1.042.529,3.1,3.1,0,0,0,1.283.192,1.65,1.65,0,0,0,.767-.242.9.9,0,0,0,.42-.805.755.755,0,0,0-.634-.657,2.8,2.8,0,0,0-.779-.035,5.2,5.2,0,0,0-1.259.238A2.513,2.513,0,0,0,359.891,434.607Z" transform="translate(-359.891 -433.83)" fill="#263238"/>
            </g>
          </g>
        </g>
        <g id="Group_509" data-name="Group 509" transform="translate(2.416 10.159)">
          <g id="Group_508" data-name="Group 508">
            <g id="Group_507" data-name="Group 507">
              <path id="Path_171" data-name="Path 171" d="M339.04,450.376c.019.026.286-.172.415-.657a2.5,2.5,0,0,0-.317-1.84,6.663,6.663,0,0,0-.568-.846,3.1,3.1,0,0,0-.575-.618,1,1,0,0,0-.542-.227c-.141-.006-.214.029-.212.046a1.589,1.589,0,0,1,.617.342,3.822,3.822,0,0,1,.489.618,9.654,9.654,0,0,1,.529.828,2.625,2.625,0,0,1,.373,1.653C339.186,450.115,339,450.347,339.04,450.376Z" transform="translate(-337.24 -446.188)" fill="#263238"/>
            </g>
          </g>
        </g>
        <g id="Group_512" data-name="Group 512" transform="translate(8.212 7.28)">
          <g id="Group_511" data-name="Group 511">
            <g id="Group_510" data-name="Group 510">
              <path id="Path_172" data-name="Path 172" d="M349.867,443.474a2.569,2.569,0,0,0-2.089-2.5,4.833,4.833,0,0,1,2.089,2.5Z" transform="translate(-347.777 -440.955)" fill="#263238"/>
            </g>
          </g>
        </g>
        <g id="Group_515" data-name="Group 515" transform="translate(1.05 6.789)">
          <g id="Group_514" data-name="Group 514">
            <g id="Group_513" data-name="Group 513">
              <path id="Path_173" data-name="Path 173" d="M356.172,440.064a5.939,5.939,0,0,0-.745.512,21.309,21.309,0,0,1-2.09,1.281,27.455,27.455,0,0,1-3.32,1.478c-1.283.479-2.724.93-4.246,1.371-3.05.879-5.811,1.681-7.8,2.281l-2.356.723a5.322,5.322,0,0,0-.853.3,5.22,5.22,0,0,0,.885-.193l2.382-.632c2.008-.547,4.776-1.318,7.83-2.2,1.525-.442,2.972-.9,4.261-1.4a24.95,24.95,0,0,0,3.324-1.551,16.7,16.7,0,0,0,2.058-1.372A4.723,4.723,0,0,0,356.172,440.064Z" transform="translate(-334.757 -440.063)" fill="#263238"/>
            </g>
          </g>
        </g>
        <g id="Group_518" data-name="Group 518" transform="translate(15.298 6.541)">
          <g id="Group_517" data-name="Group 517">
            <g id="Group_516" data-name="Group 516">
              <path id="Path_174" data-name="Path 174" d="M368.453,440.089a4.756,4.756,0,0,0-1.437-.382,5.926,5.926,0,0,0-3.563.435,4.256,4.256,0,0,0-1.525,1.31,7.1,7.1,0,0,0-.794,1.419,5.525,5.525,0,0,0-.471,1.408,10.548,10.548,0,0,0,.663-1.319,5.369,5.369,0,0,1,2.263-2.551,6.244,6.244,0,0,1,3.4-.493C367.888,440.012,368.443,440.136,368.453,440.089Z" transform="translate(-360.658 -439.612)" fill="#263238"/>
            </g>
          </g>
        </g>
      </g>
      <g id="Group_534" data-name="Group 534" transform="translate(38.03 75.03)">
        <g id="Group_521" data-name="Group 521">
          <g id="Group_520" data-name="Group 520">
            <path id="Path_175" data-name="Path 175" d="M389.989,377.763a8.12,8.12,0,0,1,5.107,7.519c.041,10.924-22.073,22.966-22.073,22.966L343.6,388.75,341.752,388S381.476,373.082,389.989,377.763Z" transform="translate(-341.752 -376.854)" fill="#263238"/>
          </g>
        </g>
        <g id="Group_524" data-name="Group 524" transform="translate(16.751 6.427)">
          <g id="Group_523" data-name="Group 523">
            <g id="Group_522" data-name="Group 522">
              <path id="Path_176" data-name="Path 176" d="M372.2,403.855a5.431,5.431,0,0,0,.766-.52c.482-.349,1.171-.868,2.013-1.52,1.685-1.3,3.977-3.148,6.443-5.264s4.637-4.105,6.179-5.574c.771-.734,1.388-1.336,1.806-1.76a5.483,5.483,0,0,0,.63-.679,5.518,5.518,0,0,0-.71.594l-1.87,1.689c-1.578,1.427-3.768,3.386-6.23,5.5s-4.73,3.982-6.38,5.326l-1.952,1.594A5.472,5.472,0,0,0,372.2,403.855Z" transform="translate(-372.202 -388.538)" fill="#455a64"/>
            </g>
          </g>
        </g>
        <g id="Group_527" data-name="Group 527" transform="translate(34.571 4.918)">
          <g id="Group_526" data-name="Group 526">
            <g id="Group_525" data-name="Group 525">
              <path id="Path_177" data-name="Path 177" d="M409.955,385.869a7.294,7.294,0,0,0-5.357,1.581c.048.078,1.122-.606,2.606-1.036S409.957,385.961,409.955,385.869Z" transform="translate(-404.597 -385.795)" fill="#455a64"/>
            </g>
          </g>
        </g>
        <g id="Group_530" data-name="Group 530" transform="translate(34.72 3.263)">
          <g id="Group_529" data-name="Group 529">
            <g id="Group_528" data-name="Group 528">
              <path id="Path_178" data-name="Path 178" d="M407.543,382.794a4.47,4.47,0,0,0-2.66,3.294c.086.03.407-.887,1.149-1.793S407.589,382.871,407.543,382.794Z" transform="translate(-404.868 -382.786)" fill="#455a64"/>
            </g>
          </g>
        </g>
        <g id="Group_533" data-name="Group 533" transform="translate(48.211 37.83)">
          <g id="Group_532" data-name="Group 532">
            <g id="Group_531" data-name="Group 531">
              <path id="Path_179" data-name="Path 179" d="M431.036,445.654c.015-.034-.351-.105-.759.23a2.753,2.753,0,0,0-.85,1.708,3.353,3.353,0,0,0,.268,1.884c.208.447.437.657.463.636.041-.028-.12-.276-.266-.715a3.821,3.821,0,0,1-.168-1.763,2.951,2.951,0,0,1,.7-1.593C430.732,445.714,431.042,445.7,431.036,445.654Z" transform="translate(-429.392 -445.623)" fill="#263238"/>
            </g>
          </g>
        </g>
      </g>
      <g id="Group_537" data-name="Group 537" transform="translate(23.053 58.093)">
        <g id="Group_535" data-name="Group 535">
          <path id="Path_180" data-name="Path 180" d="M370.972,346.065l-10.481,26.569-45.129.735-.835-2.441,15.816-.574,7.6-23.569Z" transform="translate(-314.526 -346.065)" fill="#455a64"/>
        </g>
        <g id="Group_536" data-name="Group 536" transform="translate(34.538 11.279)">
          <path id="Path_181" data-name="Path 181" d="M378.143,366.792a2,2,0,0,1,2.17.232,1.755,1.755,0,0,1,.425,1.923,1.9,1.9,0,0,1-1.631,1.139,1.713,1.713,0,0,1-1.723-1.138,1.925,1.925,0,0,1,.759-2.155" transform="translate(-377.312 -366.569)" fill="#ebebeb"/>
        </g>
      </g>
      <g id="Group_543" data-name="Group 543" transform="translate(7.411 77.508)">
        <g id="Group_539" data-name="Group 539">
          <g id="Group_538" data-name="Group 538">
            <path id="Path_182" data-name="Path 182" d="M350.769,411.6s-41.578-27.272-43.28-27.839-5.817-3.263-9.931-2.128-7.8,4.824-9.648,10.215c-1.053,3.08-1.551,8.336-1.785,12.276a18.211,18.211,0,0,0,4.262,12.986,11.627,11.627,0,0,0,5.184,3.681c.433.135.882.251,1.344.351a19.555,19.555,0,0,0,20.356-8.547l.97-1.476s27.2,9.992,27.624,9.85Z" transform="translate(-286.092 -381.358)" fill="#263238"/>
          </g>
        </g>
        <g id="Group_542" data-name="Group 542" transform="translate(13.239 1.816)">
          <g id="Group_541" data-name="Group 541">
            <g id="Group_540" data-name="Group 540">
              <path id="Path_183" data-name="Path 183" d="M310.158,405.581s.075.039.228.1l.68.27,2.636,1.015,9.8,3.69c4.161,1.552,9.145,3.4,14.737,5.433s11.791,4.265,18.41,6.506l.121.041.059-.113,3.248-6.2,1.656-3.164.064-.122-.115-.073-31.715-20.133-9.527-6.009-2.588-1.615-.676-.413c-.153-.092-.235-.132-.235-.132s.072.057.219.157l.66.437,2.559,1.661L329.852,393l31.663,20.211-.051-.195-1.656,3.163-3.246,6.2.179-.072c-6.616-2.235-12.816-4.456-18.414-6.472l-14.759-5.371-9.827-3.605-2.654-.965-.69-.244C310.24,405.6,310.158,405.581,310.158,405.581Z" transform="translate(-310.158 -384.66)" fill="#455a64"/>
            </g>
          </g>
        </g>
      </g>
      <g id="Group_661" data-name="Group 661" transform="translate(15.611)">
        <g id="Group_544" data-name="Group 544" transform="translate(1.785)">
          <path id="Path_184" data-name="Path 184" d="M311.812,243.858c.709-1.917,2.276-2.749,4.262-3.23a6.373,6.373,0,0,1,5.7,1.469c1.008.923,1.747,2.2,2.991,2.763,2.05.929,4.676-.429,6.619.707a2.9,2.9,0,0,1-1.872,5.381,2.575,2.575,0,0,1,.665,3.8,3.869,3.869,0,0,1-4.041,1.067,8.152,8.152,0,0,1-3.605-2.478c-1-1.083-1.882-2.285-2.969-3.285a6.338,6.338,0,0,0-3.919-1.86,5.8,5.8,0,0,0-4.89,2.971,14.861,14.861,0,0,0-1.733,5.7,24.542,24.542,0,0,1-1.275,5.844c-.09.217-.218.458-.447.506-.332.07-.575-.3-.709-.61a29.353,29.353,0,0,1-2.345-11.17c-.024-2.223.226-4.305,1.606-6.048s4.566-2.829,5.961-1.522" transform="translate(-304.243 -240.46)" fill="#263238"/>
        </g>
        <g id="Group_641" data-name="Group 641" transform="translate(1.546 2.619)">
          <g id="Group_640" data-name="Group 640">
            <g id="Group_639" data-name="Group 639">
              <g id="Group_563" data-name="Group 563">
                <g id="Group_562" data-name="Group 562">
                  <g id="Group_561" data-name="Group 561">
                    <g id="Group_552" data-name="Group 552">
                      <g id="Group_551" data-name="Group 551">
                        <g id="Group_550" data-name="Group 550">
                          <g id="Group_549" data-name="Group 549">
                            <g id="Group_548" data-name="Group 548">
                              <g id="Group_547" data-name="Group 547">
                                <g id="Group_546" data-name="Group 546">
                                  <g id="Group_545" data-name="Group 545">
                                    <path id="Path_185" data-name="Path 185" d="M306.928,254.875l-3.056,22.211a6.67,6.67,0,0,0,6.025,7.553h0a6.673,6.673,0,0,0,7.19-5.746c.228-1.672.423-3.066.457-3.236,0,0,5.728.246,6.906-5.294.569-2.677,1.293-8.287,1.889-13.37a10.549,10.549,0,0,0-8.415-11.569l-.536-.107C311.542,244.5,307.582,249.009,306.928,254.875Z" transform="translate(-303.808 -245.222)" fill="#ffbe9d"/>
                                  </g>
                                </g>
                              </g>
                            </g>
                          </g>
                        </g>
                      </g>
                    </g>
                    <g id="Group_560" data-name="Group 560" transform="translate(6.932 26.853)">
                      <g id="Group_559" data-name="Group 559">
                        <g id="Group_558" data-name="Group 558">
                          <g id="Group_557" data-name="Group 557">
                            <g id="Group_556" data-name="Group 556">
                              <g id="Group_555" data-name="Group 555">
                                <g id="Group_554" data-name="Group 554">
                                  <g id="Group_553" data-name="Group 553">
                                    <path id="Path_186" data-name="Path 186" d="M323.238,297.542a13.171,13.171,0,0,1-6.829-3.5s.913,4.339,6.555,4.946Z" transform="translate(-316.409 -294.037)" fill="#eb996e"/>
                                  </g>
                                </g>
                              </g>
                            </g>
                          </g>
                        </g>
                      </g>
                    </g>
                  </g>
                </g>
              </g>
              <g id="Group_638" data-name="Group 638" transform="translate(9.245 8.403)">
                <g id="Group_637" data-name="Group 637">
                  <g id="Group_620" data-name="Group 620" transform="translate(0 3.152)">
                    <g id="Group_619" data-name="Group 619">
                      <g id="Group_618" data-name="Group 618">
                        <g id="Group_581" data-name="Group 581" transform="translate(8.422 1.517)">
                          <g id="Group_571" data-name="Group 571" transform="translate(0.895 1.208)">
                            <g id="Group_570" data-name="Group 570">
                              <g id="Group_569" data-name="Group 569">
                                <g id="Group_568" data-name="Group 568">
                                  <g id="Group_567" data-name="Group 567">
                                    <g id="Group_566" data-name="Group 566">
                                      <g id="Group_565" data-name="Group 565">
                                        <g id="Group_564" data-name="Group 564">
                                          <path id="Path_187" data-name="Path 187" d="M339.158,272.07a.809.809,0,0,1-.925.647.773.773,0,0,1-.674-.878.808.808,0,0,1,.924-.648A.774.774,0,0,1,339.158,272.07Z" transform="translate(-337.549 -271.182)" fill="#263238"/>
                                        </g>
                                      </g>
                                    </g>
                                  </g>
                                </g>
                              </g>
                            </g>
                          </g>
                          <g id="Group_580" data-name="Group 580">
                            <g id="Group_579" data-name="Group 579">
                              <g id="Group_578" data-name="Group 578">
                                <g id="Group_577" data-name="Group 577">
                                  <g id="Group_576" data-name="Group 576">
                                    <g id="Group_575" data-name="Group 575">
                                      <g id="Group_574" data-name="Group 574">
                                        <g id="Group_573" data-name="Group 573">
                                          <g id="Group_572" data-name="Group 572">
                                            <path id="Path_188" data-name="Path 188" d="M339.05,270.172c-.119.084-.631-.481-1.485-.649s-1.565.134-1.637.01c-.036-.056.1-.222.414-.366a2.22,2.22,0,0,1,1.336-.136,2.13,2.13,0,0,1,1.156.646C339.056,269.931,339.107,270.136,339.05,270.172Z" transform="translate(-335.923 -268.986)" fill="#263238"/>
                                          </g>
                                        </g>
                                      </g>
                                    </g>
                                  </g>
                                </g>
                              </g>
                            </g>
                          </g>
                        </g>
                        <g id="Group_599" data-name="Group 599">
                          <g id="Group_589" data-name="Group 589" transform="translate(0.887 1.342)">
                            <g id="Group_588" data-name="Group 588">
                              <g id="Group_587" data-name="Group 587">
                                <g id="Group_586" data-name="Group 586">
                                  <g id="Group_585" data-name="Group 585">
                                    <g id="Group_584" data-name="Group 584">
                                      <g id="Group_583" data-name="Group 583">
                                        <g id="Group_582" data-name="Group 582">
                                          <path id="Path_189" data-name="Path 189" d="M323.836,269.556a.809.809,0,0,1-.925.647.773.773,0,0,1-.675-.879.81.81,0,0,1,.924-.648A.775.775,0,0,1,323.836,269.556Z" transform="translate(-322.226 -268.668)" fill="#263238"/>
                                        </g>
                                      </g>
                                    </g>
                                  </g>
                                </g>
                              </g>
                            </g>
                          </g>
                          <g id="Group_598" data-name="Group 598">
                            <g id="Group_597" data-name="Group 597">
                              <g id="Group_596" data-name="Group 596">
                                <g id="Group_595" data-name="Group 595">
                                  <g id="Group_594" data-name="Group 594">
                                    <g id="Group_593" data-name="Group 593">
                                      <g id="Group_592" data-name="Group 592">
                                        <g id="Group_591" data-name="Group 591">
                                          <g id="Group_590" data-name="Group 590">
                                            <path id="Path_190" data-name="Path 190" d="M323.741,267.414c-.119.084-.632-.481-1.485-.649s-1.565.134-1.637.01c-.036-.056.1-.222.414-.366a2.224,2.224,0,0,1,1.336-.137,2.134,2.134,0,0,1,1.156.646C323.746,267.173,323.8,267.378,323.741,267.414Z" transform="translate(-320.614 -266.228)" fill="#263238"/>
                                          </g>
                                        </g>
                                      </g>
                                    </g>
                                  </g>
                                </g>
                              </g>
                            </g>
                          </g>
                        </g>
                        <g id="Group_608" data-name="Group 608" transform="translate(4.96 0.946)">
                          <g id="Group_607" data-name="Group 607">
                            <g id="Group_606" data-name="Group 606">
                              <g id="Group_605" data-name="Group 605">
                                <g id="Group_604" data-name="Group 604">
                                  <g id="Group_603" data-name="Group 603">
                                    <g id="Group_602" data-name="Group 602">
                                      <g id="Group_601" data-name="Group 601">
                                        <g id="Group_600" data-name="Group 600">
                                          <path id="Path_191" data-name="Path 191" d="M329.63,275.137a5.8,5.8,0,0,1,1.436.027c.223.021.437.019.5-.122a1.131,1.131,0,0,0-.016-.676l-.313-1.788a28.993,28.993,0,0,1-.58-4.63,29.138,29.138,0,0,1,.951,4.572q.148.938.284,1.793a1.286,1.286,0,0,1-.058.878.556.556,0,0,1-.422.247,1.487,1.487,0,0,1-.381-.023A5.632,5.632,0,0,1,329.63,275.137Z" transform="translate(-329.63 -267.948)" fill="#263238"/>
                                        </g>
                                      </g>
                                    </g>
                                  </g>
                                </g>
                              </g>
                            </g>
                          </g>
                        </g>
                        <g id="Group_617" data-name="Group 617" transform="translate(2.067 8.223)">
                          <g id="Group_616" data-name="Group 616">
                            <g id="Group_615" data-name="Group 615">
                              <g id="Group_614" data-name="Group 614">
                                <g id="Group_613" data-name="Group 613">
                                  <g id="Group_612" data-name="Group 612">
                                    <g id="Group_611" data-name="Group 611">
                                      <g id="Group_610" data-name="Group 610">
                                        <g id="Group_609" data-name="Group 609">
                                          <path id="Path_192" data-name="Path 192" d="M324.635,281.176c.14.02-.043.947.619,1.763s1.668.911,1.649,1.042c0,.061-.256.136-.675.064a2.354,2.354,0,0,1-1.387-.817,2.047,2.047,0,0,1-.459-1.466C324.423,281.367,324.572,281.159,324.635,281.176Z" transform="translate(-324.371 -281.175)" fill="#263238"/>
                                        </g>
                                      </g>
                                    </g>
                                  </g>
                                </g>
                              </g>
                            </g>
                          </g>
                        </g>
                      </g>
                    </g>
                  </g>
                  <g id="Group_628" data-name="Group 628" transform="translate(0.043)">
                    <g id="Group_627" data-name="Group 627">
                      <g id="Group_626" data-name="Group 626">
                        <g id="Group_625" data-name="Group 625">
                          <g id="Group_624" data-name="Group 624">
                            <g id="Group_623" data-name="Group 623">
                              <g id="Group_622" data-name="Group 622">
                                <g id="Group_621" data-name="Group 621">
                                  <path id="Path_193" data-name="Path 193" d="M324.665,261.536c-.13.215-.96-.065-1.986-.145-1.024-.1-1.89.032-1.981-.2-.039-.112.145-.3.517-.461a3.459,3.459,0,0,1,3.022.265C324.575,261.213,324.723,261.433,324.665,261.536Z" transform="translate(-320.693 -260.497)" fill="#263238"/>
                                </g>
                              </g>
                            </g>
                          </g>
                        </g>
                      </g>
                    </g>
                  </g>
                  <g id="Group_636" data-name="Group 636" transform="translate(8.851 2.099)">
                    <g id="Group_635" data-name="Group 635">
                      <g id="Group_634" data-name="Group 634">
                        <g id="Group_633" data-name="Group 633">
                          <g id="Group_632" data-name="Group 632">
                            <g id="Group_631" data-name="Group 631">
                              <g id="Group_630" data-name="Group 630">
                                <g id="Group_629" data-name="Group 629">
                                  <path id="Path_194" data-name="Path 194" d="M339.581,265.538c-.189.164-.737-.155-1.442-.306-.7-.175-1.332-.13-1.429-.361-.041-.111.092-.286.391-.417a2.133,2.133,0,0,1,2.313.537C339.623,265.24,339.666,265.456,339.581,265.538Z" transform="translate(-336.703 -264.313)" fill="#263238"/>
                                </g>
                              </g>
                            </g>
                          </g>
                        </g>
                      </g>
                    </g>
                  </g>
                </g>
              </g>
            </g>
          </g>
        </g>
        <g id="Group_659" data-name="Group 659" transform="translate(0 15.985)">
          <g id="Group_649" data-name="Group 649">
            <g id="Group_648" data-name="Group 648">
              <g id="Group_647" data-name="Group 647">
                <g id="Group_646" data-name="Group 646">
                  <g id="Group_645" data-name="Group 645">
                    <g id="Group_644" data-name="Group 644">
                      <g id="Group_643" data-name="Group 643">
                        <g id="Group_642" data-name="Group 642">
                          <path id="Path_195" data-name="Path 195" d="M305.295,270.009c-.086-.059-3.59-1.891-4.228,1.93s3.33,3.673,3.355,3.565S305.295,270.009,305.295,270.009Z" transform="translate(-300.998 -269.519)" fill="#ffbe9d"/>
                        </g>
                      </g>
                    </g>
                  </g>
                </g>
              </g>
            </g>
          </g>
          <g id="Group_658" data-name="Group 658" transform="translate(0.999 1.19)">
            <g id="Group_657" data-name="Group 657">
              <g id="Group_656" data-name="Group 656">
                <g id="Group_655" data-name="Group 655">
                  <g id="Group_654" data-name="Group 654">
                    <g id="Group_653" data-name="Group 653">
                      <g id="Group_652" data-name="Group 652">
                        <g id="Group_651" data-name="Group 651">
                          <g id="Group_650" data-name="Group 650">
                            <path id="Path_196" data-name="Path 196" d="M304.314,274.835c-.014-.015-.074.036-.2.068a.675.675,0,0,1-.5-.073,1.671,1.671,0,0,1-.515-1.6,2.231,2.231,0,0,1,.345-.922.78.78,0,0,1,.586-.427.344.344,0,0,1,.362.248c.033.116,0,.188.015.2s.093-.05.088-.213a.427.427,0,0,0-.11-.265.509.509,0,0,0-.352-.159.949.949,0,0,0-.794.476,2.29,2.29,0,0,0-.408,1.027,1.752,1.752,0,0,0,.7,1.812.722.722,0,0,0,.625,0C304.292,274.926,304.326,274.844,304.314,274.835Z" transform="translate(-302.814 -271.683)" fill="#eb996e"/>
                          </g>
                        </g>
                      </g>
                    </g>
                  </g>
                </g>
              </g>
            </g>
          </g>
        </g>
        <g id="Group_660" data-name="Group 660" transform="translate(3.855 1.84)">
          <path id="Path_197" data-name="Path 197" d="M329.634,255.438a8.181,8.181,0,0,1-6.805-3.029c-1.122-1.416-1.836-3.271-3.424-4.13a4.6,4.6,0,0,0-3.544-.217,8.887,8.887,0,0,0-3.1,1.881c.509,3.037-.841,6.043-2.158,8.827a1.539,1.539,0,0,1-.617.788c-.518.255-1.137-.149-1.447-.637a4.783,4.783,0,0,1-.535-2.681,15.924,15.924,0,0,1,1.267-6.152,10.844,10.844,0,0,1,3.994-4.784,10.276,10.276,0,0,1,7.6-1.259,12.619,12.619,0,0,1,6.662,4,7.392,7.392,0,0,1,1.795,3.152" transform="translate(-308.006 -243.806)" fill="#263238"/>
        </g>
      </g>
    </g>
  </g>
  <g id="Plant" transform="translate(1.037 48.699)">
    <g id="Group_759" data-name="Group 759" transform="translate(0)">
      <g id="Group_750" data-name="Group 750">
        <g id="Group_665" data-name="Group 665" transform="translate(6.715)">
          <g id="Group_664" data-name="Group 664">
            <g id="Group_663" data-name="Group 663">
              <path id="Path_198" data-name="Path 198" d="M59.868,351.837a1.4,1.4,0,0,1,.1-.232l.312-.665a16.77,16.77,0,0,0,.916-2.66,23.485,23.485,0,0,0-.078-10.274,55.226,55.226,0,0,0-1.906-6.9c-.807-2.449-1.743-5.048-2.508-7.857a30.394,30.394,0,0,1-1.238-9.033,35.365,35.365,0,0,1,2.1-9.559A46.467,46.467,0,0,0,60,295.243a14.349,14.349,0,0,0-1.726-8.694c-1.377-2.536-3.109-4.706-4.406-6.954a24.158,24.158,0,0,1-2.648-6.685,24.9,24.9,0,0,1-.168-10.357,19.273,19.273,0,0,1,1.081-3.658,1.421,1.421,0,0,1-.064.243c-.054.173-.127.405-.219.7a26.613,26.613,0,0,0-.672,2.738,25.218,25.218,0,0,0,.268,10.279,24.1,24.1,0,0,0,2.657,6.6c1.294,2.221,3.034,4.381,4.438,6.948a14.634,14.634,0,0,1,1.78,8.871,46.427,46.427,0,0,1-2.441,9.484,35.215,35.215,0,0,0-2.093,9.469,30.231,30.231,0,0,0,1.209,8.941c.753,2.8,1.678,5.394,2.474,7.85a54.444,54.444,0,0,1,1.875,6.942,23.223,23.223,0,0,1-.026,10.35,15.377,15.377,0,0,1-.98,2.656l-.342.652A1.422,1.422,0,0,1,59.868,351.837Z" transform="translate(-50.586 -258.895)" fill="#263238"/>
            </g>
          </g>
        </g>
        <g id="Group_671" data-name="Group 671" transform="translate(11.024 9.477)">
          <g id="Group_667" data-name="Group 667">
            <g id="Group_666" data-name="Group 666">
              <path id="Path_199" data-name="Path 199" d="M59.151,289.563s-2.632-8.419,2.09-13.348a.292.292,0,0,1,.5.145C61.993,277.749,62.308,281.984,59.151,289.563Z" transform="translate(-58.419 -276.122)" fill="#e8505b"/>
            </g>
          </g>
          <g id="Group_670" data-name="Group 670" transform="translate(0.637 2.898)">
            <g id="Group_669" data-name="Group 669">
              <g id="Group_668" data-name="Group 668">
                <path id="Path_200" data-name="Path 200" d="M61.249,281.39a7.762,7.762,0,0,1-.178,1.553c-.173,1.07-.376,2.326-.6,3.713s-.419,2.643-.589,3.713a8.431,8.431,0,0,1-.279,1.537,6.555,6.555,0,0,1,.047-1.565c.087-.962.257-2.285.5-3.738s.491-2.76.7-3.7A6.973,6.973,0,0,1,61.249,281.39Z" transform="translate(-59.576 -281.39)" fill="#263238"/>
              </g>
            </g>
          </g>
        </g>
        <g id="Group_677" data-name="Group 677" transform="translate(14.796 31.936)">
          <g id="Group_673" data-name="Group 673" transform="translate(0.051)">
            <g id="Group_672" data-name="Group 672">
              <path id="Path_201" data-name="Path 201" d="M65.371,327.786s1.61-8.672,8.089-10.821a.292.292,0,0,1,.375.362C73.408,318.674,71.706,322.564,65.371,327.786Z" transform="translate(-65.371 -316.95)" fill="#e8505b"/>
            </g>
          </g>
          <g id="Group_676" data-name="Group 676" transform="translate(0 2.254)">
            <g id="Group_675" data-name="Group 675">
              <g id="Group_674" data-name="Group 674">
                <path id="Path_202" data-name="Path 202" d="M71.653,321.049a7.782,7.782,0,0,1-.883,1.29l-2.268,3-2.258,3.006a8.449,8.449,0,0,1-.965,1.228,6.568,6.568,0,0,1,.773-1.361c.527-.809,1.3-1.9,2.186-3.072s1.725-2.21,2.348-2.947A7,7,0,0,1,71.653,321.049Z" transform="translate(-65.278 -321.047)" fill="#263238"/>
              </g>
            </g>
          </g>
        </g>
        <g id="Group_683" data-name="Group 683" transform="translate(13.027 51.77)">
          <g id="Group_679" data-name="Group 679" transform="translate(0.004)">
            <g id="Group_678" data-name="Group 678">
              <path id="Path_203" data-name="Path 203" d="M62.134,365.764s-.978-8.766,4.6-12.7a.292.292,0,0,1,.463.238C67.178,354.71,66.68,358.927,62.134,365.764Z" transform="translate(-62.068 -353.004)" fill="#e8505b"/>
            </g>
          </g>
          <g id="Group_682" data-name="Group 682" transform="translate(0 2.711)">
            <g id="Group_681" data-name="Group 681">
              <g id="Group_680" data-name="Group 680">
                <path id="Path_204" data-name="Path 204" d="M65.69,357.933a7.73,7.73,0,0,1-.47,1.491l-1.3,3.53-1.287,3.533a8.539,8.539,0,0,1-.567,1.455,6.492,6.492,0,0,1,.345-1.527c.269-.927.688-2.194,1.2-3.575s1.008-2.616,1.39-3.5A7.014,7.014,0,0,1,65.69,357.933Z" transform="translate(-62.06 -357.932)" fill="#263238"/>
              </g>
            </g>
          </g>
        </g>
        <g id="Group_689" data-name="Group 689" transform="translate(17.91 73.832)">
          <g id="Group_685" data-name="Group 685" transform="translate(0.044)">
            <g id="Group_684" data-name="Group 684">
              <path id="Path_205" data-name="Path 205" d="M71.042,405.691s-.664-8.8,5.05-12.531a.292.292,0,0,1,.455.254C76.478,394.825,75.829,399.021,71.042,405.691Z" transform="translate(-71.018 -393.111)" fill="#e8505b"/>
            </g>
          </g>
          <g id="Group_688" data-name="Group 688" transform="translate(0 2.666)">
            <g id="Group_687" data-name="Group 687">
              <g id="Group_686" data-name="Group 686">
                <path id="Path_206" data-name="Path 206" d="M74.923,397.958a7.773,7.773,0,0,1-.524,1.473l-1.424,3.482L71.563,406.4a8.423,8.423,0,0,1-.618,1.434,6.5,6.5,0,0,1,.4-1.513c.3-.918.766-2.168,1.326-3.529s1.1-2.578,1.515-3.45A6.977,6.977,0,0,1,74.923,397.958Z" transform="translate(-70.937 -397.957)" fill="#263238"/>
              </g>
            </g>
          </g>
        </g>
        <g id="Group_695" data-name="Group 695" transform="translate(0 4.309)">
          <g id="Group_691" data-name="Group 691">
            <g id="Group_690" data-name="Group 690">
              <path id="Path_207" data-name="Path 207" d="M46.352,277.939s-7.819-4.083-7.972-10.908a.292.292,0,0,1,.456-.252C40,267.583,43.218,270.351,46.352,277.939Z" transform="translate(-38.38 -266.728)" fill="#e8505b"/>
            </g>
          </g>
          <g id="Group_694" data-name="Group 694" transform="translate(1.62 2.647)">
            <g id="Group_693" data-name="Group 693">
              <g id="Group_692" data-name="Group 692">
                <path id="Path_208" data-name="Path 208" d="M41.328,271.541a7.749,7.749,0,0,1,.974,1.222l2.2,3.048,2.212,3.04a8.482,8.482,0,0,1,.891,1.283A6.536,6.536,0,0,1,46.535,279c-.619-.741-1.436-1.8-2.3-2.991s-1.607-2.3-2.128-3.109A7.017,7.017,0,0,1,41.328,271.541Z" transform="translate(-41.325 -271.54)" fill="#263238"/>
              </g>
            </g>
          </g>
        </g>
        <g id="Group_701" data-name="Group 701" transform="translate(7.747 22.875)">
          <g id="Group_697" data-name="Group 697">
            <g id="Group_696" data-name="Group 696">
              <path id="Path_209" data-name="Path 209" d="M61.083,311.2s-8.052-3.6-8.62-10.4a.292.292,0,0,1,.44-.279C54.112,301.252,57.494,303.819,61.083,311.2Z" transform="translate(-52.462 -300.478)" fill="#e8505b"/>
            </g>
          </g>
          <g id="Group_700" data-name="Group 700" transform="translate(1.761 2.562)">
            <g id="Group_699" data-name="Group 699">
              <g id="Group_698" data-name="Group 698">
                <path id="Path_210" data-name="Path 210" d="M55.667,305.137a7.727,7.727,0,0,1,1.047,1.161l2.385,2.908,2.392,2.9a8.482,8.482,0,0,1,.967,1.226,6.506,6.506,0,0,1-1.141-1.071c-.663-.7-1.542-1.705-2.473-2.846s-1.744-2.2-2.314-2.974A7.025,7.025,0,0,1,55.667,305.137Z" transform="translate(-55.664 -305.136)" fill="#263238"/>
              </g>
            </g>
          </g>
        </g>
        <g id="Group_707" data-name="Group 707" transform="translate(8.107 40.394)">
          <g id="Group_703" data-name="Group 703">
            <g id="Group_702" data-name="Group 702">
              <path id="Path_211" data-name="Path 211" d="M56.744,345.7s-5.529-6.873-2.935-13.188a.292.292,0,0,1,.519-.048C55.071,333.664,56.912,337.49,56.744,345.7Z" transform="translate(-53.117 -332.326)" fill="#e8505b"/>
            </g>
          </g>
          <g id="Group_706" data-name="Group 706" transform="translate(1.227 2.983)">
            <g id="Group_705" data-name="Group 705">
              <g id="Group_704" data-name="Group 704">
                <path id="Path_212" data-name="Path 212" d="M55.361,337.749a7.742,7.742,0,0,1,.4,1.511l.8,3.676c.3,1.372.576,2.613.809,3.671a8.475,8.475,0,0,1,.3,1.532,6.531,6.531,0,0,1-.528-1.474c-.271-.927-.6-2.221-.906-3.66s-.552-2.749-.705-3.7A7.063,7.063,0,0,1,55.361,337.749Z" transform="translate(-55.347 -337.749)" fill="#263238"/>
              </g>
            </g>
          </g>
        </g>
        <g id="Group_713" data-name="Group 713" transform="translate(8.766 66.635)">
          <g id="Group_709" data-name="Group 709">
            <g id="Group_708" data-name="Group 708">
              <path id="Path_213" data-name="Path 213" d="M62.76,390.892s-7.99-3.736-8.443-10.547a.292.292,0,0,1,.444-.272C55.957,380.825,59.3,383.449,62.76,390.892Z" transform="translate(-54.316 -380.028)" fill="#e8505b"/>
            </g>
          </g>
          <g id="Group_712" data-name="Group 712" transform="translate(1.723 2.586)">
            <g id="Group_711" data-name="Group 711">
              <g id="Group_710" data-name="Group 710">
                <path id="Path_214" data-name="Path 214" d="M57.451,384.731a7.749,7.749,0,0,1,1.027,1.178l2.336,2.949,2.343,2.94a8.466,8.466,0,0,1,.946,1.242,6.534,6.534,0,0,1-1.123-1.09c-.651-.713-1.514-1.731-2.425-2.887s-1.707-2.224-2.264-3.012A7.031,7.031,0,0,1,57.451,384.731Z" transform="translate(-57.448 -384.73)" fill="#263238"/>
              </g>
            </g>
          </g>
        </g>
        <g id="Group_749" data-name="Group 749" transform="translate(15.255 40.813)">
          <g id="Group_716" data-name="Group 716" transform="translate(2.614 2.006)">
            <g id="Group_715" data-name="Group 715">
              <g id="Group_714" data-name="Group 714">
                <path id="Path_215" data-name="Path 215" d="M86.12,336.735a.631.631,0,0,1,.01.194c0,.153-.008.339-.014.564-.024.53-.055,1.245-.095,2.139-.1,1.88-.246,4.5-.419,7.638v.008l0,.01a29.63,29.63,0,0,1-4.379,10.164c-1.6,2.53-3.28,4.83-4.729,6.97a49.474,49.474,0,0,0-3.545,5.86,24.842,24.842,0,0,0-1.659,4.3c-.141.527-.246.938-.307,1.219a2.158,2.158,0,0,1-.117.425,2.245,2.245,0,0,1,.052-.437c.04-.287.126-.7.248-1.239a22.682,22.682,0,0,1,1.573-4.369,46.783,46.783,0,0,1,3.5-5.929c1.439-2.154,3.108-4.459,4.7-6.976a30.051,30.051,0,0,0,4.38-10.042l0,.018c.22-3.133.4-5.752.536-7.63.072-.891.13-1.605.173-2.134.023-.224.041-.408.056-.561A.676.676,0,0,1,86.12,336.735Z" transform="translate(-70.862 -336.735)" fill="#263238"/>
              </g>
            </g>
          </g>
          <g id="Group_724" data-name="Group 724" transform="translate(11.342 8.472)">
            <g id="Group_718" data-name="Group 718">
              <g id="Group_717" data-name="Group 717">
                <path id="Path_216" data-name="Path 216" d="M88.5,362.083s3.384-8.146-.872-13.482a.292.292,0,0,0-.512.1C86.74,350.061,86.043,354.25,88.5,362.083Z" transform="translate(-86.729 -348.488)" fill="#e8505b"/>
              </g>
            </g>
            <g id="Group_721" data-name="Group 721" transform="translate(1.131 2.953)">
              <g id="Group_720" data-name="Group 720">
                <g id="Group_719" data-name="Group 719">
                  <path id="Path_217" data-name="Path 217" d="M88.81,353.856a7.064,7.064,0,0,1,.268,1.541c.119.957.254,2.282.359,3.75s.155,2.8.155,3.768a6.492,6.492,0,0,1-.095,1.563,8.49,8.49,0,0,1-.139-1.556c-.072-1.081-.157-2.349-.251-3.751s-.186-2.671-.262-3.752A7.694,7.694,0,0,1,88.81,353.856Z" transform="translate(-88.785 -353.856)" fill="#263238"/>
                </g>
              </g>
            </g>
            <g id="Group_723" data-name="Group 723" opacity="0.3">
              <g id="Group_722" data-name="Group 722">
                <path id="Path_218" data-name="Path 218" d="M88.5,362.083s3.384-8.146-.872-13.482a.292.292,0,0,0-.512.1C86.74,350.061,86.043,354.25,88.5,362.083Z" transform="translate(-86.729 -348.488)"/>
              </g>
            </g>
          </g>
          <g id="Group_732" data-name="Group 732" transform="translate(0 28.234)">
            <g id="Group_726" data-name="Group 726">
              <g id="Group_725" data-name="Group 725">
                <path id="Path_219" data-name="Path 219" d="M68.743,397.875s2.713-8.393-1.963-13.367a.292.292,0,0,0-.5.14C66.013,386.036,65.658,390.267,68.743,397.875Z" transform="translate(-66.111 -384.414)" fill="#e8505b"/>
              </g>
            </g>
            <g id="Group_729" data-name="Group 729" transform="translate(1.142 2.905)">
              <g id="Group_728" data-name="Group 728">
                <g id="Group_727" data-name="Group 727">
                  <path id="Path_220" data-name="Path 220" d="M68.2,389.694a7.008,7.008,0,0,1,.392,1.514c.2.944.438,2.255.662,3.709s.382,2.78.46,3.742a6.532,6.532,0,0,1,.032,1.565,8.438,8.438,0,0,1-.265-1.539c-.16-1.071-.347-2.329-.554-3.718l-.565-3.719A7.74,7.74,0,0,1,68.2,389.694Z" transform="translate(-68.187 -389.694)" fill="#263238"/>
                </g>
              </g>
            </g>
            <g id="Group_731" data-name="Group 731" opacity="0.3">
              <g id="Group_730" data-name="Group 730">
                <path id="Path_221" data-name="Path 221" d="M68.743,397.875s2.713-8.393-1.963-13.367a.292.292,0,0,0-.5.14C66.013,386.036,65.658,390.267,68.743,397.875Z" transform="translate(-66.111 -384.414)"/>
              </g>
            </g>
          </g>
          <g id="Group_740" data-name="Group 740" transform="translate(17.424)">
            <g id="Group_734" data-name="Group 734">
              <g id="Group_733" data-name="Group 733">
                <path id="Path_222" data-name="Path 222" d="M97.785,345.2s7.226-5.058,6.5-11.845a.292.292,0,0,0-.485-.191C102.749,334.109,99.913,337.27,97.785,345.2Z" transform="translate(-97.785 -333.088)" fill="#e8505b"/>
              </g>
            </g>
            <g id="Group_736" data-name="Group 736" opacity="0.3">
              <g id="Group_735" data-name="Group 735">
                <path id="Path_223" data-name="Path 223" d="M97.785,345.2s7.226-5.058,6.5-11.845a.292.292,0,0,0-.485-.191C102.749,334.109,99.913,337.27,97.785,345.2Z" transform="translate(-97.785 -333.088)"/>
              </g>
            </g>
            <g id="Group_739" data-name="Group 739" transform="translate(0.067 2.8)">
              <g id="Group_738" data-name="Group 738">
                <g id="Group_737" data-name="Group 737">
                  <path id="Path_224" data-name="Path 224" d="M103.029,338.178a6.97,6.97,0,0,1-.6,1.445c-.413.872-1.011,2.063-1.71,3.358s-1.372,2.447-1.89,3.262a6.5,6.5,0,0,1-.919,1.268,8.5,8.5,0,0,1,.718-1.387l1.8-3.3,1.792-3.307A7.8,7.8,0,0,1,103.029,338.178Z" transform="translate(-97.906 -338.177)" fill="#263238"/>
                </g>
              </g>
            </g>
          </g>
          <g id="Group_748" data-name="Group 748" transform="translate(5.546 25.205)">
            <g id="Group_742" data-name="Group 742">
              <g id="Group_741" data-name="Group 741">
                <path id="Path_225" data-name="Path 225" d="M76.193,387.077s8.715-1.359,11.05-7.773a.292.292,0,0,0-.351-.385C85.534,379.306,81.6,380.895,76.193,387.077Z" transform="translate(-76.193 -378.907)" fill="#e8505b"/>
              </g>
            </g>
            <g id="Group_744" data-name="Group 744" opacity="0.3">
              <g id="Group_743" data-name="Group 743">
                <path id="Path_226" data-name="Path 226" d="M76.193,387.077s8.715-1.359,11.05-7.773a.292.292,0,0,0-.351-.385C85.534,379.306,81.6,380.895,76.193,387.077Z" transform="translate(-76.193 -378.907)"/>
              </g>
            </g>
            <g id="Group_747" data-name="Group 747" transform="translate(0.054 2.093)">
              <g id="Group_746" data-name="Group 746">
                <g id="Group_745" data-name="Group 745">
                  <path id="Path_227" data-name="Path 227" d="M85,382.715a7.034,7.034,0,0,1-1.176,1.033c-.754.6-1.815,1.406-3.013,2.261s-2.31,1.593-3.134,2.1a6.493,6.493,0,0,1-1.383.734,8.487,8.487,0,0,1,1.255-.929l3.07-2.17,3.065-2.18A7.728,7.728,0,0,1,85,382.715Z" transform="translate(-76.29 -382.712)" fill="#263238"/>
                </g>
              </g>
            </g>
          </g>
        </g>
      </g>
      <g id="Group_752" data-name="Group 752" transform="translate(9.945 90.227)">
        <g id="Group_751" data-name="Group 751">
          <path id="Path_228" data-name="Path 228" d="M59,422.915l-2.542,17.111H72.3l-2.054-17.111Z" transform="translate(-56.458 -422.915)" fill="#455a64"/>
        </g>
      </g>
      <g id="Group_755" data-name="Group 755" transform="translate(11.59 95.365)">
        <g id="Group_754" data-name="Group 754">
          <g id="Group_753" data-name="Group 753">
            <path id="Path_229" data-name="Path 229" d="M72.226,432.418a61.917,61.917,0,0,1-6.389.165,61.908,61.908,0,0,1-6.389-.165,62.193,62.193,0,0,1,6.389-.164A62.2,62.2,0,0,1,72.226,432.418Z" transform="translate(-59.448 -432.254)" fill="#263238"/>
          </g>
        </g>
      </g>
      <g id="Group_758" data-name="Group 758" transform="translate(11.485 96.726)">
        <g id="Group_757" data-name="Group 757">
          <g id="Group_756" data-name="Group 756">
            <path id="Path_230" data-name="Path 230" d="M72.454,434.893c0,.091-2.955.165-6.6.165s-6.6-.074-6.6-.165,2.953-.164,6.6-.164S72.454,434.8,72.454,434.893Z" transform="translate(-59.258 -434.729)" fill="#263238"/>
          </g>
        </g>
      </g>
    </g>
  </g>
</svg>
