<svg xmlns="http://www.w3.org/2000/svg" width="157.612" height="194.193" viewBox="0 0 157.612 194.193">
  <g id="Group_978" data-name="Group 978" transform="translate(-651.721 -205.353)">
    <g id="Group_802" data-name="Group 802" transform="translate(764.478 349.711)" opacity="0.3" style="mix-blend-mode: multiply;isolation: isolate">
      <g id="Group_798" data-name="Group 798">
        <path id="Path_282" data-name="Path 282" d="M324.207,361.439c-3.916-9.516-.635-22.048,5.117-30.58a11.8,11.8,0,0,1,5.155-4.694c2.189-.855,4.633-.592,6.967-.316l17.573,2.078c2.275.269,4.765.646,6.283,2.361a8.523,8.523,0,0,1,1.654,5.188c.891,13.353,1.218,26.545-9.622,34.392Z" transform="translate(-322.498 -325.582)" fill="#e8505b"/>
        <g id="Group_797" data-name="Group 797" opacity="0.4" style="mix-blend-mode: multiply;isolation: isolate">
          <path id="Path_283" data-name="Path 283" d="M324.207,361.439c-3.916-9.516-.635-22.048,5.117-30.58a11.8,11.8,0,0,1,5.155-4.694c2.189-.855,4.633-.592,6.967-.316l17.573,2.078c2.275.269,4.765.646,6.283,2.361a8.523,8.523,0,0,1,1.654,5.188c.891,13.353,1.218,26.545-9.622,34.392Z" transform="translate(-322.498 -325.582)"/>
        </g>
      </g>
      <g id="Group_799" data-name="Group 799" transform="translate(33.806 5.106)">
        <path id="Path_284" data-name="Path 284" d="M421.425,374.822a.363.363,0,0,1-.032-.086l-.077-.258-.278-1-.2-.722c-.066-.266-.125-.557-.195-.869-.132-.625-.309-1.332-.426-2.129q-.1-.6-.208-1.246c-.07-.433-.111-.889-.17-1.359-.131-.938-.186-1.948-.262-3.009a47.78,47.78,0,0,1,1.26-13.747c.268-1.03.506-2.014.805-2.912.144-.451.267-.891.415-1.3L422.49,345c.26-.762.563-1.425.806-2.016.125-.294.236-.57.35-.819l.325-.675.455-.93.123-.24a.335.335,0,0,1,.047-.079.361.361,0,0,1-.031.087l-.106.247-.424.944-.31.68c-.108.251-.214.528-.335.823-.234.593-.528,1.258-.779,2.02l-.419,1.188c-.144.414-.263.854-.4,1.3-.292.9-.524,1.879-.786,2.907a48.975,48.975,0,0,0-1.256,13.7c.071,1.058.121,2.066.245,3,.056.468.093.923.16,1.356l.2,1.244c.109.8.277,1.5.4,2.129.065.312.119.6.18.87l.181.725.245,1,.059.263A.341.341,0,0,1,421.425,374.822Z" transform="translate(-419.521 -340.238)" fill="#263238"/>
      </g>
      <g id="Group_800" data-name="Group 800" transform="translate(29.673 25.53)">
        <path id="Path_285" data-name="Path 285" d="M411.865,398.854a1.837,1.837,0,0,1-.494.459,5.554,5.554,0,0,1-3.041,1.069,1.832,1.832,0,0,1-.672-.049,7.782,7.782,0,0,0,4.207-1.479Z" transform="translate(-407.658 -398.851)" fill="#263238"/>
      </g>
      <g id="Group_801" data-name="Group 801" transform="translate(32.355 24.647)">
        <path id="Path_286" data-name="Path 286" d="M417.18,396.495a4.651,4.651,0,0,1-1.823-.13,4.649,4.649,0,0,1,1.823.13Z" transform="translate(-415.357 -396.318)" fill="#263238"/>
      </g>
    </g>
    <g id="Group_319" data-name="Group 319" transform="translate(651.721 205.353)">
      <g id="Background_Complete" data-name="Background Complete" transform="translate(0 36.294)" opacity="0.3">
        <g id="Group_32" data-name="Group 32">
          <g id="Group_21" data-name="Group 21">
            <g id="Group_20" data-name="Group 20">
              <path id="Path_29" data-name="Path 29" d="M419.909,73.057v122.72H563.192V73.057Zm68.339,116.372H425.863V78.469h62.385Zm68.335,0H494.2V78.469h62.385Z" transform="translate(-419.909 -73.057)" fill="#e0e0e0"/>
            </g>
          </g>
          <g id="Group_26" data-name="Group 26" transform="translate(79.985 18.16)">
            <g id="Group_23" data-name="Group 23" transform="translate(0 17.979)">
              <g id="Group_22" data-name="Group 22">
                <path id="Path_30" data-name="Path 30" d="M606.184,143.357c.052.052-6.774,6.964-15.246,15.435s-15.384,15.3-15.436,15.247,6.773-6.962,15.247-15.436S606.132,143.3,606.184,143.357Z" transform="translate(-575.501 -143.356)" fill="#e0e0e0"/>
              </g>
            </g>
            <g id="Group_25" data-name="Group 25" transform="translate(9.433)">
              <g id="Group_24" data-name="Group 24">
                <path id="Path_31" data-name="Path 31" d="M625.978,108.383c.052.052-7.1,7.287-15.968,16.157s-16.106,16.021-16.159,15.969,7.1-7.285,15.969-16.159S625.926,108.33,625.978,108.383Z" transform="translate(-593.851 -108.382)" fill="#e0e0e0"/>
              </g>
            </g>
          </g>
          <g id="Group_31" data-name="Group 31" transform="translate(12.529 38.104)">
            <g id="Group_28" data-name="Group 28" transform="translate(0 17.979)">
              <g id="Group_27" data-name="Group 27">
                <path id="Path_32" data-name="Path 32" d="M474.964,182.154c.052.052-6.774,6.964-15.246,15.435s-15.384,15.3-15.437,15.247,6.773-6.962,15.247-15.436S474.912,182.1,474.964,182.154Z" transform="translate(-444.281 -182.153)" fill="#e0e0e0"/>
              </g>
            </g>
            <g id="Group_30" data-name="Group 30" transform="translate(9.434)">
              <g id="Group_29" data-name="Group 29">
                <path id="Path_33" data-name="Path 33" d="M494.759,147.18c.052.052-7.1,7.287-15.967,16.157s-16.106,16.021-16.159,15.969,7.1-7.285,15.97-16.159S494.707,147.128,494.759,147.18Z" transform="translate(-462.632 -147.179)" fill="#e0e0e0"/>
              </g>
            </g>
          </g>
        </g>
      </g>
      <g id="Character_2" data-name="Character 2" transform="translate(6.439 81.742)">
        <g id="Group_318" data-name="Group 318">
          <g id="Group_73" data-name="Group 73" transform="translate(71.672 57.28)">
            <g id="Group_68" data-name="Group 68">
              <path id="Path_47" data-name="Path 47" d="M602.152,240.289l-8.229,12.65-11.98-5.1-6.809-3.558-8.32.918,11.753,7.244h0l11.469,10.771a7.059,7.059,0,0,0,11.518-1.125l9.325-16.575Z" transform="translate(-566.814 -240.289)" fill="#ffbe9d"/>
            </g>
            <g id="Group_72" data-name="Group 72" transform="translate(2.661 4.122)">
              <g id="Group_69" data-name="Group 69" transform="translate(0.126 0.137)">
                <path id="Path_48" data-name="Path 48" d="M582.868,251.691a63.352,63.352,0,0,0-10.309-2.74c-.215.225.07.99.331,1.185a2.634,2.634,0,0,0,1.007.464,3.515,3.515,0,0,1,1.015.274,2.771,2.771,0,0,1,.973,1.193,5.9,5.9,0,0,0,5.246,2.353" transform="translate(-572.484 -248.951)" fill="#ffbe9d"/>
              </g>
              <g id="Group_71" data-name="Group 71">
                <g id="Group_70" data-name="Group 70">
                  <path id="Path_49" data-name="Path 49" d="M581,254.278a.727.727,0,0,1-.22.032,5.022,5.022,0,0,1-.637.011,6.531,6.531,0,0,1-2.28-.534,5.515,5.515,0,0,1-1.385-.863,4.458,4.458,0,0,1-.632-.665c-.192-.255-.345-.545-.509-.811a1.591,1.591,0,0,0-.663-.633,4.1,4.1,0,0,0-.98-.243,2.744,2.744,0,0,1-1.02-.484,1.283,1.283,0,0,1-.335-.513,1.335,1.335,0,0,1-.107-.608.453.453,0,0,1,.106-.245l.044-.049.068.011A50.373,50.373,0,0,1,579.8,250.5c.92.295,1.658.551,2.164.737a5.171,5.171,0,0,1,.776.315,5.428,5.428,0,0,1-.808-.221l-2.185-.659a58.844,58.844,0,0,0-7.335-1.733l.112-.038a.218.218,0,0,0-.036.1,1.289,1.289,0,0,0,.346.889,2.515,2.515,0,0,0,.914.439,4.243,4.243,0,0,1,1.033.268,1.824,1.824,0,0,1,.758.728,4.854,4.854,0,0,0,2.4,2.3,6.961,6.961,0,0,0,2.213.6C580.694,254.271,581,254.254,581,254.278Z" transform="translate(-572.227 -248.672)" fill="#eb996e"/>
                </g>
              </g>
            </g>
          </g>
          <g id="Group_76" data-name="Group 76" transform="translate(4.346 92.929)">
            <g id="Group_74" data-name="Group 74">
              <path id="Path_50" data-name="Path 50" d="M462.125,321.9l-10.919,5.658L449.42,329.6a3.01,3.01,0,0,1-4.247.29L429.89,316.561s.618-2.164,2.164-1.659,13.709,4.172,13.709,4.172l10.171-6.283Z" transform="translate(-429.89 -312.791)" fill="#e8505b"/>
            </g>
            <g id="Group_75" data-name="Group 75" opacity="0.4">
              <path id="Path_51" data-name="Path 51" d="M462.125,321.9l-10.919,5.658L449.42,329.6a3.01,3.01,0,0,1-4.247.29L429.89,316.561s.618-2.164,2.164-1.659,13.709,4.172,13.709,4.172l10.171-6.283Z" transform="translate(-429.89 -312.791)" fill="#fff"/>
            </g>
          </g>
          <g id="Group_79" data-name="Group 79" transform="translate(24.923 96.636)">
            <g id="Group_77" data-name="Group 77">
              <path id="Path_52" data-name="Path 52" d="M498,325.424l-2.667,4.864v5.727H472.04s-.957-2.036.54-2.672,13.072-5.868,13.072-5.868l4.832-7.145Z" transform="translate(-471.738 -320.33)" fill="#e8505b"/>
            </g>
            <g id="Group_78" data-name="Group 78" opacity="0.4">
              <path id="Path_53" data-name="Path 53" d="M498,325.424l-2.667,4.864v5.727H472.04s-.957-2.036.54-2.672,13.072-5.868,13.072-5.868l4.832-7.145Z" transform="translate(-471.738 -320.33)" fill="#fff"/>
            </g>
          </g>
          <g id="Group_142" data-name="Group 142" transform="translate(0 63.549)">
            <g id="Group_82" data-name="Group 82" transform="translate(26.194 6.085)">
              <g id="Group_80" data-name="Group 80">
                <path id="Path_54" data-name="Path 54" d="M513.427,265.415s-6.313.492-8.568,1.974-30.534,21.782-30.534,21.782l6.972,11.041,19.5-9.245Z" transform="translate(-474.325 -265.415)" fill="#e8505b"/>
              </g>
              <g id="Group_81" data-name="Group 81" opacity="0.5">
                <path id="Path_55" data-name="Path 55" d="M513.427,265.415s-6.313.492-8.568,1.974-30.534,21.782-30.534,21.782l6.972,11.041,19.5-9.245Z" transform="translate(-474.325 -265.415)"/>
              </g>
            </g>
            <g id="Group_86" data-name="Group 86" transform="translate(41.37)">
              <g id="Group_83" data-name="Group 83">
                <path id="Path_56" data-name="Path 56" d="M596.334,284.009s-2.4,10.528-3.019,12.15c-.87,2.283-9.822,7.458-20.758,4.66-11.3-2.89-38.2-24.745-38.2-24.745l-2.69,1.977-16.822,15.623s-9.659-3.984-9.659-7.978c0,0,20.447-31.2,22.311-31.79a11.348,11.348,0,0,1,6.037-.692c2.263.476,36.267,19.12,36.267,19.12h0Z" transform="translate(-505.189 -253.04)" fill="#e8505b"/>
              </g>
              <g id="Group_85" data-name="Group 85">
                <g id="Group_84" data-name="Group 84" opacity="0.5">
                  <path id="Path_57" data-name="Path 57" d="M596.334,284.009s-2.4,10.528-3.019,12.15c-.87,2.283-9.822,7.458-20.758,4.66-11.3-2.89-38.2-24.745-38.2-24.745l-2.69,1.977-16.822,15.623s-9.659-3.984-9.659-7.978c0,0,20.447-31.2,22.311-31.79a11.348,11.348,0,0,1,6.037-.692c2.263.476,36.267,19.12,36.267,19.12h0Z" transform="translate(-505.189 -253.04)"/>
                </g>
              </g>
            </g>
            <g id="Group_88" data-name="Group 88" transform="translate(61.947 17.544)">
              <g id="Group_87" data-name="Group 87">
                <path id="Path_58" data-name="Path 58" d="M547.048,288.719a1.555,1.555,0,0,1,.11.433,5.4,5.4,0,0,0,.34,1.142l.175.354.092.188.123.179.258.377.323.359a6.29,6.29,0,0,0,1.73,1.273,10.949,10.949,0,0,0,3.785,1.071c1.011.108,1.645.071,1.648.116a1.483,1.483,0,0,1-.443.065,8.2,8.2,0,0,1-1.22,0,10,10,0,0,1-3.886-1.024,6.206,6.206,0,0,1-1.785-1.34l-.33-.384-.259-.4-.122-.191-.089-.2-.166-.375a4.434,4.434,0,0,1-.271-1.2A1.5,1.5,0,0,1,547.048,288.719Z" transform="translate(-547.037 -288.719)" fill="#263238"/>
              </g>
            </g>
            <g id="Group_90" data-name="Group 90" transform="translate(65.181 13.514)">
              <g id="Group_89" data-name="Group 89">
                <path id="Path_59" data-name="Path 59" d="M558.973,290.045a1.531,1.531,0,0,1-.393-.222c-.248-.151-.586-.4-1-.714a10.647,10.647,0,0,1-2.673-3.044A10.236,10.236,0,0,1,553.7,282.2c-.059-.516-.086-.935-.089-1.224a1.534,1.534,0,0,1,.018-.451c.043,0,.089.636.25,1.65a11.215,11.215,0,0,0,1.249,3.766,11.719,11.719,0,0,0,2.566,3.03C558.478,289.637,559,290.008,558.973,290.045Z" transform="translate(-553.613 -280.523)" fill="#263238"/>
              </g>
            </g>
            <g id="Group_92" data-name="Group 92" transform="translate(40.925 2.441)">
              <g id="Group_91" data-name="Group 91">
                <path id="Path_60" data-name="Path 60" d="M514.387,296.2a1.271,1.271,0,0,1-.232-.075l-.665-.252a22.169,22.169,0,0,1-2.452-1.114,18.818,18.818,0,0,1-3.481-2.309,13.308,13.308,0,0,1-1.809-1.829,8.34,8.34,0,0,1-1.449-2.466l-.016-.047.031-.047,6.608-9.765c3.886-5.706,7.488-10.815,10.166-14.461,1.338-1.824,2.439-3.287,3.208-4.291l.893-1.15.237-.3c.055-.065.084-.1.088-.095a.5.5,0,0,1-.067.111l-.217.311-.855,1.179-3.141,4.337c-2.639,3.672-6.216,8.794-10.1,14.5l-6.632,9.748.015-.093a8.221,8.221,0,0,0,1.393,2.4,13.23,13.23,0,0,0,1.768,1.817,19.263,19.263,0,0,0,3.423,2.333,25.927,25.927,0,0,0,2.416,1.166l.651.283A1.265,1.265,0,0,1,514.387,296.2Z" transform="translate(-504.284 -258.004)" fill="#263238"/>
              </g>
            </g>
            <g id="Group_94" data-name="Group 94" transform="translate(30.638 26.77)">
              <g id="Group_93" data-name="Group 93">
                <path id="Path_61" data-name="Path 61" d="M490.6,319a2.17,2.17,0,0,1-.375-.387c-.229-.258-.548-.644-.931-1.128a46.427,46.427,0,0,1-5.127-8.169c-.27-.556-.479-1.01-.612-1.329a2.2,2.2,0,0,1-.185-.505,2.17,2.17,0,0,1,.275.462l.683,1.29c.579,1.087,1.409,2.573,2.407,4.165s1.977,2.983,2.7,3.977l.865,1.176A2.2,2.2,0,0,1,490.6,319Z" transform="translate(-483.362 -307.483)" fill="#e8505b"/>
              </g>
            </g>
            <g id="Group_96" data-name="Group 96" transform="translate(37.112 22.065)">
              <g id="Group_95" data-name="Group 95">
                <path id="Path_62" data-name="Path 62" d="M501.316,306.627a6.828,6.828,0,0,1-.93-1.132,28.346,28.346,0,0,1-3.4-6.188,6.9,6.9,0,0,1-.456-1.393,10.521,10.521,0,0,1,.624,1.322c.369.821.9,1.944,1.563,3.147s1.323,2.255,1.817,3.008A10.477,10.477,0,0,1,501.316,306.627Z" transform="translate(-496.528 -297.913)" fill="#e8505b"/>
              </g>
            </g>
            <g id="Group_98" data-name="Group 98" transform="translate(44.34 17)">
              <g id="Group_97" data-name="Group 97">
                <path id="Path_63" data-name="Path 63" d="M514.633,293.767a3.663,3.663,0,0,1-.677-.787,19.461,19.461,0,0,1-2.416-4.373,3.653,3.653,0,0,1-.306-.992c.072-.028.656,1.438,1.6,3.133S514.695,293.721,514.633,293.767Z" transform="translate(-511.229 -287.614)" fill="#e8505b"/>
              </g>
            </g>
            <g id="Group_100" data-name="Group 100" transform="translate(28.65 14.795)">
              <g id="Group_99" data-name="Group 99">
                <path id="Path_64" data-name="Path 64" d="M503.583,283.128a1.382,1.382,0,0,1-.22.218l-.665.587c-.58.506-1.43,1.227-2.489,2.106-2.118,1.759-5.086,4.139-8.439,6.671s-6.456,4.736-8.727,6.291c-1.136.778-2.061,1.4-2.706,1.818l-.746.478a1.4,1.4,0,0,1-.27.152,1.415,1.415,0,0,1,.241-.2l.719-.518,2.659-1.884c2.244-1.593,5.326-3.818,8.677-6.347s6.333-4.885,8.478-6.607l2.54-2.042.7-.55A1.429,1.429,0,0,1,503.583,283.128Z" transform="translate(-479.32 -283.128)" fill="#e8505b"/>
              </g>
            </g>
            <g id="Group_102" data-name="Group 102" transform="translate(31.612 33.435)">
              <g id="Group_101" data-name="Group 101">
                <path id="Path_65" data-name="Path 65" d="M495.281,321.041a11.577,11.577,0,0,1-1.466.672c-.913.394-2.17.946-3.542,1.593s-2.6,1.27-3.48,1.725a11.554,11.554,0,0,1-1.45.706,8.92,8.92,0,0,1,1.364-.865c.864-.5,2.08-1.147,3.457-1.8s2.65-1.177,3.583-1.529A8.913,8.913,0,0,1,495.281,321.041Z" transform="translate(-485.343 -321.038)" fill="#e8505b"/>
              </g>
            </g>
            <g id="Group_104" data-name="Group 104" transform="translate(59.455 0.716)">
              <g id="Group_103" data-name="Group 103">
                <path id="Path_66" data-name="Path 66" d="M558.295,258.014a4.431,4.431,0,0,1-.652-.376c-.412-.255-1.007-.622-1.759-1.044a18.218,18.218,0,0,0-2.735-1.276,8,8,0,0,0-3.592-.53,7.567,7.567,0,0,0-3.342,1.4,17.547,17.547,0,0,0-2.3,1.959c-.612.608-1.088,1.122-1.418,1.475a4.4,4.4,0,0,1-.532.534,4.039,4.039,0,0,1,.457-.6c.308-.374.764-.908,1.363-1.536A16.382,16.382,0,0,1,546.078,256a7.634,7.634,0,0,1,3.447-1.465,8.057,8.057,0,0,1,3.7.562,16.9,16.9,0,0,1,2.745,1.341c.746.444,1.329.837,1.723,1.118A4,4,0,0,1,558.295,258.014Z" transform="translate(-541.968 -254.495)" fill="#e8505b"/>
              </g>
            </g>
            <g id="Group_106" data-name="Group 106" transform="translate(66.334 0.289)">
              <g id="Group_105" data-name="Group 105">
                <path id="Path_67" data-name="Path 67" d="M557.858,274.911a5.318,5.318,0,0,1-.243-.808c-.144-.524-.324-1.289-.522-2.241a55.512,55.512,0,0,1-.994-15.111c.071-.969.15-1.751.224-2.289a5.279,5.279,0,0,1,.135-.833,5.254,5.254,0,0,1-.036.843c-.043.54-.094,1.323-.142,2.29a64.679,64.679,0,0,0,.991,15.066c.175.952.328,1.722.442,2.252A5.33,5.33,0,0,1,557.858,274.911Z" transform="translate(-555.96 -253.628)" fill="#e8505b"/>
              </g>
            </g>
            <g id="Group_108" data-name="Group 108" transform="translate(0 48.645)">
              <g id="Group_107" data-name="Group 107">
                <path id="Path_68" data-name="Path 68" d="M559.434,352.1c0,.071-30.98.128-69.187.128s-69.195-.058-69.195-.128,30.974-.128,69.195-.128S559.434,352.029,559.434,352.1Z" transform="translate(-421.052 -351.971)" fill="#263238"/>
              </g>
            </g>
            <g id="Group_141" data-name="Group 141" transform="translate(43.668 3.815)">
              <g id="Group_110" data-name="Group 110" transform="translate(1 24.157)">
                <g id="Group_109" data-name="Group 109">
                  <path id="Path_69" data-name="Path 69" d="M521.523,318.788a2.089,2.089,0,0,1-.51-.148,14.335,14.335,0,0,1-1.338-.548,15.119,15.119,0,0,1-6.93-6.379,14.338,14.338,0,0,1-.656-1.289,2.1,2.1,0,0,1-.19-.5c.041-.02.368.66,1,1.691a16.525,16.525,0,0,0,6.854,6.31C520.835,318.475,521.539,318.745,521.523,318.788Z" transform="translate(-511.896 -309.927)" fill="#e8505b"/>
                </g>
              </g>
              <g id="Group_112" data-name="Group 112" transform="translate(4.756 18.852)">
                <g id="Group_111" data-name="Group 111">
                  <path id="Path_70" data-name="Path 70" d="M530.254,308.68a2.477,2.477,0,0,1-.536-.206c-.34-.145-.819-.383-1.4-.7a23.439,23.439,0,0,1-7.66-6.82c-.383-.539-.674-.987-.857-1.308a2.437,2.437,0,0,1-.266-.509c.037-.023.472.667,1.269,1.709a26.739,26.739,0,0,0,7.6,6.771C529.537,308.288,530.273,308.641,530.254,308.68Z" transform="translate(-519.534 -299.137)" fill="#e8505b"/>
                </g>
              </g>
              <g id="Group_114" data-name="Group 114" transform="translate(8.558 12.901)">
                <g id="Group_113" data-name="Group 113">
                  <path id="Path_71" data-name="Path 71" d="M539.79,297.956a3.321,3.321,0,0,1-.616-.247c-.391-.17-.944-.446-1.615-.809a26.447,26.447,0,0,1-4.87-3.435,31.854,31.854,0,0,1-4.019-4.4c-.46-.609-.819-1.11-1.055-1.465a3.306,3.306,0,0,1-.348-.564,3.334,3.334,0,0,1,.429.505l1.116,1.412a37.363,37.363,0,0,0,4.048,4.322,30.053,30.053,0,0,0,4.788,3.469c.656.381,1.194.68,1.57.877A3.286,3.286,0,0,1,539.79,297.956Z" transform="translate(-527.267 -287.034)" fill="#e8505b"/>
                </g>
              </g>
              <g id="Group_116" data-name="Group 116" transform="translate(16.259 2.069)">
                <g id="Group_115" data-name="Group 115">
                  <path id="Path_72" data-name="Path 72" d="M543.008,265.006c.055,0-.019,1.065.173,2.762.05.423.108.887.213,1.378.079.5.221,1.012.357,1.559a19.8,19.8,0,0,0,3.188,6.553c.346.444.665.875,1.006,1.244.321.385.651.716.953,1.018,1.216,1.2,2.1,1.8,2.066,1.84a4.179,4.179,0,0,1-.624-.41,7.6,7.6,0,0,1-.695-.535c-.26-.221-.57-.46-.873-.767a13.72,13.72,0,0,1-.986-1.007c-.352-.366-.68-.8-1.036-1.243a18.939,18.939,0,0,1-3.227-6.633c-.131-.555-.267-1.08-.338-1.582a13.943,13.943,0,0,1-.184-1.4c-.055-.428-.051-.819-.064-1.16a7.613,7.613,0,0,1,.008-.877A4.168,4.168,0,0,1,543.008,265.006Z" transform="translate(-542.928 -265.006)" fill="#e8505b"/>
                </g>
              </g>
              <g id="Group_118" data-name="Group 118" transform="translate(26.04)">
                <g id="Group_117" data-name="Group 117">
                  <path id="Path_73" data-name="Path 73" d="M566.849,260.8a4.4,4.4,0,0,1-.362.672c-.126.21-.277.468-.434.778s-.358.651-.536,1.05a24.942,24.942,0,0,0-1.161,2.837,24.572,24.572,0,0,0-1.3,7.366,24.862,24.862,0,0,0,.122,3.063c.03.436.1.826.145,1.17s.1.64.142.88a4.453,4.453,0,0,1,.111.755,4.331,4.331,0,0,1-.209-.735c-.062-.238-.13-.532-.186-.877s-.141-.735-.183-1.173a22.521,22.521,0,0,1-.179-3.088,23.214,23.214,0,0,1,1.31-7.438,22.482,22.482,0,0,1,1.222-2.841c.19-.4.4-.736.573-1.04s.335-.558.474-.76A4.313,4.313,0,0,1,566.849,260.8Z" transform="translate(-562.821 -260.797)" fill="#e8505b"/>
                </g>
              </g>
              <g id="Group_120" data-name="Group 120" transform="translate(31.202 4.158)">
                <g id="Group_119" data-name="Group 119">
                  <path id="Path_74" data-name="Path 74" d="M581.816,269.254a4.831,4.831,0,0,1-.552.586c-.185.18-.409.4-.654.676s-.542.567-.832.926a26.9,26.9,0,0,0-1.959,2.575,26.421,26.421,0,0,0-3.364,7.144,26.922,26.922,0,0,0-.737,3.151c-.091.452-.131.868-.183,1.231s-.084.678-.1.935a4.96,4.96,0,0,1-.1.8,4.837,4.837,0,0,1,0-.805c.005-.26.02-.577.062-.944s.066-.787.147-1.244a24.32,24.32,0,0,1,.689-3.189,24.993,24.993,0,0,1,3.394-7.209,24.2,24.2,0,0,1,2.019-2.563c.3-.354.607-.643.865-.906s.491-.479.688-.649A4.873,4.873,0,0,1,581.816,269.254Z" transform="translate(-573.319 -269.254)" fill="#e8505b"/>
                </g>
              </g>
              <g id="Group_122" data-name="Group 122" transform="translate(37.444 9.28)">
                <g id="Group_121" data-name="Group 121">
                  <path id="Path_75" data-name="Path 75" d="M597.126,279.672a5.1,5.1,0,0,1-.358.738c-.244.467-.611,1.137-1.073,1.958-.924,1.644-2.246,3.89-3.781,6.324s-3,4.595-4.082,6.136c-.543.772-.989,1.39-1.306,1.812a5.029,5.029,0,0,1-.511.641,5.011,5.011,0,0,1,.43-.7l1.238-1.857c1.047-1.567,2.48-3.739,4.014-6.17s2.878-4.659,3.841-6.278l1.143-1.917A4.933,4.933,0,0,1,597.126,279.672Z" transform="translate(-586.013 -279.672)" fill="#e8505b"/>
                </g>
              </g>
              <g id="Group_124" data-name="Group 124" transform="translate(45.233 13.827)">
                <g id="Group_123" data-name="Group 123">
                  <path id="Path_76" data-name="Path 76" d="M615.311,288.918a.771.771,0,0,1-.093.21l-.312.578c-.273.5-.688,1.214-1.217,2.085-1.058,1.744-2.6,4.1-4.468,6.6s-3.694,4.642-5.068,6.149c-.686.754-1.253,1.353-1.656,1.757l-.466.462c-.109.1-.169.155-.176.149a.8.8,0,0,1,.138-.184l.431-.495,1.594-1.809c1.337-1.535,3.137-3.7,5-6.182s3.424-4.824,4.519-6.539l1.286-2.04.353-.553A.784.784,0,0,1,615.311,288.918Z" transform="translate(-601.854 -288.918)" fill="#e8505b"/>
                </g>
              </g>
              <g id="Group_126" data-name="Group 126" transform="translate(54.315 19.936)">
                <g id="Group_125" data-name="Group 125">
                  <path id="Path_77" data-name="Path 77" d="M633.456,301.343a.8.8,0,0,1-.053.225c-.055.172-.121.38-.2.629-.087.273-.2.605-.351.984s-.3.816-.517,1.283a34.956,34.956,0,0,1-1.586,3.235,35.874,35.874,0,0,1-5.2,7.117,35.116,35.116,0,0,1-2.6,2.5c-.38.344-.749.627-1.065.884s-.6.468-.83.634l-.538.382a.771.771,0,0,1-.2.119c0-.007.053-.062.167-.16l.508-.419c.224-.177.5-.4.8-.666s.665-.557,1.036-.909c.761-.681,1.627-1.535,2.545-2.522a38.464,38.464,0,0,0,5.162-7.072c.66-1.176,1.21-2.261,1.626-3.193.222-.46.389-.891.55-1.264s.289-.7.39-.965l.245-.612A.8.8,0,0,1,633.456,301.343Z" transform="translate(-620.324 -301.343)" fill="#e8505b"/>
                </g>
              </g>
              <g id="Group_128" data-name="Group 128" transform="translate(64.241 28.204)">
                <g id="Group_127" data-name="Group 127">
                  <path id="Path_78" data-name="Path 78" d="M651.366,318.158a4.1,4.1,0,0,1-.22.707c-.153.45-.408,1.091-.753,1.869a32.59,32.59,0,0,1-7.741,10.725c-.63.572-1.158,1.016-1.538,1.3a4.057,4.057,0,0,1-.6.431,4.171,4.171,0,0,1,.537-.507c.359-.31.866-.772,1.477-1.359a36.382,36.382,0,0,0,7.7-10.668c.364-.765.644-1.392.825-1.83A4.088,4.088,0,0,1,651.366,318.158Z" transform="translate(-640.513 -318.158)" fill="#e8505b"/>
                </g>
              </g>
              <g id="Group_130" data-name="Group 130" transform="translate(77.23 32.526)">
                <g id="Group_129" data-name="Group 129">
                  <path id="Path_79" data-name="Path 79" d="M673.317,326.948a2.036,2.036,0,0,1-.11.511c-.085.326-.229.791-.427,1.359a28.153,28.153,0,0,1-4.546,8.189c-.377.468-.7.837-.927,1.081a2.046,2.046,0,0,1-.376.364c-.031-.027.446-.6,1.16-1.555a34.582,34.582,0,0,0,4.52-8.141C673.047,327.641,673.277,326.935,673.317,326.948Z" transform="translate(-666.929 -326.948)" fill="#e8505b"/>
                </g>
              </g>
              <g id="Group_132" data-name="Group 132" transform="translate(4.599 16.459)">
                <g id="Group_131" data-name="Group 131">
                  <path id="Path_80" data-name="Path 80" d="M533.878,294.271a.775.775,0,0,1-.117.2l-.378.542c-.331.469-.823,1.137-1.442,1.954-1.237,1.636-2.994,3.86-5.021,6.245s-3.94,4.478-5.356,5.961c-.708.742-1.288,1.335-1.7,1.738l-.474.46c-.111.1-.172.154-.178.148a.8.8,0,0,1,.141-.184l.44-.493,1.636-1.792c1.38-1.514,3.268-3.622,5.294-6s3.8-4.584,5.073-6.19l1.505-1.9.416-.513C533.817,294.324,533.871,294.266,533.878,294.271Z" transform="translate(-519.215 -294.27)" fill="#e8505b"/>
                </g>
              </g>
              <g id="Group_134" data-name="Group 134" transform="translate(18.726 13.044)">
                <g id="Group_133" data-name="Group 133">
                  <path id="Path_81" data-name="Path 81" d="M550.849,287.335c.029.069-.689.41-1.482.969s-1.362,1.111-1.417,1.06a5.172,5.172,0,0,1,2.9-2.029Z" transform="translate(-547.947 -287.325)" fill="#e8505b"/>
                </g>
              </g>
              <g id="Group_136" data-name="Group 136" transform="translate(22.856 14.114)">
                <g id="Group_135" data-name="Group 135">
                  <path id="Path_82" data-name="Path 82" d="M606.86,319.817a.67.67,0,0,1-.15-.032l-.433-.119c-.378-.116-.945-.255-1.654-.5a47.323,47.323,0,0,1-5.891-2.388,63.819,63.819,0,0,1-8.137-4.761c-2.937-2-6.032-4.377-9.241-6.915s-6.281-4.942-9.174-6.987a78.164,78.164,0,0,0-7.942-5.036,53.624,53.624,0,0,0-5.723-2.726c-.69-.294-1.244-.473-1.61-.621l-.418-.163a.7.7,0,0,1-.14-.064.718.718,0,0,1,.148.039l.427.139c.372.133.933.3,1.629.576a49.366,49.366,0,0,1,5.773,2.66,75.408,75.408,0,0,1,7.992,5c2.907,2.039,5.982,4.445,9.2,6.978s6.294,4.918,9.216,6.922a65.749,65.749,0,0,0,8.084,4.793,51.334,51.334,0,0,0,5.843,2.457c.7.261,1.265.415,1.637.546l.426.144A.673.673,0,0,1,606.86,319.817Z" transform="translate(-556.346 -289.503)" fill="#e8505b"/>
                </g>
              </g>
              <g id="Group_138" data-name="Group 138" transform="translate(0 2.492)">
                <g id="Group_137" data-name="Group 137">
                  <path id="Path_83" data-name="Path 83" d="M594.6,303.675s-1.514-.3-4.194-1.078a72.9,72.9,0,0,1-10.993-4.3,115.143,115.143,0,0,1-15.041-8.959,201.242,201.242,0,0,1-16.894-13.2c-3.653-3.134-7.134-6.245-10.4-9.161l.035.022-2.164-.893.047.009a6.1,6.1,0,0,0-3.733,1.445,18.278,18.278,0,0,0-2.773,2.829l-4.672,5.8c-2.94,3.671-5.494,6.949-7.561,9.709s-3.66,5-4.735,6.541l-1.227,1.774-.318.456c-.073.1-.114.151-.114.151s.03-.057.1-.163l.3-.468c.267-.411.664-1.019,1.194-1.8,1.055-1.56,2.627-3.811,4.68-6.586s4.592-6.067,7.521-9.748l4.658-5.812a18.453,18.453,0,0,1,2.8-2.871,6.335,6.335,0,0,1,3.878-1.5h.025l.022.009,2.165.89.02.008.016.014c3.27,2.912,6.751,6.02,10.4,9.152a204.654,204.654,0,0,0,16.861,13.2,116.919,116.919,0,0,0,14.987,8.99,75.45,75.45,0,0,0,10.942,4.367c1.336.394,2.374.7,3.086.874l.806.217C594.508,303.642,594.6,303.675,594.6,303.675Z" transform="translate(-509.862 -265.866)" fill="#e8505b"/>
                </g>
              </g>
              <g id="Group_140" data-name="Group 140" transform="translate(34.071 1.443)">
                <g id="Group_139" data-name="Group 139">
                  <path id="Path_84" data-name="Path 84" d="M616.506,284.991a.365.365,0,0,1-.113.008l-.332,0c-.291-.013-.723,0-1.275-.052a24.963,24.963,0,0,1-4.626-.794,33.791,33.791,0,0,1-6.5-2.5,53.17,53.17,0,0,1-7.261-4.466c-2.449-1.779-4.682-3.6-6.7-5.262s-3.838-3.163-5.4-4.382-2.844-2.172-3.748-2.81L579.509,264l-.268-.195c-.06-.045-.09-.07-.087-.074a.4.4,0,0,1,.1.052l.283.174c.245.158.614.381,1.07.694.923.613,2.229,1.545,3.8,2.749s3.407,2.689,5.435,4.342,4.264,3.464,6.7,5.237a54.61,54.61,0,0,0,7.218,4.462,34.689,34.689,0,0,0,6.439,2.536,26.888,26.888,0,0,0,4.588.869c.548.072.978.07,1.269.1l.331.028A.383.383,0,0,1,616.506,284.991Z" transform="translate(-579.154 -263.731)" fill="#e8505b"/>
                </g>
              </g>
            </g>
          </g>
          <g id="Group_143" data-name="Group 143" transform="translate(64.304 34.957)">
            <path id="Path_85" data-name="Path 85" d="M579.365,236.589h0a1.734,1.734,0,0,0-.552-2.412l-20.387-12.529-3.713-25.518a1.448,1.448,0,0,0-1.463-1.24h0a1.449,1.449,0,0,0-1.407,1.639l3.569,26.813Z" transform="translate(-551.83 -194.889)" fill="#263238"/>
          </g>
          <g id="Group_156" data-name="Group 156" transform="translate(103.288 36.084)">
            <g id="Group_144" data-name="Group 144">
              <path id="Path_86" data-name="Path 86" d="M657.923,197.182c.571.554,8.522,3.638,9.248,10.149.324,2.906-7.239,51.846-7.239,51.846l-.888.256a13.114,13.114,0,0,1-14.132-4.666l-1.49-2a19.216,19.216,0,0,0-4.28-4.182l-8.028-6.115,5.86-5.361-.571-5.953s-2.569-9.13-1.141-13.7,8.3-14.17,8.3-14.17l3.407-3.836Z" transform="translate(-631.113 -197.182)" fill="#e8505b"/>
            </g>
            <g id="Group_146" data-name="Group 146" transform="translate(17.076 56.8)">
              <g id="Group_145" data-name="Group 145">
                <path id="Path_87" data-name="Path 87" d="M676.593,312.876c.01.015-.117.113-.356.279a3.53,3.53,0,0,1-.45.28,6,6,0,0,1-.626.32,8.9,8.9,0,0,1-1.737.583,9.517,9.517,0,0,1-4.46-.072,8.93,8.93,0,0,1-1.718-.639,6.025,6.025,0,0,1-.616-.34,3.519,3.519,0,0,1-.441-.294c-.234-.174-.357-.276-.346-.291.029-.041.545.343,1.48.761a9.9,9.9,0,0,0,1.7.574,10.049,10.049,0,0,0,4.354.07,9.9,9.9,0,0,0,1.715-.519C676.037,313.2,676.566,312.834,676.593,312.876Z" transform="translate(-665.842 -312.7)" fill="#263238"/>
              </g>
            </g>
            <g id="Group_148" data-name="Group 148" transform="translate(20.683 52.807)">
              <g id="Group_147" data-name="Group 147">
                <path id="Path_88" data-name="Path 88" d="M679.864,304.581a3.089,3.089,0,0,1-.821.654,8.952,8.952,0,0,1-4.823,1.39,3.078,3.078,0,0,1-1.043-.117,12.253,12.253,0,0,0,6.687-1.927Z" transform="translate(-673.177 -304.578)" fill="#263238"/>
              </g>
            </g>
            <g id="Group_149" data-name="Group 149" transform="translate(14.252 2.525)">
              <path id="Path_89" data-name="Path 89" d="M675.408,202.531s-8-1.917-10,5.753a130.915,130.915,0,0,1-5.315,15.509l18.31,3.849S684.384,207.322,675.408,202.531Z" transform="translate(-660.097 -202.318)" fill="#e8505b"/>
            </g>
            <g id="Group_151" data-name="Group 151" transform="translate(14.079 3.014)">
              <g id="Group_150" data-name="Group 150">
                <path id="Path_90" data-name="Path 90" d="M678.229,228.147a2.166,2.166,0,0,1-.366-.053l-1.045-.2-3.871-.774-13.053-2.7-.147-.03.055-.14c.374-.964.743-1.984,1.1-3.029.977-2.864,1.807-5.629,2.438-8.172.16-.633.287-1.262.46-1.866s.363-1.177.568-1.726.418-1.072.631-1.571a7.813,7.813,0,0,1,.7-1.406,7.388,7.388,0,0,1,1.915-1.895,8.3,8.3,0,0,1,1.795-.953,4.87,4.87,0,0,1,1.245-.31,2.133,2.133,0,0,1,.447,0c0,.014-.154.013-.441.055a5.338,5.338,0,0,0-1.216.352,8.518,8.518,0,0,0-1.748.978,7.333,7.333,0,0,0-1.847,1.877,7.644,7.644,0,0,0-.672,1.383c-.207.5-.416,1.021-.614,1.568s-.386,1.118-.55,1.714-.289,1.221-.447,1.861c-.621,2.556-1.445,5.328-2.425,8.2-.36,1.047-.731,2.071-1.108,3.038l-.092-.17,13.036,2.784,3.855.85,1.036.24A2.248,2.248,0,0,1,678.229,228.147Z" transform="translate(-659.747 -203.311)" fill="#263238"/>
              </g>
            </g>
            <g id="Group_153" data-name="Group 153" transform="translate(7.58 29.058)">
              <g id="Group_152" data-name="Group 152">
                <path id="Path_91" data-name="Path 91" d="M650.9,259.832a2.082,2.082,0,0,1-.841-.177,6.117,6.117,0,0,1-3.177-2.586,2.066,2.066,0,0,1-.345-.788,8.305,8.305,0,0,0,4.363,3.552Z" transform="translate(-646.528 -256.279)" fill="#263238"/>
              </g>
            </g>
            <g id="Group_155" data-name="Group 155" transform="translate(32.968 7.096)">
              <g id="Group_154" data-name="Group 154">
                <path id="Path_92" data-name="Path 92" d="M698.3,229.17a3.68,3.68,0,0,1,.122-.689c.1-.438.225-1.075.362-1.866a34.827,34.827,0,0,0-.093-12.455c-.149-.788-.284-1.423-.39-1.86a.351.351,0,1,1,.1-.026c.136.43.3,1.062.471,1.85a30.967,30.967,0,0,1,.093,12.523c-.16.79-.314,1.424-.443,1.857A3.612,3.612,0,0,1,698.3,229.17Z" transform="translate(-698.162 -211.614)" fill="#263238"/>
              </g>
            </g>
          </g>
          <g id="Group_306" data-name="Group 306" transform="translate(104.619)">
            <g id="Group_157" data-name="Group 157" transform="translate(0 33.316)">
              <path id="Path_93" data-name="Path 93" d="M640.859,191.553c.7,2.021-.523,4.178-1.843,5.863s-2.865,3.453-2.892,5.594a12.557,12.557,0,0,0,.726,3.37,4.6,4.6,0,0,1-.1,3.374c-.635,1.165-2.055,1.753-2.644,2.942a3.468,3.468,0,0,0,.027,2.8,10.272,10.272,0,0,0,1.56,2.42c.3.381.738.806,1.194.642a1.18,1.18,0,0,0,.566-.652q3.725-7.5,7.029-15.206a11.122,11.122,0,0,0,1.043-3.432c.2-2.5-1.262-4.921-1.032-7.42" transform="translate(-633.82 -191.553)" fill="#263238"/>
            </g>
            <g id="Group_302" data-name="Group 302" transform="translate(2.259 5.363)">
              <g id="Group_292" data-name="Group 292">
                <g id="Group_158" data-name="Group 158" transform="translate(0 4.402)">
                  <path id="Path_94" data-name="Path 94" d="M642.409,143.655a5.891,5.891,0,0,0-2.52,5.751,5.981,5.981,0,0,1,.413,2.5,6.144,6.144,0,0,1-1.05,1.926,5.8,5.8,0,0,0,7.253,8.382" transform="translate(-638.414 -143.655)" fill="#263238"/>
                </g>
                <g id="Group_272" data-name="Group 272" transform="translate(1.549)">
                  <g id="Group_160" data-name="Group 160">
                    <g id="Group_159" data-name="Group 159">
                      <path id="Path_95" data-name="Path 95" d="M642.777,149.956c-5.073-11.157,6.994-16.762,13.578-14.9,6.188,1.747,8.827,4.827,9.845,8.965a20.435,20.435,0,0,1-.652,12.567c-.8,1.945-2.241,3.92-4.329,4.163" transform="translate(-641.564 -134.703)" fill="#263238"/>
                    </g>
                  </g>
                  <g id="Group_271" data-name="Group 271" transform="translate(1.165 3.711)">
                    <g id="Group_270" data-name="Group 270">
                      <g id="Group_269" data-name="Group 269">
                        <g id="Group_268" data-name="Group 268">
                          <g id="Group_251" data-name="Group 251">
                            <g id="Group_250" data-name="Group 250">
                              <g id="Group_249" data-name="Group 249">
                                <g id="Group_168" data-name="Group 168">
                                  <g id="Group_167" data-name="Group 167">
                                    <g id="Group_166" data-name="Group 166">
                                      <g id="Group_165" data-name="Group 165">
                                        <g id="Group_164" data-name="Group 164">
                                          <g id="Group_163" data-name="Group 163">
                                            <g id="Group_162" data-name="Group 162">
                                              <g id="Group_161" data-name="Group 161">
                                                <path id="Path_96" data-name="Path 96" d="M649.875,176.926c-.088-5.331-.1-8.5-.1-8.472,0,0-4.582-.761-5.532-6.739a63.855,63.855,0,0,1-.071-11.832c.226-3.586,2.6-7.987,6.176-7.609l11.159,2.82a2.1,2.1,0,0,1,1.881,2.133h0l-.727,23.081" transform="translate(-643.934 -142.251)" fill="#ffbe9d"/>
                                              </g>
                                            </g>
                                          </g>
                                        </g>
                                      </g>
                                    </g>
                                  </g>
                                </g>
                                <g id="Group_181" data-name="Group 181" transform="translate(1.576 10.871)">
                                  <g id="Group_180" data-name="Group 180">
                                    <g id="Group_179" data-name="Group 179">
                                      <g id="Group_178" data-name="Group 178">
                                        <g id="Group_177" data-name="Group 177">
                                          <g id="Group_176" data-name="Group 176">
                                            <g id="Group_175" data-name="Group 175">
                                              <g id="Group_174" data-name="Group 174">
                                                <g id="Group_173" data-name="Group 173">
                                                  <g id="Group_172" data-name="Group 172">
                                                    <g id="Group_171" data-name="Group 171">
                                                      <g id="Group_170" data-name="Group 170">
                                                        <g id="Group_169" data-name="Group 169">
                                                          <path id="Path_97" data-name="Path 97" d="M647.14,165.04a.762.762,0,0,0,.726.777.729.729,0,0,0,.794-.678.763.763,0,0,0-.725-.778A.73.73,0,0,0,647.14,165.04Z" transform="translate(-647.139 -164.359)" fill="#263238"/>
                                                        </g>
                                                      </g>
                                                    </g>
                                                  </g>
                                                </g>
                                              </g>
                                            </g>
                                          </g>
                                        </g>
                                      </g>
                                    </g>
                                  </g>
                                </g>
                                <g id="Group_194" data-name="Group 194" transform="translate(9.392 10.871)">
                                  <g id="Group_193" data-name="Group 193">
                                    <g id="Group_192" data-name="Group 192">
                                      <g id="Group_191" data-name="Group 191">
                                        <g id="Group_190" data-name="Group 190">
                                          <g id="Group_189" data-name="Group 189">
                                            <g id="Group_188" data-name="Group 188">
                                              <g id="Group_187" data-name="Group 187">
                                                <g id="Group_186" data-name="Group 186">
                                                  <g id="Group_185" data-name="Group 185">
                                                    <g id="Group_184" data-name="Group 184">
                                                      <g id="Group_183" data-name="Group 183">
                                                        <g id="Group_182" data-name="Group 182">
                                                          <path id="Path_98" data-name="Path 98" d="M663.035,165.04a.762.762,0,0,0,.726.777.729.729,0,0,0,.794-.678.762.762,0,0,0-.725-.778A.73.73,0,0,0,663.035,165.04Z" transform="translate(-663.034 -164.359)" fill="#263238"/>
                                                        </g>
                                                      </g>
                                                    </g>
                                                  </g>
                                                </g>
                                              </g>
                                            </g>
                                          </g>
                                        </g>
                                      </g>
                                    </g>
                                  </g>
                                </g>
                                <g id="Group_204" data-name="Group 204" transform="translate(1.395 9.133)">
                                  <g id="Group_203" data-name="Group 203">
                                    <g id="Group_202" data-name="Group 202">
                                      <g id="Group_201" data-name="Group 201">
                                        <g id="Group_200" data-name="Group 200">
                                          <g id="Group_199" data-name="Group 199">
                                            <g id="Group_198" data-name="Group 198">
                                              <g id="Group_197" data-name="Group 197">
                                                <g id="Group_196" data-name="Group 196">
                                                  <g id="Group_195" data-name="Group 195">
                                                    <path id="Path_99" data-name="Path 99" d="M646.783,161.581c.091.1.686-.307,1.511-.278s1.415.462,1.508.364c.045-.043-.046-.227-.3-.428a2.107,2.107,0,0,0-1.2-.415,2.022,2.022,0,0,0-1.207.346C646.829,161.357,646.737,161.535,646.783,161.581Z" transform="translate(-646.771 -160.824)" fill="#263238"/>
                                                  </g>
                                                </g>
                                              </g>
                                            </g>
                                          </g>
                                        </g>
                                      </g>
                                    </g>
                                  </g>
                                </g>
                                <g id="Group_214" data-name="Group 214" transform="translate(9.224 9.274)">
                                  <g id="Group_213" data-name="Group 213">
                                    <g id="Group_212" data-name="Group 212">
                                      <g id="Group_211" data-name="Group 211">
                                        <g id="Group_210" data-name="Group 210">
                                          <g id="Group_209" data-name="Group 209">
                                            <g id="Group_208" data-name="Group 208">
                                              <g id="Group_207" data-name="Group 207">
                                                <g id="Group_206" data-name="Group 206">
                                                  <g id="Group_205" data-name="Group 205">
                                                    <path id="Path_100" data-name="Path 100" d="M662.705,161.925c.1.1.675-.333,1.5-.334s1.431.408,1.521.307c.043-.045-.053-.225-.319-.415a2.1,2.1,0,0,0-1.218-.37A2.022,2.022,0,0,0,663,161.5C662.744,161.7,662.659,161.88,662.705,161.925Z" transform="translate(-662.693 -161.112)" fill="#263238"/>
                                                  </g>
                                                </g>
                                              </g>
                                            </g>
                                          </g>
                                        </g>
                                      </g>
                                    </g>
                                  </g>
                                </g>
                                <g id="Group_223" data-name="Group 223" transform="translate(4.307 9.566)">
                                  <g id="Group_222" data-name="Group 222">
                                    <g id="Group_221" data-name="Group 221">
                                      <g id="Group_220" data-name="Group 220">
                                        <g id="Group_219" data-name="Group 219">
                                          <g id="Group_218" data-name="Group 218">
                                            <g id="Group_217" data-name="Group 217">
                                              <g id="Group_216" data-name="Group 216">
                                                <g id="Group_215" data-name="Group 215">
                                                  <path id="Path_101" data-name="Path 101" d="M654.8,168.579a5.436,5.436,0,0,0-1.34-.242c-.211-.022-.41-.064-.446-.207a1.077,1.077,0,0,1,.141-.624l.623-1.6a27.594,27.594,0,0,0,1.4-4.2,27.613,27.613,0,0,0-1.733,4.073q-.313.845-.6,1.614a1.22,1.22,0,0,0-.11.827.53.53,0,0,0,.347.308,1.453,1.453,0,0,0,.358.05A5.4,5.4,0,0,0,654.8,168.579Z" transform="translate(-652.694 -161.705)" fill="#263238"/>
                                                </g>
                                              </g>
                                            </g>
                                          </g>
                                        </g>
                                      </g>
                                    </g>
                                  </g>
                                </g>
                                <g id="Group_231" data-name="Group 231" transform="translate(5.839 24.068)">
                                  <g id="Group_230" data-name="Group 230">
                                    <g id="Group_229" data-name="Group 229">
                                      <g id="Group_228" data-name="Group 228">
                                        <g id="Group_227" data-name="Group 227">
                                          <g id="Group_226" data-name="Group 226">
                                            <g id="Group_225" data-name="Group 225">
                                              <g id="Group_224" data-name="Group 224">
                                                <path id="Path_102" data-name="Path 102" d="M655.81,193.333a15.207,15.207,0,0,0,8.006-2.135s-2.023,4.159-8.006,3.6Z" transform="translate(-655.81 -191.198)" fill="#eb996e"/>
                                              </g>
                                            </g>
                                          </g>
                                        </g>
                                      </g>
                                    </g>
                                  </g>
                                </g>
                                <g id="Group_239" data-name="Group 239" transform="translate(6.676 17.868)">
                                  <g id="Group_238" data-name="Group 238">
                                    <g id="Group_237" data-name="Group 237">
                                      <g id="Group_236" data-name="Group 236">
                                        <g id="Group_235" data-name="Group 235">
                                          <g id="Group_234" data-name="Group 234">
                                            <g id="Group_233" data-name="Group 233">
                                              <g id="Group_232" data-name="Group 232">
                                                <path id="Path_103" data-name="Path 103" d="M657.594,179.149a1.488,1.488,0,0,1,1.333-.552,1.358,1.358,0,0,1,.937.5.86.86,0,0,1,.065.983,1,1,0,0,1-1.082.273,3.117,3.117,0,0,1-1.054-.629.91.91,0,0,1-.235-.244.275.275,0,0,1,0-.307" transform="translate(-657.511 -178.589)" fill="#eb996e"/>
                                              </g>
                                            </g>
                                          </g>
                                        </g>
                                      </g>
                                    </g>
                                  </g>
                                </g>
                                <g id="Group_248" data-name="Group 248" transform="translate(6.208 17.011)">
                                  <g id="Group_247" data-name="Group 247">
                                    <g id="Group_246" data-name="Group 246">
                                      <g id="Group_245" data-name="Group 245">
                                        <g id="Group_244" data-name="Group 244">
                                          <g id="Group_243" data-name="Group 243">
                                            <g id="Group_242" data-name="Group 242">
                                              <g id="Group_241" data-name="Group 241">
                                                <g id="Group_240" data-name="Group 240">
                                                  <path id="Path_104" data-name="Path 104" d="M659.188,176.846c-.134-.008-.136.888-.9,1.523s-1.72.537-1.727.662c-.013.057.212.174.616.185a2.228,2.228,0,0,0,1.441-.5,1.941,1.941,0,0,0,.7-1.277C659.35,177.063,659.25,176.841,659.188,176.846Z" transform="translate(-656.559 -176.846)" fill="#263238"/>
                                                </g>
                                              </g>
                                            </g>
                                          </g>
                                        </g>
                                      </g>
                                    </g>
                                  </g>
                                </g>
                              </g>
                            </g>
                          </g>
                          <g id="Group_259" data-name="Group 259" transform="translate(9.028 8.259)">
                            <g id="Group_258" data-name="Group 258">
                              <g id="Group_257" data-name="Group 257">
                                <g id="Group_256" data-name="Group 256">
                                  <g id="Group_255" data-name="Group 255">
                                    <g id="Group_254" data-name="Group 254">
                                      <g id="Group_253" data-name="Group 253">
                                        <g id="Group_252" data-name="Group 252">
                                          <path id="Path_105" data-name="Path 105" d="M662.3,159.665c.081.224.9.118,1.873.235.97.1,1.751.381,1.879.179.057-.1-.079-.307-.394-.524a3.281,3.281,0,0,0-2.859-.316C662.443,159.382,662.264,159.559,662.3,159.665Z" transform="translate(-662.295 -159.046)" fill="#263238"/>
                                        </g>
                                      </g>
                                    </g>
                                  </g>
                                </g>
                              </g>
                            </g>
                          </g>
                          <g id="Group_267" data-name="Group 267" transform="translate(1.576 6.925)">
                            <g id="Group_266" data-name="Group 266">
                              <g id="Group_265" data-name="Group 265">
                                <g id="Group_264" data-name="Group 264">
                                  <g id="Group_263" data-name="Group 263">
                                    <g id="Group_262" data-name="Group 262">
                                      <g id="Group_261" data-name="Group 261">
                                        <g id="Group_260" data-name="Group 260">
                                          <path id="Path_106" data-name="Path 106" d="M647.16,157.19c.145.187.713-.007,1.4-.016.683-.033,1.262.126,1.4-.07.058-.095-.033-.283-.286-.46a2.024,2.024,0,0,0-2.25.07C647.175,156.9,647.1,157.1,647.16,157.19Z" transform="translate(-647.139 -156.335)" fill="#263238"/>
                                        </g>
                                      </g>
                                    </g>
                                  </g>
                                </g>
                              </g>
                            </g>
                          </g>
                        </g>
                      </g>
                    </g>
                  </g>
                </g>
                <g id="Group_288" data-name="Group 288" transform="translate(20.806 16.226)">
                  <g id="Group_279" data-name="Group 279">
                    <g id="Group_278" data-name="Group 278">
                      <g id="Group_277" data-name="Group 277">
                        <g id="Group_276" data-name="Group 276">
                          <g id="Group_275" data-name="Group 275">
                            <g id="Group_274" data-name="Group 274">
                              <g id="Group_273" data-name="Group 273">
                                <path id="Path_107" data-name="Path 107" d="M681.063,168c.088-.042,3.2-1.419,3.236,2.161s-3.564,2.877-3.572,2.775S681.063,168,681.063,168Z" transform="translate(-680.728 -167.702)" fill="#ffbe9d"/>
                              </g>
                            </g>
                          </g>
                        </g>
                      </g>
                    </g>
                  </g>
                  <g id="Group_287" data-name="Group 287" transform="translate(1.077 1.024)">
                    <g id="Group_286" data-name="Group 286">
                      <g id="Group_285" data-name="Group 285">
                        <g id="Group_284" data-name="Group 284">
                          <g id="Group_283" data-name="Group 283">
                            <g id="Group_282" data-name="Group 282">
                              <g id="Group_281" data-name="Group 281">
                                <g id="Group_280" data-name="Group 280">
                                  <path id="Path_108" data-name="Path 108" d="M682.921,172.625c.015-.012.063.043.169.09a.622.622,0,0,0,.466,0,1.543,1.543,0,0,0,.7-1.392,2.053,2.053,0,0,0-.184-.891.719.719,0,0,0-.474-.473.317.317,0,0,0-.366.175c-.047.1-.024.172-.042.178s-.078-.059-.05-.207a.394.394,0,0,1,.139-.226.471.471,0,0,1,.344-.095.876.876,0,0,1,.657.548,2.113,2.113,0,0,1,.226,1,1.618,1.618,0,0,1-.893,1.555.668.668,0,0,1-.571-.089C682.928,172.711,682.908,172.631,682.921,172.625Z" transform="translate(-682.917 -169.786)" fill="#eb996e"/>
                                </g>
                              </g>
                            </g>
                          </g>
                        </g>
                      </g>
                    </g>
                  </g>
                </g>
                <g id="Group_289" data-name="Group 289" transform="translate(5.63 1.932)">
                  <path id="Path_109" data-name="Path 109" d="M652.169,138.632c-1.991,1.029-2.811,5.1-1.987,7.188s3.044,3.1,5.234,3.582a13.219,13.219,0,0,0,6.5-.064,3.742,3.742,0,0,0,2.429,3.326c1.866.507,3.745-1.2,4.161-3.089s-.207-3.832-.822-5.665" transform="translate(-649.864 -138.632)" fill="#263238"/>
                </g>
                <g id="Group_291" data-name="Group 291" transform="translate(17.32 12.331)">
                  <g id="Group_290" data-name="Group 290">
                    <path id="Path_110" data-name="Path 110" d="M680.045,162.369c.009.011-.089.1-.276.261a9.619,9.619,0,0,1-.826.623,5.04,5.04,0,0,1-1.392.673,3.012,3.012,0,0,1-1.9-.028,2.945,2.945,0,0,1-1.437-1.243,3.971,3.971,0,0,1-.515-1.461,5.3,5.3,0,0,1-.057-1.036,1.191,1.191,0,0,1,.047-.378c.039,0,0,.544.154,1.389a4.088,4.088,0,0,0,.533,1.386,2.824,2.824,0,0,0,1.349,1.15,2.893,2.893,0,0,0,1.775.038,5.325,5.325,0,0,0,1.364-.613C679.6,162.672,680.024,162.339,680.045,162.369Z" transform="translate(-673.639 -159.78)" fill="#263238"/>
                  </g>
                </g>
              </g>
              <g id="Group_293" data-name="Group 293" transform="translate(8.858 10.637)">
                <path id="Path_111" data-name="Path 111" d="M680.171,178.218a10.3,10.3,0,0,0-1.467-2.483c-.1-.132-.193-.265-.289-.4,1.591-1.169,2.242-3.074,1.945-5.495-.176-1.439-.742-2.412-3.036-5.243a15.69,15.69,0,0,1-3.283-8.266l-1.584,4.573.639,5.254-1.523,3.13-.938.39-1.468-2.4a8.548,8.548,0,0,1-3.985,4.92c-2,1.373-4.034,2.231-5.685,5.145-.457.806-3.545,11.774-3,12.266,0,0,5.743-6.238,7.638-7.984,2.247-2.07,4.208-2.894,6.951-2.662,1.939.344,3.16.325,4.534,1.737a4.644,4.644,0,0,0,2.192,1.653,2.272,2.272,0,0,0,2.346-1.317A3.68,3.68,0,0,0,680.171,178.218Z" transform="translate(-656.43 -156.335)" fill="#263238"/>
              </g>
              <g id="Group_295" data-name="Group 295" transform="translate(7.536 3.594)">
                <g id="Group_294" data-name="Group 294">
                  <path id="Path_112" data-name="Path 112" d="M677.42,168.521c-.008,0-.064-.134-.227-.361a3.148,3.148,0,0,0-.906-.806,8.613,8.613,0,0,0-1.774-.768,12.053,12.053,0,0,1-1.132-.445,3.948,3.948,0,0,1-1.135-.762,2.935,2.935,0,0,1-.747-1.3,4.56,4.56,0,0,1-.114-1.627,16.83,16.83,0,0,1,.968-3.448,7.072,7.072,0,0,0,.362-1.878,3.878,3.878,0,0,0-.43-1.917,2.53,2.53,0,0,0-.639-.776,2.365,2.365,0,0,0-.921-.438c-.338-.087-.691-.136-1.046-.212a2.584,2.584,0,0,1-1.02-.415,2.216,2.216,0,0,1-.671-.875c-.157-.328-.273-.667-.418-.986a3.082,3.082,0,0,0-1.364-1.483,5.326,5.326,0,0,0-1.892-.6,13.012,13.012,0,0,0-1.924-.068c-.629.012-1.246.029-1.846-.007a7.221,7.221,0,0,1-4.439-1.816,6.986,6.986,0,0,1-1.575-2.034,7.281,7.281,0,0,1-.648-1.834,6.563,6.563,0,0,1-.141-1.221c-.005-.281.008-.428.008-.428s0,.037.006.109,0,.178.011.319a7.093,7.093,0,0,0,.164,1.212,7.381,7.381,0,0,0,.663,1.811,6.947,6.947,0,0,0,1.571,2,7.149,7.149,0,0,0,4.386,1.773c.593.034,1.207.015,1.837,0a13.155,13.155,0,0,1,1.942.065,5.431,5.431,0,0,1,1.937.609,3.482,3.482,0,0,1,.832.643,3.151,3.151,0,0,1,.585.9c.148.326.264.664.417.983a2.1,2.1,0,0,0,.633.829,2.467,2.467,0,0,0,.972.394c.348.076.7.124,1.051.214a2.5,2.5,0,0,1,.967.462,2.646,2.646,0,0,1,.67.815,4,4,0,0,1,.441,1.979,7.16,7.16,0,0,1-.372,1.91,16.927,16.927,0,0,0-.975,3.423,4.474,4.474,0,0,0,.1,1.592,2.846,2.846,0,0,0,.717,1.267,3.888,3.888,0,0,0,1.107.753c.385.184.766.322,1.121.45a8.477,8.477,0,0,1,1.775.793,3.076,3.076,0,0,1,.9.832A1.812,1.812,0,0,1,677.42,168.521Z" transform="translate(-653.739 -142.013)" fill="#455a64"/>
                </g>
              </g>
              <g id="Group_297" data-name="Group 297" transform="translate(9.933 1.623)">
                <g id="Group_296" data-name="Group 296">
                  <path id="Path_113" data-name="Path 113" d="M678.524,163.923a.565.565,0,0,1,.079-.058c.052-.038.136-.084.234-.162a3.452,3.452,0,0,0,.747-.787,4.259,4.259,0,0,0,.659-1.579,5.131,5.131,0,0,0-.053-2.261,8.32,8.32,0,0,0-1.135-2.512,27.577,27.577,0,0,0-1.927-2.54,17.468,17.468,0,0,1-2.024-2.9,37.3,37.3,0,0,1-1.307-3.56,4.919,4.919,0,0,0-1.013-1.594,5.484,5.484,0,0,0-1.5-1.062,13.248,13.248,0,0,0-3.365-.984,23.751,23.751,0,0,1-3.109-.763,13.184,13.184,0,0,1-2.551-1.13,8.964,8.964,0,0,1-2.959-2.714,6.938,6.938,0,0,1-.539-.956c-.054-.114-.087-.2-.112-.263a.566.566,0,0,1-.033-.091.537.537,0,0,1,.045.087c.029.057.066.146.123.257a7.512,7.512,0,0,0,.557.941,9.054,9.054,0,0,0,2.962,2.665,13.223,13.223,0,0,0,2.539,1.108,24.008,24.008,0,0,0,3.1.748,13.3,13.3,0,0,1,3.4.987,5.609,5.609,0,0,1,1.536,1.085,5.044,5.044,0,0,1,1.04,1.633c.5,1.212.721,2.476,1.3,3.553a17.511,17.511,0,0,0,2,2.886,27.431,27.431,0,0,1,1.925,2.557,8.374,8.374,0,0,1,1.133,2.548,5.178,5.178,0,0,1,.035,2.3,4.263,4.263,0,0,1-.688,1.593,3.321,3.321,0,0,1-.772.78A3.1,3.1,0,0,1,678.524,163.923Z" transform="translate(-658.615 -138.003)" fill="#455a64"/>
                </g>
              </g>
              <g id="Group_299" data-name="Group 299" transform="translate(12.493 21.037)">
                <g id="Group_298" data-name="Group 298">
                  <path id="Path_114" data-name="Path 114" d="M663.853,190.808a1.051,1.051,0,0,1-.021-.188,4.356,4.356,0,0,1-.005-.544,6,6,0,0,1,.431-1.948,7.613,7.613,0,0,1,1.614-2.477,11.518,11.518,0,0,1,2.92-2.145c1.137-.612,2.3-1.011,3.275-1.539a7.113,7.113,0,0,0,1.3-.869,4.384,4.384,0,0,0,.879-1.032,3.327,3.327,0,0,0,.537-1.866,4.082,4.082,0,0,0-.12-.715,1.071,1.071,0,0,1,.067.177,2.383,2.383,0,0,1,.1.535,3.308,3.308,0,0,1-.51,1.916,4.417,4.417,0,0,1-.886,1.065,7.143,7.143,0,0,1-1.313.893c-.983.539-2.145.941-3.271,1.547a11.613,11.613,0,0,0-2.9,2.114,7.66,7.66,0,0,0-1.615,2.43,6.241,6.241,0,0,0-.465,1.918c-.017.233-.022.416-.018.539A1.027,1.027,0,0,1,663.853,190.808Z" transform="translate(-663.822 -177.486)" fill="#455a64"/>
                </g>
              </g>
              <g id="Group_301" data-name="Group 301" transform="translate(11.123 1.159)">
                <g id="Group_300" data-name="Group 300">
                  <path id="Path_115" data-name="Path 115" d="M674,142.045c-.014,0-.056-.2-.211-.528a3.723,3.723,0,0,0-.945-1.2,5.425,5.425,0,0,0-2.005-1.063,14.77,14.77,0,0,0-2.773-.458,22.938,22.938,0,0,1-5.044-.972c-.628-.2-1.127-.387-1.467-.526-.171-.068-.3-.126-.39-.166a.671.671,0,0,1-.132-.066.649.649,0,0,1,.142.043l.4.144c.346.124.847.3,1.476.487a24.634,24.634,0,0,0,5.031.932,14.344,14.344,0,0,1,2.794.473,5.411,5.411,0,0,1,2.03,1.107,3.6,3.6,0,0,1,.93,1.251,2.57,2.57,0,0,1,.138.4A.686.686,0,0,1,674,142.045Z" transform="translate(-661.035 -137.061)" fill="#455a64"/>
                </g>
              </g>
            </g>
            <g id="Group_303" data-name="Group 303" transform="translate(19.473)">
              <path id="Path_116" data-name="Path 116" d="M673.84,129.938a3.573,3.573,0,0,1,.623-4.141,6.794,6.794,0,0,1,3.992-1.882,6.121,6.121,0,0,1,3.115.172,3.045,3.045,0,0,1,2,2.247,3.72,3.72,0,0,1-1.352,3.081,1.321,1.321,0,0,0-.527.818c-.013.356.276.638.508.909a2.779,2.779,0,0,1,.726,1.9,1.839,1.839,0,0,1-1.106,1.631,3.1,3.1,0,0,1-2.177-.291l-4.359-1.725" transform="translate(-673.424 -123.796)" fill="#263238"/>
            </g>
            <g id="Group_305" data-name="Group 305" transform="translate(20.734 6.17)">
              <g id="Group_304" data-name="Group 304">
                <path id="Path_117" data-name="Path 117" d="M682.311,140.293c-.053.059-1.3-1.072-3.047-2.157s-3.307-1.714-3.277-1.788a3.917,3.917,0,0,1,1.048.346,16.675,16.675,0,0,1,4.5,2.81A3.92,3.92,0,0,1,682.311,140.293Z" transform="translate(-675.987 -136.343)" fill="#e8505b"/>
              </g>
            </g>
          </g>
          <g id="Group_317" data-name="Group 317" transform="translate(73.769 60.782)">
            <g id="Group_307" data-name="Group 307" transform="translate(0 0)">
              <path id="Path_118" data-name="Path 118" d="M617.483,247.412l-4.816,11.661L591.63,255.03s-9.012-7-9.3-7.229l-2.594.358-4.245-.113-3.771,2.035-.642.11,17.55,10.872,20.386,11.605a9.878,9.878,0,0,0,9.2.941h0a9.879,9.879,0,0,0,5.554-5.739l6.567-17.831Z" transform="translate(-571.079 -247.412)" fill="#ffbe9d"/>
            </g>
            <g id="Group_312" data-name="Group 312" transform="translate(0.87 1.555)">
              <g id="Group_309" data-name="Group 309">
                <g id="Group_308" data-name="Group 308">
                  <path id="Path_119" data-name="Path 119" d="M572.848,251.567a5.4,5.4,0,0,1,1.143-.291c.711-.147,1.7-.333,2.789-.524l1.02-.173.03,0,.028.008c.82.259,1.527.493,2.027.669a3.316,3.316,0,0,1,.785.323,3.3,3.3,0,0,1-.831-.173c-.513-.134-1.23-.337-2.053-.582l.057,0-1.018.181c-1.092.19-2.083.348-2.8.45A5.435,5.435,0,0,1,572.848,251.567Z" transform="translate(-572.848 -250.574)" fill="#eb996e"/>
                </g>
              </g>
              <g id="Group_311" data-name="Group 311" transform="translate(1.088 2.177)">
                <g id="Group_310" data-name="Group 310">
                  <path id="Path_120" data-name="Path 120" d="M575.06,255.188a23.542,23.542,0,0,1,3.457-.178l.824-.008h.029l.025.012a16,16,0,0,1,2.346,1.206,16.105,16.105,0,0,1-2.45-.979l.053.011-.824.016A23.452,23.452,0,0,1,575.06,255.188Z" transform="translate(-575.06 -255.001)" fill="#eb996e"/>
                </g>
              </g>
            </g>
            <g id="Group_314" data-name="Group 314" transform="translate(11.251)">
              <g id="Group_313" data-name="Group 313">
                <path id="Path_121" data-name="Path 121" d="M629.114,247.412a1.089,1.089,0,0,1-.072.223l-.244.637-.954,2.395-3.44,8.45-.035.086-.092-.018-10.109-1.928L603.24,255.14l-.027-.005-.021-.016-6.709-5.273-1.873-1.5-.488-.4a1,1,0,0,1-.16-.147,1.018,1.018,0,0,1,.182.119l.509.375,1.911,1.446,6.766,5.2-.048-.022,10.934,2.085,10.1,1.955-.127.068,3.525-8.414,1.013-2.37.276-.623A1.153,1.153,0,0,1,629.114,247.412Z" transform="translate(-593.962 -247.412)" fill="#eb996e"/>
              </g>
            </g>
            <g id="Group_316" data-name="Group 316" transform="translate(41.482 11.587)">
              <g id="Group_315" data-name="Group 315">
                <path id="Path_122" data-name="Path 122" d="M658.5,279.4a10.207,10.207,0,0,1-.264-1.3,20.284,20.284,0,0,0-2.157-5.957,10.348,10.348,0,0,1-.629-1.167,5.126,5.126,0,0,1,.786,1.076,15.854,15.854,0,0,1,2.178,6.018A5.16,5.16,0,0,1,658.5,279.4Z" transform="translate(-655.443 -270.978)" fill="#eb996e"/>
              </g>
            </g>
          </g>
        </g>
      </g>
      <g id="Group_795" data-name="Group 795" transform="translate(42.661)">
        <g id="Group_761" data-name="Group 761" transform="translate(19.541 41.482)">
          <path id="Path_231" data-name="Path 231" d="M302.893,98.1s-.027-.07-.069-.209l-.18-.62-.671-2.39-2.427-8.8L291.622,57l.23,0-.033.139c-2.763,11.486-5.447,21.837-7.487,29.3-1.016,3.734-1.882,6.744-2.488,8.821l-.718,2.387-.192.619c-.045.139-.074.208-.074.208s.013-.074.05-.215l.169-.626.675-2.4c.578-2.085,1.419-5.1,2.414-8.84,2-7.475,4.656-17.831,7.419-29.314l.033-.138.109-.455.121.451,7.856,29.1c.992,3.718,1.8,6.729,2.354,8.822l.629,2.4.158.626C302.881,98.025,302.893,98.1,302.893,98.1Z" transform="translate(-280.86 -56.483)" fill="#263238"/>
        </g>
        <g id="Group_789" data-name="Group 789" transform="translate(0 42.977)">
          <g id="Group_788" data-name="Group 788">
            <g id="Group_785" data-name="Group 785">
              <path id="Path_232" data-name="Path 232" d="M281.457,147.009l2.68,13.9,16.912-.235,2.346-13.4Z" transform="translate(-261.644 -115.642)" fill="#455a64"/>
              <g id="Group_784" data-name="Group 784">
                <g id="Group_765" data-name="Group 765" transform="translate(31.545 17.124)">
                  <g id="Group_762" data-name="Group 762" transform="translate(0 4.694)">
                    <path id="Path_233" data-name="Path 233" d="M307.56,135.867a3.742,3.742,0,0,0,3.64.308,3.944,3.944,0,0,0,1.992-3.148,4.209,4.209,0,0,0-6.052,2.518" transform="translate(-307.141 -129.599)" fill="#e8505b"/>
                    <path id="Path_234" data-name="Path 234" d="M329.515,144.337a3.741,3.741,0,0,0,3.64.308,3.944,3.944,0,0,0,1.992-3.147,4.209,4.209,0,0,0-6.052,2.518" transform="translate(-319.068 -134.201)" fill="#e8505b"/>
                    <path id="Path_235" data-name="Path 235" d="M317.484,127.6a3.741,3.741,0,0,0,2.871,2.259,3.944,3.944,0,0,0,3.395-1.533,4.209,4.209,0,0,0-6.44-1.225" transform="translate(-312.665 -126.102)" fill="#e8505b"/>
                    <path id="Path_236" data-name="Path 236" d="M321.211,139.178a3.741,3.741,0,0,0-3.275,1.62,3.944,3.944,0,0,0-.076,3.724,4.209,4.209,0,0,0,3.875-5.287" transform="translate(-312.732 -133.205)" fill="#e8505b"/>
                    <path id="Path_237" data-name="Path 237" d="M332.927,154.421a3.742,3.742,0,0,0,.087,3.652,3.942,3.942,0,0,0,3.344,1.64,4.472,4.472,0,0,0-.207-3.633,4.08,4.08,0,0,0-2.917-1.862" transform="translate(-320.915 -141.376)" fill="#e8505b"/>
                  </g>
                  <g id="Group_763" data-name="Group 763" transform="translate(4.394)">
                    <path id="Path_238" data-name="Path 238" d="M330.21,134.4a2.64,2.64,0,0,0-.867-.553,3.749,3.749,0,0,0-1.189-.208,14.177,14.177,0,0,0-1.619.1,4.737,4.737,0,0,1-1.993-.171,3.056,3.056,0,0,1-1.645-1.59,9.082,9.082,0,0,1-.709-2.426,6.97,6.97,0,0,0-.845-2.49,8.784,8.784,0,0,0-1.855-1.885,9,9,0,0,1-1.776-1.8,5.936,5.936,0,0,1-.883-4.129,5.791,5.791,0,0,1,1.077-2.654,4.423,4.423,0,0,1,.526-.58,1.16,1.16,0,0,1,.208-.176,1.206,1.206,0,0,1-.174.21,5.67,5.67,0,0,0-.486.6,5.919,5.919,0,0,0-.985,2.623,5.82,5.82,0,0,0,.9,3.983,8.908,8.908,0,0,0,1.743,1.746,8.88,8.88,0,0,1,1.906,1.936,7.113,7.113,0,0,1,.873,2.573,9.049,9.049,0,0,0,.677,2.374,2.864,2.864,0,0,0,1.519,1.5,4.616,4.616,0,0,0,1.912.188,13.393,13.393,0,0,1,1.637-.06,3.669,3.669,0,0,1,1.217.255,2.025,2.025,0,0,1,.66.427,1.1,1.1,0,0,1,.136.153C330.2,134.374,330.213,134.394,330.21,134.4Z" transform="translate(-316.761 -115.826)" fill="#e8505b"/>
                  </g>
                  <g id="Group_764" data-name="Group 764" transform="translate(4.394)">
                    <path id="Path_239" data-name="Path 239" d="M330.21,134.4a2.64,2.64,0,0,0-.867-.553,3.749,3.749,0,0,0-1.189-.208,14.177,14.177,0,0,0-1.619.1,4.737,4.737,0,0,1-1.993-.171,3.056,3.056,0,0,1-1.645-1.59,9.082,9.082,0,0,1-.709-2.426,6.97,6.97,0,0,0-.845-2.49,8.784,8.784,0,0,0-1.855-1.885,9,9,0,0,1-1.776-1.8,5.936,5.936,0,0,1-.883-4.129,5.791,5.791,0,0,1,1.077-2.654,4.423,4.423,0,0,1,.526-.58,1.16,1.16,0,0,1,.208-.176,1.206,1.206,0,0,1-.174.21,5.67,5.67,0,0,0-.486.6,5.919,5.919,0,0,0-.985,2.623,5.82,5.82,0,0,0,.9,3.983,8.908,8.908,0,0,0,1.743,1.746,8.88,8.88,0,0,1,1.906,1.936,7.113,7.113,0,0,1,.873,2.573,9.049,9.049,0,0,0,.677,2.374,2.864,2.864,0,0,0,1.519,1.5,4.616,4.616,0,0,0,1.912.188,13.393,13.393,0,0,1,1.637-.06,3.669,3.669,0,0,1,1.217.255,2.025,2.025,0,0,1,.66.427,1.1,1.1,0,0,1,.136.153C330.2,134.374,330.213,134.394,330.21,134.4Z" transform="translate(-316.761 -115.826)" fill="#e8505b"/>
                  </g>
                </g>
                <g id="Group_780" data-name="Group 780" transform="translate(0 13.324)">
                  <g id="Group_766" data-name="Group 766">
                    <path id="Path_240" data-name="Path 240" d="M245.592,153.6a5.551,5.551,0,0,0-7.512-5.467,9.257,9.257,0,0,0,7.314,5.4" transform="translate(-238.08 -129.386)" fill="#e8505b"/>
                    <path id="Path_241" data-name="Path 241" d="M250.39,161.677a3.956,3.956,0,0,0-.237,4.469,10.052,10.052,0,0,0,3.412,3.277,7.208,7.208,0,0,0-3.1-8.174" transform="translate(-244.327 -136.702)" fill="#e8505b"/>
                    <path id="Path_242" data-name="Path 242" d="M262.648,149.982a6.4,6.4,0,0,0,7.278,5.7,8.75,8.75,0,0,0-2.44-4.632,4.186,4.186,0,0,0-4.907-.621" transform="translate(-251.389 -130.531)" fill="#e8505b"/>
                    <path id="Path_243" data-name="Path 243" d="M253.346,142.821a3.762,3.762,0,0,0-3.4-2.856,6.536,6.536,0,0,0-4.424,1.489,5.753,5.753,0,0,0,7.843.774" transform="translate(-242.121 -125.129)" fill="#e8505b"/>
                    <path id="Path_244" data-name="Path 244" d="M242.924,174.913a5.14,5.14,0,0,0-1.258,5.456,9.074,9.074,0,0,0,3.74,4.477,11.915,11.915,0,0,0,.7-5.8,6.091,6.091,0,0,0-3.3-4.6" transform="translate(-239.871 -143.871)" fill="#e8505b"/>
                    <path id="Path_245" data-name="Path 245" d="M262.12,134.187a4.63,4.63,0,0,1,7.332-.429,4,4,0,0,1-7.218.186" transform="translate(-251.139 -120.899)" fill="#e8505b"/>
                    <path id="Path_246" data-name="Path 246" d="M257.036,120.984a6.016,6.016,0,0,1-7.674-4.706,13.732,13.732,0,0,1,3.625.053,5.9,5.9,0,0,1,3.209,1.581,3.184,3.184,0,0,1,.84,3.072" transform="translate(-244.209 -112.222)" fill="#e8505b"/>
                    <path id="Path_247" data-name="Path 247" d="M271.633,115.1a4.919,4.919,0,0,1-.031-7.591,10.294,10.294,0,0,1,2.151,4.587,3.872,3.872,0,0,1-.016,1.9,1.75,1.75,0,0,1-1.328,1.243" transform="translate(-255.326 -107.509)" fill="#e8505b"/>
                  </g>
                  <g id="Group_779" data-name="Group 779">
                    <g id="Group_775" data-name="Group 775">
                      <g id="Group_767" data-name="Group 767" transform="translate(0 18.395)" opacity="0.4">
                        <path id="Path_248" data-name="Path 248" d="M245.592,153.6a5.551,5.551,0,0,0-7.512-5.467,9.257,9.257,0,0,0,7.314,5.4" transform="translate(-238.08 -147.78)"/>
                      </g>
                      <g id="Group_768" data-name="Group 768" transform="translate(5.253 24.547)" opacity="0.4">
                        <path id="Path_249" data-name="Path 249" d="M250.39,161.677a3.956,3.956,0,0,0-.237,4.469,10.052,10.052,0,0,0,3.412,3.277,7.208,7.208,0,0,0-3.1-8.174" transform="translate(-249.581 -161.249)"/>
                      </g>
                      <g id="Group_769" data-name="Group 769" transform="translate(11.19 19.358)" opacity="0.4">
                        <path id="Path_250" data-name="Path 250" d="M262.648,149.982a6.4,6.4,0,0,0,7.278,5.7,8.75,8.75,0,0,0-2.44-4.632,4.186,4.186,0,0,0-4.907-.621" transform="translate(-262.579 -149.889)"/>
                      </g>
                      <g id="Group_770" data-name="Group 770" transform="translate(3.398 14.816)" opacity="0.4">
                        <path id="Path_251" data-name="Path 251" d="M253.346,142.821a3.762,3.762,0,0,0-3.4-2.856,6.536,6.536,0,0,0-4.424,1.489,5.753,5.753,0,0,0,7.843.774" transform="translate(-245.519 -139.945)"/>
                      </g>
                      <g id="Group_771" data-name="Group 771" transform="translate(1.506 30.574)" opacity="0.4">
                        <path id="Path_252" data-name="Path 252" d="M242.924,174.913a5.14,5.14,0,0,0-1.258,5.456,9.074,9.074,0,0,0,3.74,4.477,11.915,11.915,0,0,0,.7-5.8,6.091,6.091,0,0,0-3.3-4.6" transform="translate(-241.377 -174.445)"/>
                      </g>
                      <g id="Group_772" data-name="Group 772" transform="translate(10.981 11.259)" opacity="0.4">
                        <path id="Path_253" data-name="Path 253" d="M262.12,134.187a4.63,4.63,0,0,1,7.332-.429,4,4,0,0,1-7.218.186" transform="translate(-262.12 -132.158)"/>
                      </g>
                      <g id="Group_773" data-name="Group 773" transform="translate(5.153 3.963)" opacity="0.4">
                        <path id="Path_254" data-name="Path 254" d="M257.036,120.984a6.016,6.016,0,0,1-7.674-4.706,13.732,13.732,0,0,1,3.625.053,5.9,5.9,0,0,1,3.209,1.581,3.184,3.184,0,0,1,.84,3.072" transform="translate(-249.362 -116.185)"/>
                      </g>
                      <g id="Group_774" data-name="Group 774" transform="translate(14.502)" opacity="0.4">
                        <path id="Path_255" data-name="Path 255" d="M271.633,115.1a4.919,4.919,0,0,1-.031-7.591,10.294,10.294,0,0,1,2.151,4.587,3.872,3.872,0,0,1-.016,1.9,1.75,1.75,0,0,1-1.328,1.243" transform="translate(-269.828 -107.509)"/>
                      </g>
                    </g>
                    <g id="Group_778" data-name="Group 778" transform="translate(2.745 7.38)">
                      <g id="Group_776" data-name="Group 776">
                        <path id="Path_256" data-name="Path 256" d="M263.669,134.906a.474.474,0,0,1,0-.124c.006-.1.013-.214.022-.361.021-.317.05-.785.061-1.388a12.41,12.41,0,0,0-.816-4.984,7.611,7.611,0,0,0-2-2.821,5.352,5.352,0,0,0-3.648-1.342,4.57,4.57,0,0,0-2.058.516,4.09,4.09,0,0,0-1.59,1.518,8.181,8.181,0,0,0-.923,4.583,32.664,32.664,0,0,1,.11,4.823,7.364,7.364,0,0,1-.6,2.235,4.688,4.688,0,0,1-1.35,1.769,6.781,6.781,0,0,1-1.879.962,9.586,9.586,0,0,0-1.772.8,6.418,6.418,0,0,0-2.326,2.535,6.136,6.136,0,0,0-.671,2.773,6.5,6.5,0,0,0,.351,2.143,7.972,7.972,0,0,0,.83,1.668.473.473,0,0,1-.08-.094,3.563,3.563,0,0,1-.212-.3,5.851,5.851,0,0,1-.625-1.248,6.459,6.459,0,0,1-.4-2.174,6.225,6.225,0,0,1,.655-2.849,6.569,6.569,0,0,1,2.372-2.627c1.085-.722,2.517-.9,3.619-1.77a5.649,5.649,0,0,0,1.854-3.859,33.018,33.018,0,0,0-.116-4.788,8.374,8.374,0,0,1,.962-4.713,4.315,4.315,0,0,1,1.683-1.6,4.774,4.774,0,0,1,2.159-.534,5.543,5.543,0,0,1,3.782,1.412,7.735,7.735,0,0,1,2.03,2.905,10.412,10.412,0,0,1,.691,2.845,15.69,15.69,0,0,1,.062,2.207c-.025.605-.069,1.073-.105,1.389-.019.147-.034.265-.046.359A.474.474,0,0,1,263.669,134.906Z" transform="translate(-244.089 -123.665)" fill="#e8505b"/>
                      </g>
                      <g id="Group_777" data-name="Group 777" opacity="0.4">
                        <path id="Path_257" data-name="Path 257" d="M263.669,134.906a.474.474,0,0,1,0-.124c.006-.1.013-.214.022-.361.021-.317.05-.785.061-1.388a12.41,12.41,0,0,0-.816-4.984,7.611,7.611,0,0,0-2-2.821,5.352,5.352,0,0,0-3.648-1.342,4.57,4.57,0,0,0-2.058.516,4.09,4.09,0,0,0-1.59,1.518,8.181,8.181,0,0,0-.923,4.583,32.664,32.664,0,0,1,.11,4.823,7.364,7.364,0,0,1-.6,2.235,4.688,4.688,0,0,1-1.35,1.769,6.781,6.781,0,0,1-1.879.962,9.586,9.586,0,0,0-1.772.8,6.418,6.418,0,0,0-2.326,2.535,6.136,6.136,0,0,0-.671,2.773,6.5,6.5,0,0,0,.351,2.143,7.972,7.972,0,0,0,.83,1.668.473.473,0,0,1-.08-.094,3.563,3.563,0,0,1-.212-.3,5.851,5.851,0,0,1-.625-1.248,6.459,6.459,0,0,1-.4-2.174,6.225,6.225,0,0,1,.655-2.849,6.569,6.569,0,0,1,2.372-2.627c1.085-.722,2.517-.9,3.619-1.77a5.649,5.649,0,0,0,1.854-3.859,33.018,33.018,0,0,0-.116-4.788,8.374,8.374,0,0,1,.962-4.713,4.315,4.315,0,0,1,1.683-1.6,4.774,4.774,0,0,1,2.159-.534,5.543,5.543,0,0,1,3.782,1.412,7.735,7.735,0,0,1,2.03,2.905,10.412,10.412,0,0,1,.691,2.845,15.69,15.69,0,0,1,.062,2.207c-.025.605-.069,1.073-.105,1.389-.019.147-.034.265-.046.359A.474.474,0,0,1,263.669,134.906Z" transform="translate(-244.089 -123.665)"/>
                      </g>
                    </g>
                  </g>
                </g>
                <g id="Group_781" data-name="Group 781" transform="translate(31.134 17.076)">
                  <path id="Path_258" data-name="Path 258" d="M329.373,126.67a4.679,4.679,0,0,0,.328-1.608,4.024,4.024,0,0,0-.428-1.855,3.869,3.869,0,0,0-1.789-1.728,3.91,3.91,0,0,0-1.409-.38,4.589,4.589,0,0,0-1.577.185c-1.075.283-2.138.893-3.409,1.146a4.021,4.021,0,0,1-1.977-.049,2.968,2.968,0,0,1-1.611-1.286c-.766-1.188-.982-2.679-1.907-3.775a3.772,3.772,0,0,0-1.733-1.132,4.865,4.865,0,0,0-2.025-.205,5.188,5.188,0,0,0-3.368,1.752,7.908,7.908,0,0,0-1.671,3.092,9.328,9.328,0,0,0-.373,3.064,33.563,33.563,0,0,0,.569,4.481q.132.767.21,1.215c.019.127.034.232.047.317a.391.391,0,0,1,.008.11.368.368,0,0,1-.032-.105l-.07-.313-.254-1.206a30.432,30.432,0,0,1-.646-4.493,9.415,9.415,0,0,1,.352-3.125,8.066,8.066,0,0,1,1.7-3.184,6.026,6.026,0,0,1,1.539-1.232,5.3,5.3,0,0,1,4.09-.393,4,4,0,0,1,1.84,1.2c.979,1.174,1.189,2.675,1.922,3.8a2.74,2.74,0,0,0,1.483,1.2,3.816,3.816,0,0,0,1.867.05c1.225-.234,2.293-.837,3.4-1.121a4.755,4.755,0,0,1,1.643-.177,4.057,4.057,0,0,1,1.469.412,3.987,3.987,0,0,1,1.834,1.82,4.052,4.052,0,0,1,.4,1.916,3.819,3.819,0,0,1-.237,1.215A1.967,1.967,0,0,1,329.373,126.67Z" transform="translate(-306.242 -115.721)" fill="#e8505b"/>
                </g>
                <path id="Path_259" data-name="Path 259" d="M328.62,118.245a4.263,4.263,0,0,0,3.912.257,3.944,3.944,0,0,0,1.992-3.147,4.209,4.209,0,0,0-6.052,2.518" transform="translate(-287.184 -98.182)" fill="#e8505b"/>
                <path id="Path_260" data-name="Path 260" d="M337.9,130a4.262,4.262,0,0,0,1.816,3.474,3.944,3.944,0,0,0,3.724.063,4.208,4.208,0,0,0-5.3-3.857" transform="translate(-292.304 -106.165)" fill="#e8505b"/>
                <path id="Path_261" data-name="Path 261" d="M353.473,124.182a4.264,4.264,0,0,0,3.917-.161,3.944,3.944,0,0,0,1.645-3.342,4.208,4.208,0,0,0-5.748,3.149" transform="translate(-300.664 -101.182)" fill="#e8505b"/>
                <path id="Path_262" data-name="Path 262" d="M313.64,109.033a4.46,4.46,0,0,1-1.555-3.693,3.944,3.944,0,0,1,2.418-2.833,4.209,4.209,0,0,1-.617,6.526" transform="translate(-278.263 -91.467)" fill="#e8505b"/>
                <g id="Group_783" data-name="Group 783" transform="translate(3.011)">
                  <g id="Group_782" data-name="Group 782" transform="translate(4.195 6.97)">
                    <path id="Path_263" data-name="Path 263" d="M253.857,99.027a.345.345,0,0,1,.043-.1l.146-.269c.133-.234.34-.573.635-.992A10.672,10.672,0,0,1,257.82,94.7a7.7,7.7,0,0,1,2.816-1.035,6.97,6.97,0,0,1,3.422.359,5.553,5.553,0,0,1,2.927,2.4,17.9,17.9,0,0,1,1.283,3.871,7.023,7.023,0,0,0,.818,1.846,5.6,5.6,0,0,0,1.39,1.37c.524.386,1.071.734,1.568,1.14a6.741,6.741,0,0,1,1.273,1.379,8.481,8.481,0,0,1,1.3,3.187,11.288,11.288,0,0,1,.174,2.994,22.782,22.782,0,0,1-.766,4.26c-.13.494-.239.875-.315,1.132a2.579,2.579,0,0,1-.128.39,2.685,2.685,0,0,1,.082-.4l.271-1.143a24.618,24.618,0,0,0,.688-4.247,11.3,11.3,0,0,0-.2-2.945,8.335,8.335,0,0,0-1.291-3.1,6.552,6.552,0,0,0-1.236-1.329c-.484-.392-1.028-.737-1.562-1.128a5.813,5.813,0,0,1-1.448-1.426,7.216,7.216,0,0,1-.849-1.91,18.019,18.019,0,0,0-1.257-3.824,5.342,5.342,0,0,0-2.8-2.308,6.8,6.8,0,0,0-3.318-.369,7.6,7.6,0,0,0-2.758.984,10.945,10.945,0,0,0-3.15,2.876c-.3.407-.523.737-.669.962A2.65,2.65,0,0,1,253.857,99.027Z" transform="translate(-253.857 -93.598)" fill="#e8505b"/>
                  </g>
                  <path id="Path_264" data-name="Path 264" d="M286.392,115.855c-.363-.338-.54-.1-1.028-.014a3.036,3.036,0,0,0-1.317.658,5.55,5.55,0,0,0-1.8,5.823,4.33,4.33,0,0,0,3.977-6.5" transform="translate(-264.963 -98.623)" fill="#e8505b"/>
                  <path id="Path_265" data-name="Path 265" d="M251.195,100.574c-.183-.461-.443-.325-.921-.454a3.032,3.032,0,0,0-1.472.027,5.549,5.549,0,0,0-4.128,4.483,4.33,4.33,0,0,0,6.388-4.162" transform="translate(-244.673 -90.127)" fill="#e8505b"/>
                  <path id="Path_266" data-name="Path 266" d="M289.429,134.115a5,5,0,0,0-7.858.382,6.186,6.186,0,0,0,4.075,1.607,6.315,6.315,0,0,0,4.105-1.661" transform="translate(-264.717 -107.699)" fill="#e8505b"/>
                  <path id="Path_267" data-name="Path 267" d="M295.579,113.838a5.065,5.065,0,0,0,5.116-6.044,4.546,4.546,0,0,0-5.284,5.994" transform="translate(-272.091 -94.28)" fill="#e8505b"/>
                  <path id="Path_268" data-name="Path 268" d="M284.439,97.928a5.066,5.066,0,0,0,6.834-4,4.546,4.546,0,0,0-6.976,3.9" transform="translate(-266.198 -86.432)" fill="#e8505b"/>
                  <path id="Path_269" data-name="Path 269" d="M272.63,97.349a5.065,5.065,0,0,0-6.834,4,4.546,4.546,0,0,0,6.976-3.9" transform="translate(-256.148 -88.486)" fill="#e8505b"/>
                  <path id="Path_270" data-name="Path 270" d="M274.682,85.784a5.065,5.065,0,0,0,2.7-7.446,4.546,4.546,0,0,0-2.87,7.458" transform="translate(-260.296 -78.338)" fill="#e8505b"/>
                  <path id="Path_271" data-name="Path 271" d="M258.724,87.169a5.065,5.065,0,0,0-4.136-6.753,4.546,4.546,0,0,0,4.036,6.9" transform="translate(-249.711 -79.467)" fill="#e8505b"/>
                </g>
              </g>
            </g>
            <g id="Group_786" data-name="Group 786" transform="translate(21.251 39.107)">
              <path id="Path_272" data-name="Path 272" d="M303.666,164.241a.727.727,0,0,1-.129.169,4.489,4.489,0,0,1-.421.442,7.7,7.7,0,0,1-1.843,1.279,8.11,8.11,0,0,1-3.223.827,7.729,7.729,0,0,1-1.971-.165,11.6,11.6,0,0,1-2.01-.666c-1.331-.567-2.54-1.212-3.719-1.587a6.409,6.409,0,0,0-3.212-.31,4.179,4.179,0,0,0-1.97.914c-.392.344-.542.6-.562.587a.714.714,0,0,1,.1-.187,2.987,2.987,0,0,1,.4-.468,4.1,4.1,0,0,1,2-1.011,6.446,6.446,0,0,1,3.312.266c1.206.371,2.43,1.017,3.745,1.576a11.662,11.662,0,0,0,1.968.658,7.677,7.677,0,0,0,1.913.174,8.175,8.175,0,0,0,3.159-.76A9.8,9.8,0,0,0,303.666,164.241Z" transform="translate(-284.605 -163.953)" fill="#fafafa"/>
            </g>
            <g id="Group_787" data-name="Group 787" transform="translate(21.025 37.659)">
              <path id="Path_273" data-name="Path 273" d="M303.6,160.907c.005.006-.043.061-.142.16a5.089,5.089,0,0,1-.452.412,8.538,8.538,0,0,1-1.911,1.186,8.988,8.988,0,0,1-3.245.775,8.856,8.856,0,0,1-1.977-.133,13.293,13.293,0,0,1-2.041-.577c-1.362-.495-2.613-1.063-3.808-1.4a7.562,7.562,0,0,0-3.239-.294,4.858,4.858,0,0,0-2.044.782c-.428.3-.617.53-.634.513s.038-.064.129-.171a3.488,3.488,0,0,1,.45-.417,4.7,4.7,0,0,1,2.071-.872,7.536,7.536,0,0,1,3.325.249c1.219.328,2.482.895,3.83,1.384a13.44,13.44,0,0,0,2,.572,8.817,8.817,0,0,0,1.925.143,9.092,9.092,0,0,0,3.187-.71A11.289,11.289,0,0,0,303.6,160.907Z" transform="translate(-284.109 -160.783)" fill="#fafafa"/>
            </g>
          </g>
        </g>
        <path id="Path_274" data-name="Path 274" d="M304.522,52.7a2.412,2.412,0,1,1-2.412-2.412A2.412,2.412,0,0,1,304.522,52.7Z" transform="translate(-271.553 -3.38)" fill="#263238"/>
        <g id="Group_790" data-name="Group 790" transform="translate(30.244)">
          <path id="Path_275" data-name="Path 275" d="M304.412,10.729c.065,0,.119,14.8.119,33.05s-.053,33.052-.119,33.052-.119-14.8-.119-33.052S304.346,10.729,304.412,10.729Z" transform="translate(-304.293 -10.729)" fill="#263238"/>
        </g>
        <g id="Group_791" data-name="Group 791" transform="translate(20.207 76.518)">
          <path id="Path_276" data-name="Path 276" d="M303.777,151.771a.771.771,0,0,1-.2.094l-.6.226c-.259.1-.579.212-.957.323s-.8.257-1.285.372a30.868,30.868,0,0,1-3.413.7,31.684,31.684,0,0,1-8.514.1,31.023,31.023,0,0,1-3.428-.623c-.485-.1-.914-.238-1.293-.343s-.7-.209-.964-.3l-.6-.212a.783.783,0,0,1-.2-.09.81.81,0,0,1,.219.044l.614.169c.264.079.589.171.972.261s.811.214,1.3.307a34.524,34.524,0,0,0,3.416.569,33.658,33.658,0,0,0,8.458-.1,34.458,34.458,0,0,0,3.4-.645c.483-.1.909-.235,1.289-.336s.7-.2.966-.283l.61-.183A.833.833,0,0,1,303.777,151.771Z" transform="translate(-282.319 -151.769)" fill="#263238"/>
        </g>
        <g id="Group_792" data-name="Group 792" transform="translate(20.211 77.215)">
          <path id="Path_277" data-name="Path 277" d="M289.693,154.38a.919.919,0,0,1-.058.232c-.046.149-.115.369-.214.648-.194.56-.491,1.364-.9,2.341s-.936,2.126-1.581,3.371c-.323.622-.676,1.268-1.058,1.928-.191.33-.391.663-.595,1a2.342,2.342,0,0,1-.376.5.813.813,0,0,1-.635.243,1.125,1.125,0,0,1-.9-.883c-.109-.4-.141-.781-.206-1.159-.113-.754-.212-1.482-.3-2.177-.173-1.39-.294-2.646-.376-3.7s-.129-1.912-.151-2.5c-.012-.3-.016-.526-.017-.682a.9.9,0,0,1,.011-.238.913.913,0,0,1,.037.236c.016.182.037.406.062.678.057.624.133,1.468.226,2.494.1,1.052.242,2.3.426,3.688.092.692.2,1.419.312,2.171.065.372.1.769.2,1.126a1.192,1.192,0,0,0,.249.474.71.71,0,0,0,.442.239c.34.036.6-.3.788-.627l.6-.993c.383-.656.738-1.3,1.065-1.913.653-1.234,1.192-2.371,1.621-3.336s.751-1.758.971-2.307l.255-.632A.9.9,0,0,1,289.693,154.38Z" transform="translate(-282.327 -153.296)" fill="#263238"/>
        </g>
        <g id="Group_793" data-name="Group 793" transform="translate(27.574 77.73)">
          <path id="Path_278" data-name="Path 278" d="M307.592,154.422a.841.841,0,0,1-.044.23l-.17.645-.668,2.361-1.02,3.492-.3,1.008c-.105.341-.191.7-.332,1.057a3.13,3.13,0,0,1-.6,1.009,1.955,1.955,0,0,1-1.067.6,1.609,1.609,0,0,1-1.194-.293,2.6,2.6,0,0,1-.781-.885c-.337-.685-.6-1.348-.85-1.99-.489-1.283-.879-2.455-1.2-3.443s-.551-1.793-.707-2.351c-.069-.258-.126-.471-.172-.645a.836.836,0,0,1-.043-.23.9.9,0,0,1,.089.216l.214.632.778,2.325c.336.979.742,2.143,1.24,3.416.252.632.526,1.3.849,1.956a2.368,2.368,0,0,0,.712.8,1.376,1.376,0,0,0,1.02.253,1.725,1.725,0,0,0,.935-.531,2.905,2.905,0,0,0,.556-.932c.136-.338.222-.69.33-1.033s.206-.679.306-1.007l1.069-3.48.74-2.34.213-.632A.882.882,0,0,1,307.592,154.422Z" transform="translate(-298.448 -154.422)" fill="#263238"/>
        </g>
        <g id="Group_794" data-name="Group 794" transform="translate(36.716 76.506)">
          <path id="Path_279" data-name="Path 279" d="M323.411,151.757c-.009,0,.026-.039.058.008a.423.423,0,0,1,.039.173,4.738,4.738,0,0,1-.019.66c-.045.57-.148,1.389-.293,2.4s-.335,2.216-.534,3.539c-.1.667-.205,1.365-.314,2.089q-.075.544-.154,1.106-.036.281-.073.566l-.037.292a.838.838,0,0,1-.125.312.691.691,0,0,1-.576.348.469.469,0,0,1-.333-.169.843.843,0,0,1-.15-.293l-.285-1.089-.525-2.048-.876-3.471-.57-2.345-.143-.641a.845.845,0,0,1-.035-.227.832.832,0,0,1,.081.216l.187.629c.162.584.379,1.37.644,2.326l.925,3.458c.172.652.352,1.336.539,2.044l.284,1.075c.052.171.139.294.27.3a.466.466,0,0,0,.364-.24C322.681,156.765,323.679,151.649,323.411,151.757Z" transform="translate(-318.462 -151.743)" fill="#263238"/>
        </g>
      </g>
    </g>
  </g>
</svg>
