<svg xmlns="http://www.w3.org/2000/svg" width="324.54" height="194" viewBox="0 0 324.54 194">
  <g id="Group_1810" data-name="Group 1810" transform="translate(-146 -443)">
    <g id="Group_1711" data-name="Group 1711" transform="translate(169.51 294.221)">
      <g id="Background_Complete" data-name="Background Complete" transform="translate(143.144 248.348)">
        <g id="Group_1405" data-name="Group 1405" transform="translate(0)">
          <g id="Group_1403" data-name="Group 1403">
            <g id="Group_1397" data-name="Group 1397" transform="translate(11.17)">
              <path id="Path_629" data-name="Path 629" d="M220.783,308.751c-3.81.613-5.514,5.3-5.18,9.14s1.913,7.6,1.491,11.439c-.537,4.871-4.219,8.988-4.647,13.87-.506,5.758,3.565,10.864,4.781,16.515.591,2.749.509,5.657,1.532,8.275a10.346,10.346,0,0,0,19.98-3.569c.085-4.421-2.643-8.585-2.312-12.994.245-3.259,2.155-6.347,1.746-9.59-.487-3.858-4.062-6.6-5.323-10.276s-.05-7.734-.485-11.6c-.781-6.934-4.626-11.768-11.583-11.212" transform="translate(-212.403 -308.707)" fill="#f5f5f5"/>
            </g>
            <g id="Group_1398" data-name="Group 1398" transform="translate(0 33.619)">
              <path id="Path_630" data-name="Path 630" d="M194.556,362.707c-.649,6.425,2.193,13.984,5.5,19.532a30.629,30.629,0,0,0,14.384,12.485,1.585,1.585,0,0,0,2.6-1.589,31.548,31.548,0,0,0-22.48-30.427" transform="translate(-194.463 -362.707)" fill="#ebebeb"/>
            </g>
            <g id="Group_1400" data-name="Group 1400" transform="translate(8.288 45.204)">
              <g id="Group_1399" data-name="Group 1399">
                <path id="Path_631" data-name="Path 631" d="M227.569,415.181a1.733,1.733,0,0,1-.183-.358l-.458-1.052c-.386-.918-.963-2.239-1.7-3.86a133.483,133.483,0,0,0-14.01-23.971c-1.052-1.436-1.919-2.587-2.53-3.374L208,381.65a1.668,1.668,0,0,1-.222-.336,1.654,1.654,0,0,1,.279.289l.746.873c.646.761,1.545,1.889,2.625,3.308a116.649,116.649,0,0,1,14.039,24.02c.707,1.639,1.248,2.977,1.594,3.912.161.437.291.794.4,1.078A1.667,1.667,0,0,1,227.569,415.181Z" transform="translate(-207.775 -381.314)" fill="#e0e0e0"/>
              </g>
            </g>
            <g id="Group_1402" data-name="Group 1402" transform="translate(23.935 17.819)">
              <g id="Group_1401" data-name="Group 1401">
                <path id="Path_632" data-name="Path 632" d="M232.918,337.329a3.792,3.792,0,0,1,.07.616q.048.655.128,1.77c.1,1.571.243,3.787.419,6.51.347,5.5.835,13.092,1.424,21.475s1.172,15.974,1.6,21.467c.208,2.721.377,4.934.5,6.5q.076,1.114.12,1.769a3.845,3.845,0,0,1,.017.62,3.987,3.987,0,0,1-.09-.613q-.07-.652-.189-1.764c-.148-1.568-.357-3.779-.613-6.5-.492-5.487-1.114-13.074-1.705-21.462s-1.036-15.984-1.317-21.487c-.127-2.726-.23-4.945-.3-6.518q-.037-1.117-.06-1.773A4.027,4.027,0,0,1,232.918,337.329Z" transform="translate(-232.908 -337.329)" fill="#e0e0e0"/>
              </g>
            </g>
          </g>
          <g id="Group_1404" data-name="Group 1404" transform="translate(18.036 69.908)">
            <path id="Path_633" data-name="Path 633" d="M223.432,420.994h16.091v11.813a7.724,7.724,0,0,1-7.724,7.724h0a7.723,7.723,0,0,1-7.713-7.312Z" transform="translate(-223.432 -420.994)" fill="#e0e0e0"/>
          </g>
        </g>
      </g>
      <g id="Character_2" data-name="Character 2" transform="translate(176.72 148.78)">
        <g id="Group_1567" data-name="Group 1567">
          <g id="Group_1555" data-name="Group 1555">
            <g id="Group_1408" data-name="Group 1408" transform="translate(44.496 42.179)">
              <g id="Group_1407" data-name="Group 1407">
                <g id="Group_1406" data-name="Group 1406">
                  <path id="Path_634" data-name="Path 634" d="M327.743,232.025l-2.488-.518c-2.223-.667-3.485-.954-4-1.682-.688-.975.633-1.538.633-1.538s-1.529-.886-1.179-1.856a1.015,1.015,0,0,1,1.032-.585s-1.336-.849-1.5-1.509c-.228-.9.88-1.136.88-1.136-1.733-1.606-1.317-2.773-.838-2.8s1.88.981,1.88.981c1.227.628,4.559,2.409,3.63.194s-.807-4.267-.388-4.8a.751.751,0,0,1,1.286.6,8.778,8.778,0,0,0,.495,2.37,5.732,5.732,0,0,0,.888,1.728c.459.606.872,1.1,1.234,1.513l1.8,2.579Z" transform="translate(-319.864 -216.528)" fill="#ffbe9d"/>
                </g>
              </g>
            </g>
            <g id="Group_1462" data-name="Group 1462" transform="translate(36.086 182.223)">
              <g id="Group_1461" data-name="Group 1461">
                <g id="Group_1413" data-name="Group 1413" transform="translate(0.045)">
                  <g id="Group_1410" data-name="Group 1410">
                    <g id="Group_1409" data-name="Group 1409">
                      <path id="Path_635" data-name="Path 635" d="M313.085,445.987l2.142-4.518,8.489,3.957-3.063,6.644-.542-.212c-2.4-.962-12.15-5.06-13.5-6.265C305.115,444.249,313.085,445.987,313.085,445.987Z" transform="translate(-306.427 -441.469)" fill="#e8505b"/>
                    </g>
                  </g>
                  <g id="Group_1412" data-name="Group 1412" transform="translate(11.178 7.708)" opacity="0.3">
                    <g id="Group_1411" data-name="Group 1411">
                      <path id="Path_636" data-name="Path 636" d="M324.382,455.241a3.25,3.25,0,0,1,1.927-1.3,3.159,3.159,0,0,1,2.272.308l-1.1,2.373Z" transform="translate(-324.382 -453.85)" fill="#fff"/>
                    </g>
                  </g>
                </g>
                <g id="Group_1415" data-name="Group 1415" transform="translate(0 3.625)" opacity="0.3">
                  <g id="Group_1414" data-name="Group 1414">
                    <path id="Path_637" data-name="Path 637" d="M309.106,447.461s-2.868-.449-2.747.114,9.816,5.075,14.266,6.692l.075-.2L309.347,448.9S309.59,447.712,309.106,447.461Z" transform="translate(-306.355 -447.291)" fill="#fff"/>
                  </g>
                </g>
                <g id="Group_1418" data-name="Group 1418" transform="translate(0.067 3.765)">
                  <g id="Group_1417" data-name="Group 1417">
                    <g id="Group_1416" data-name="Group 1416">
                      <path id="Path_638" data-name="Path 638" d="M320.876,454.213a.845.845,0,0,1-.153-.052l-.431-.17-1.574-.652c-1.325-.56-3.146-1.357-5.137-2.282s-3.776-1.8-5.058-2.454l-1.513-.783-.408-.22a.856.856,0,0,1-.139-.083.917.917,0,0,1,.149.063l.417.2,1.53.75c1.291.633,3.08,1.5,5.07,2.422s3.8,1.733,5.121,2.312l1.56.685.423.189A.84.84,0,0,1,320.876,454.213Z" transform="translate(-306.462 -447.517)" fill="#263238"/>
                    </g>
                  </g>
                </g>
                <g id="Group_1421" data-name="Group 1421" transform="translate(2.734 3.663)">
                  <g id="Group_1420" data-name="Group 1420">
                    <g id="Group_1419" data-name="Group 1419">
                      <path id="Path_639" data-name="Path 639" d="M310.945,449.06a2.479,2.479,0,0,0-.2-1.706,1.512,1.512,0,0,1,.2,1.706Z" transform="translate(-310.746 -447.352)" fill="#263238"/>
                    </g>
                  </g>
                </g>
                <g id="Group_1424" data-name="Group 1424" transform="translate(5.888 4.35)">
                  <g id="Group_1423" data-name="Group 1423">
                    <g id="Group_1422" data-name="Group 1422">
                      <path id="Path_640" data-name="Path 640" d="M315.954,449.371a1.913,1.913,0,1,1,0-.465A.985.985,0,0,1,315.954,449.371Z" transform="translate(-315.812 -448.456)" fill="#263238"/>
                    </g>
                  </g>
                </g>
                <g id="Group_1427" data-name="Group 1427" transform="translate(6.57 4.499)">
                  <g id="Group_1426" data-name="Group 1426">
                    <g id="Group_1425" data-name="Group 1425">
                      <path id="Path_641" data-name="Path 641" d="M317.224,449.418c-.029.012-.121-.139-.206-.339s-.131-.371-.1-.384.121.139.207.339S317.253,449.406,317.224,449.418Z" transform="translate(-316.907 -448.695)" fill="#263238"/>
                    </g>
                  </g>
                </g>
                <g id="Group_1430" data-name="Group 1430" transform="translate(6.802 4.213)">
                  <g id="Group_1429" data-name="Group 1429">
                    <g id="Group_1428" data-name="Group 1428">
                      <path id="Path_642" data-name="Path 642" d="M318.173,448.646a1.105,1.105,0,0,1-.469-.149c-.247-.111-.436-.225-.423-.253a1.107,1.107,0,0,1,.469.149C318,448.5,318.185,448.617,318.173,448.646Z" transform="translate(-317.28 -448.236)" fill="#263238"/>
                    </g>
                  </g>
                </g>
                <g id="Group_1433" data-name="Group 1433" transform="translate(7.065 3.731)">
                  <g id="Group_1432" data-name="Group 1432">
                    <g id="Group_1431" data-name="Group 1431">
                      <path id="Path_643" data-name="Path 643" d="M318.745,447.858a1.378,1.378,0,0,1-1.04-.392,38.183,38.183,0,0,0,1.04.392Z" transform="translate(-317.703 -447.462)" fill="#263238"/>
                    </g>
                  </g>
                </g>
                <g id="Group_1436" data-name="Group 1436" transform="translate(4.692 3.03)">
                  <g id="Group_1435" data-name="Group 1435">
                    <g id="Group_1434" data-name="Group 1434">
                      <path id="Path_644" data-name="Path 644" d="M315.286,447.7a1.735,1.735,0,0,1-.544-.257,3.561,3.561,0,0,1-.521-.4,1.783,1.783,0,0,1-.269-.292.327.327,0,0,1-.056-.232.238.238,0,0,1,.184-.18,1.1,1.1,0,0,1,1.1.869,1.086,1.086,0,0,1,.009.446.338.338,0,0,1-.055.154,1.707,1.707,0,0,0-.032-.582,1.088,1.088,0,0,0-.325-.52.937.937,0,0,0-.671-.258c-.116.024-.13.142-.06.244a1.816,1.816,0,0,0,.245.273,4.146,4.146,0,0,0,.494.408C315.086,447.582,315.294,447.679,315.286,447.7Z" transform="translate(-313.891 -446.335)" fill="#263238"/>
                    </g>
                  </g>
                </g>
                <g id="Group_1439" data-name="Group 1439" transform="translate(5.926 3.495)">
                  <g id="Group_1438" data-name="Group 1438">
                    <g id="Group_1437" data-name="Group 1437">
                      <path id="Path_645" data-name="Path 645" d="M315.88,447.94a.594.594,0,0,1,.113-.408.991.991,0,0,1,.335-.329.605.605,0,0,1,.583-.067.24.24,0,0,1,.051.331.661.661,0,0,1-.206.2,1.843,1.843,0,0,1-.412.21.872.872,0,0,1-.415.075c0-.018.154-.047.385-.15a2.117,2.117,0,0,0,.381-.221c.128-.08.276-.264.151-.352a.537.537,0,0,0-.467.065.983.983,0,0,0-.319.283A2.134,2.134,0,0,0,315.88,447.94Z" transform="translate(-315.873 -447.083)" fill="#263238"/>
                    </g>
                  </g>
                </g>
                <g id="Group_1442" data-name="Group 1442" transform="translate(11.258 7.527)">
                  <g id="Group_1441" data-name="Group 1441">
                    <g id="Group_1440" data-name="Group 1440">
                      <path id="Path_646" data-name="Path 646" d="M328.569,454.089c-.011.018-.232-.136-.638-.27a2.934,2.934,0,0,0-3.049.738c-.3.3-.426.542-.444.531a.554.554,0,0,1,.08-.171,2.448,2.448,0,0,1,.306-.415,2.845,2.845,0,0,1,3.134-.758,2.439,2.439,0,0,1,.461.229C328.521,454.039,328.573,454.083,328.569,454.089Z" transform="translate(-324.438 -453.558)" fill="#263238"/>
                    </g>
                  </g>
                </g>
                <g id="Group_1445" data-name="Group 1445" transform="translate(14.572 4.114)">
                  <g id="Group_1444" data-name="Group 1444">
                    <g id="Group_1443" data-name="Group 1443">
                      <path id="Path_647" data-name="Path 647" d="M331.342,448.077a32.755,32.755,0,0,1-1.58,3.51,32.769,32.769,0,0,1,1.58-3.51Z" transform="translate(-329.76 -448.077)" fill="#263238"/>
                    </g>
                  </g>
                </g>
                <g id="Group_1448" data-name="Group 1448" transform="translate(8.048 6.64)">
                  <g id="Group_1447" data-name="Group 1447">
                    <g id="Group_1446" data-name="Group 1446">
                      <path id="Path_648" data-name="Path 648" d="M321.774,453.268a7.691,7.691,0,0,1-2.492-1.131c.017-.029.555.263,1.242.574S321.785,453.237,321.774,453.268Z" transform="translate(-319.281 -452.135)" fill="#263238"/>
                    </g>
                  </g>
                </g>
                <g id="Group_1451" data-name="Group 1451" transform="translate(11.754 8.535)">
                  <g id="Group_1450" data-name="Group 1450">
                    <g id="Group_1449" data-name="Group 1449">
                      <path id="Path_649" data-name="Path 649" d="M325.686,455.188c.011.03-.1.1-.216.2s-.2.2-.228.184.019-.154.154-.27S325.678,455.16,325.686,455.188Z" transform="translate(-325.235 -455.177)" fill="#263238"/>
                    </g>
                  </g>
                </g>
                <g id="Group_1454" data-name="Group 1454" transform="translate(12.727 8.042)">
                  <g id="Group_1453" data-name="Group 1453">
                    <g id="Group_1452" data-name="Group 1452">
                      <path id="Path_650" data-name="Path 650" d="M327.267,454.4c.011.029-.085.092-.214.14s-.243.063-.254.034.085-.092.214-.141S327.255,454.372,327.267,454.4Z" transform="translate(-326.798 -454.387)" fill="#263238"/>
                    </g>
                  </g>
                </g>
                <g id="Group_1457" data-name="Group 1457" transform="translate(13.702 7.961)">
                  <g id="Group_1456" data-name="Group 1456">
                    <g id="Group_1455" data-name="Group 1455">
                      <path id="Path_651" data-name="Path 651" d="M328.921,454.414c-.019.026-.132-.027-.277-.042s-.266.011-.279-.019.112-.114.291-.093S328.942,454.391,328.921,454.414Z" transform="translate(-328.364 -454.256)" fill="#263238"/>
                    </g>
                  </g>
                </g>
                <g id="Group_1460" data-name="Group 1460" transform="translate(14.675 8.18)">
                  <g id="Group_1459" data-name="Group 1459">
                    <g id="Group_1458" data-name="Group 1458">
                      <path id="Path_652" data-name="Path 652" d="M330.228,454.675c0,.031-.071.052-.154.047s-.149-.035-.147-.067.071-.052.154-.047S330.23,454.644,330.228,454.675Z" transform="translate(-329.927 -454.608)" fill="#263238"/>
                    </g>
                  </g>
                </g>
              </g>
            </g>
            <g id="Group_1516" data-name="Group 1516" transform="translate(109.599 180.667)">
              <g id="Group_1515" data-name="Group 1515">
                <g id="Group_1467" data-name="Group 1467" transform="translate(0.007)">
                  <g id="Group_1464" data-name="Group 1464">
                    <g id="Group_1463" data-name="Group 1463">
                      <path id="Path_653" data-name="Path 653" d="M429.254,447.518l-2.117-4.53,8.46-4.019,3.166,6.594-.509.283c-2.273,1.239-11.644,6.137-13.429,6.406C422.835,452.551,429.254,447.518,429.254,447.518Z" transform="translate(-424.443 -438.969)" fill="#e8505b"/>
                    </g>
                  </g>
                  <g id="Group_1466" data-name="Group 1466" transform="translate(11.104 4.114)" opacity="0.3">
                    <g id="Group_1465" data-name="Group 1465">
                      <path id="Path_654" data-name="Path 654" d="M442.4,449.448a3.252,3.252,0,0,1,.223-2.317,3.157,3.157,0,0,1,1.685-1.555l1.125,2.364Z" transform="translate(-442.279 -445.577)" fill="#fff"/>
                    </g>
                  </g>
                </g>
                <g id="Group_1469" data-name="Group 1469" transform="translate(0 6.412)" opacity="0.3">
                  <g id="Group_1468" data-name="Group 1468">
                    <path id="Path_655" data-name="Path 655" d="M426.173,453.989s-2.174,1.923-1.662,2.189,10.167-4.328,14.25-6.728l-.1-.182-11.218,5.454S426.675,453.776,426.173,453.989Z" transform="translate(-424.433 -449.268)" fill="#fff"/>
                  </g>
                </g>
                <g id="Group_1472" data-name="Group 1472" transform="translate(0.008 6.343)">
                  <g id="Group_1471" data-name="Group 1471">
                    <g id="Group_1470" data-name="Group 1470">
                      <path id="Path_656" data-name="Path 656" d="M438.792,449.158a.809.809,0,0,1-.138.085l-.406.224-1.505.8c-1.276.664-3.051,1.559-5.033,2.5s-3.8,1.76-5.115,2.333l-1.568.667-.429.174a.844.844,0,0,1-.153.054.9.9,0,0,1,.144-.074l.421-.194,1.553-.7c1.311-.591,3.117-1.419,5.1-2.363s3.76-1.827,5.045-2.473l1.522-.765.416-.2A.936.936,0,0,1,438.792,449.158Z" transform="translate(-424.445 -449.158)" fill="#263238"/>
                    </g>
                  </g>
                </g>
                <g id="Group_1475" data-name="Group 1475" transform="translate(1.631 11.047)">
                  <g id="Group_1474" data-name="Group 1474">
                    <g id="Group_1473" data-name="Group 1473">
                      <path id="Path_657" data-name="Path 657" d="M428.493,457.662a3.933,3.933,0,0,0-.636-.6,3.827,3.827,0,0,0-.8-.339,1.512,1.512,0,0,1,1.441.936Z" transform="translate(-427.052 -456.712)" fill="#263238"/>
                    </g>
                  </g>
                </g>
                <g id="Group_1478" data-name="Group 1478" transform="translate(4.181 9.048)">
                  <g id="Group_1477" data-name="Group 1477">
                    <g id="Group_1476" data-name="Group 1476">
                      <path id="Path_658" data-name="Path 658" d="M431.932,454c-.016.027-.2-.062-.421-.2s-.377-.267-.361-.293.2.062.421.2S431.948,453.971,431.932,454Z" transform="translate(-431.149 -453.501)" fill="#263238"/>
                    </g>
                  </g>
                </g>
                <g id="Group_1481" data-name="Group 1481" transform="translate(4.723 8.62)">
                  <g id="Group_1480" data-name="Group 1480">
                    <g id="Group_1479" data-name="Group 1479">
                      <path id="Path_659" data-name="Path 659" d="M432.773,453.05c-.009.03-.185,0-.393-.057s-.369-.136-.361-.166.185,0,.393.057S432.782,453.02,432.773,453.05Z" transform="translate(-432.019 -452.814)" fill="#263238"/>
                    </g>
                  </g>
                </g>
                <g id="Group_1484" data-name="Group 1484" transform="translate(4.65 7.845)">
                  <g id="Group_1483" data-name="Group 1483">
                    <g id="Group_1482" data-name="Group 1482">
                      <path id="Path_660" data-name="Path 660" d="M432.782,451.576c.014.028-.172.148-.415.266a1.1,1.1,0,0,1-.464.164c-.014-.028.172-.147.415-.266A1.108,1.108,0,0,1,432.782,451.576Z" transform="translate(-431.902 -451.57)" fill="#263238"/>
                    </g>
                  </g>
                </g>
                <g id="Group_1487" data-name="Group 1487" transform="translate(4.446 7.215)">
                  <g id="Group_1486" data-name="Group 1486">
                    <g id="Group_1485" data-name="Group 1485">
                      <path id="Path_661" data-name="Path 661" d="M432.539,450.561c.021.021-.148.22-.425.378a.946.946,0,0,1-.54.174,42.836,42.836,0,0,0,.965-.552Z" transform="translate(-431.574 -450.558)" fill="#263238"/>
                    </g>
                  </g>
                </g>
                <g id="Group_1490" data-name="Group 1490" transform="translate(2.482 8.589)">
                  <g id="Group_1489" data-name="Group 1489">
                    <g id="Group_1488" data-name="Group 1488">
                      <path id="Path_662" data-name="Path 662" d="M430.264,453.118a1.726,1.726,0,0,1-.545.255,3.544,3.544,0,0,1-.639.148,1.757,1.757,0,0,1-.4.021.327.327,0,0,1-.215-.1.238.238,0,0,1-.021-.256,1.1,1.1,0,0,1,1.372-.3,1.086,1.086,0,0,1,.35.278c.066.083.09.136.084.14a1.72,1.72,0,0,0-.468-.346,1.09,1.09,0,0,0-.608-.081.93.93,0,0,0-.626.352c-.056.1.026.19.149.2a1.74,1.74,0,0,0,.368-.015,4.1,4.1,0,0,0,.629-.12C430.049,453.2,430.256,453.1,430.264,453.118Z" transform="translate(-428.42 -452.764)" fill="#263238"/>
                    </g>
                  </g>
                </g>
                <g id="Group_1493" data-name="Group 1493" transform="translate(3.904 7.719)">
                  <g id="Group_1492" data-name="Group 1492">
                    <g id="Group_1491" data-name="Group 1491">
                      <path id="Path_663" data-name="Path 663" d="M431,452.685a.6.6,0,0,1-.242-.347.993.993,0,0,1-.04-.468.6.6,0,0,1,.321-.492.24.24,0,0,1,.287.171.651.651,0,0,1,.023.287,1.826,1.826,0,0,1-.1.451.869.869,0,0,1-.206.368c-.016-.009.062-.149.13-.392a2.114,2.114,0,0,0,.073-.435c.02-.151-.027-.381-.176-.341s-.217.253-.248.4a.983.983,0,0,0,.014.426A2.178,2.178,0,0,0,431,452.685Z" transform="translate(-430.704 -451.368)" fill="#263238"/>
                    </g>
                  </g>
                </g>
                <g id="Group_1496" data-name="Group 1496" transform="translate(10.982 4.11)">
                  <g id="Group_1495" data-name="Group 1495">
                    <g id="Group_1494" data-name="Group 1494">
                      <path id="Path_664" data-name="Path 664" d="M444.171,445.572c.007.02-.253.092-.615.319a2.935,2.935,0,0,0-1.375,2.82c.044.424.147.673.127.68a.527.527,0,0,1-.082-.171,2.482,2.482,0,0,1-.125-.5,2.846,2.846,0,0,1,1.413-2.9,2.479,2.479,0,0,1,.471-.209A.56.56,0,0,1,444.171,445.572Z" transform="translate(-442.072 -445.57)" fill="#263238"/>
                    </g>
                  </g>
                </g>
                <g id="Group_1499" data-name="Group 1499" transform="translate(10.528 1.009)">
                  <g id="Group_1498" data-name="Group 1498">
                    <g id="Group_1497" data-name="Group 1497">
                      <path id="Path_665" data-name="Path 665" d="M441.345,440.59a32.73,32.73,0,0,1,1.7,3.455,32.886,32.886,0,0,1-1.7-3.455Z" transform="translate(-441.344 -440.59)" fill="#263238"/>
                    </g>
                  </g>
                </g>
                <g id="Group_1502" data-name="Group 1502" transform="translate(7.312 7.665)">
                  <g id="Group_1501" data-name="Group 1501">
                    <g id="Group_1500" data-name="Group 1500">
                      <path id="Path_666" data-name="Path 666" d="M438.637,451.283a7.7,7.7,0,0,1-2.46,1.2c-.011-.031.557-.26,1.234-.591S438.62,451.255,438.637,451.283Z" transform="translate(-436.177 -451.281)" fill="#263238"/>
                    </g>
                  </g>
                </g>
                <g id="Group_1505" data-name="Group 1505" transform="translate(11.329 6.875)">
                  <g id="Group_1504" data-name="Group 1504">
                    <g id="Group_1503" data-name="Group 1503">
                      <path id="Path_667" data-name="Path 667" d="M442.729,450.013c.03.011.011.139.014.292s.027.281,0,.293-.107-.113-.11-.29S442.7,450,442.729,450.013Z" transform="translate(-442.63 -450.012)" fill="#263238"/>
                    </g>
                  </g>
                </g>
                <g id="Group_1508" data-name="Group 1508" transform="translate(11.503 5.801)">
                  <g id="Group_1507" data-name="Group 1507">
                    <g id="Group_1506" data-name="Group 1506">
                      <path id="Path_668" data-name="Path 668" d="M443.09,448.287c.029.011.017.125-.029.255s-.106.227-.136.217-.017-.125.029-.255S443.06,448.277,443.09,448.287Z" transform="translate(-442.91 -448.286)" fill="#263238"/>
                    </g>
                  </g>
                </g>
                <g id="Group_1511" data-name="Group 1511" transform="translate(11.993 5.006)">
                  <g id="Group_1510" data-name="Group 1510">
                    <g id="Group_1509" data-name="Group 1509">
                      <path id="Path_669" data-name="Path 669" d="M444.112,447.024c.007.032-.105.084-.209.187s-.161.211-.193.2-.016-.159.114-.284S444.108,446.995,444.112,447.024Z" transform="translate(-443.697 -447.01)" fill="#263238"/>
                    </g>
                  </g>
                </g>
                <g id="Group_1514" data-name="Group 1514" transform="translate(12.749 4.544)">
                  <g id="Group_1513" data-name="Group 1513">
                    <g id="Group_1512" data-name="Group 1512">
                      <path id="Path_670" data-name="Path 670" d="M445.126,446.274c.023.022,0,.088-.062.149s-.122.092-.145.07,0-.088.062-.149S445.1,446.252,445.126,446.274Z" transform="translate(-444.911 -446.267)" fill="#263238"/>
                    </g>
                  </g>
                </g>
              </g>
            </g>
            <g id="Group_1523" data-name="Group 1523" transform="translate(41.015 76.749)">
              <g id="Group_1518" data-name="Group 1518" transform="translate(38.669 16.391)">
                <path id="Path_671" data-name="Path 671" d="M421.008,388.16l-13.725,6.367-24.6-43.852c-3.208-11.568-6.3-52.293-6.3-52.293l17.795,1.359s2.741,29.236,7.047,44.3Z" transform="translate(-376.382 -298.382)" fill="#263238"/>
                <g id="Group_1517" data-name="Group 1517" transform="translate(28.737 85.377)">
                  <path id="Path_672" data-name="Path 672" d="M422.54,441.991a2.2,2.2,0,0,1,.519-.311c.344-.181.846-.434,1.469-.74,1.247-.612,2.979-1.437,4.9-2.332s3.67-1.687,4.942-2.246c.636-.28,1.152-.5,1.513-.647a2.168,2.168,0,0,1,.572-.2,2.212,2.212,0,0,1-.52.312c-.344.181-.847.434-1.47.74-1.247.612-2.978,1.438-4.9,2.331s-3.668,1.686-4.94,2.245c-.636.28-1.152.5-1.513.647A2.187,2.187,0,0,1,422.54,441.991Z" transform="translate(-422.539 -435.515)" fill="#455a64"/>
                </g>
              </g>
              <g id="Group_1522" data-name="Group 1522">
                <path id="Path_673" data-name="Path 673" d="M378.86,272.055c.331.018,3.974,10.788.469,17.937-.352.719-3.1,4.662-3.1,4.662-9.7,11.441-19.521,33.633-22.264,39.463-5.628,11.959-26.369,51.3-26.369,51.3l-13.322-7.629,19.479-50.083,17.679-45.2Z" transform="translate(-314.272 -272.055)" fill="#263238"/>
                <g id="Group_1519" data-name="Group 1519" transform="translate(26.566 43.4)">
                  <path id="Path_674" data-name="Path 674" d="M371.931,344.635s-.939,4.557-1.429,4.291c-1.387-.751-10.928-4.308-10.928-4.308l2.576-2.854Z" transform="translate(-357.936 -341.764)" fill="#455a64"/>
                  <path id="Path_675" data-name="Path 675" d="M368.121,350.172s-1.787,7.341-4.085,6.939-7.093-2.808-7.093-2.808l2.893-7.246Z" transform="translate(-356.943 -343.761)" fill="#455a64"/>
                  <path id="Path_676" data-name="Path 676" d="M370.668,350.686l-10.652-4.259.513,1.562,8.437,3.09Z" transform="translate(-358.103 -343.524)" fill="#263238"/>
                </g>
                <g id="Group_1520" data-name="Group 1520" transform="translate(42.456 28.357)">
                  <path id="Path_677" data-name="Path 677" d="M397.634,317.6a1.215,1.215,0,0,1-.175.273l-.55.741c-.473.646-1.141,1.593-1.921,2.795-1.561,2.4-3.533,5.838-5.54,9.723s-3.718,7.462-4.953,10.051l-1.459,3.068-.408.83a1.23,1.23,0,0,1-.162.28,1.2,1.2,0,0,1,.1-.307l.352-.855c.311-.74.777-1.8,1.366-3.113,1.182-2.615,2.851-6.215,4.874-10.1a99.3,99.3,0,0,1,5.637-9.7c.807-1.19,1.507-2.12,2.012-2.745l.6-.706A1.249,1.249,0,0,1,397.634,317.6Z" transform="translate(-382.465 -317.602)" fill="#455a64"/>
                </g>
                <g id="Group_1521" data-name="Group 1521" transform="translate(0.994 103.402)">
                  <path id="Path_678" data-name="Path 678" d="M315.87,438.143c.04-.08,3.184,1.416,7.021,3.342s6.917,3.552,6.877,3.632-3.184-1.416-7.023-3.342S315.829,438.223,315.87,438.143Z" transform="translate(-315.869 -438.14)" fill="#455a64"/>
                </g>
              </g>
            </g>
            <g id="Group_1531" data-name="Group 1531" transform="translate(0 13.029)">
              <g id="Group_1524" data-name="Group 1524" transform="translate(52.649 37.931)">
                <path id="Path_679" data-name="Path 679" d="M338.151,230.633a44.272,44.272,0,0,1-2.452,4.75,44.283,44.283,0,0,1-2.736,4.593,87.947,87.947,0,0,1,5.189-9.344Z" transform="translate(-332.959 -230.632)" fill="#263238"/>
              </g>
              <g id="Group_1528" data-name="Group 1528" transform="translate(50.971 18.952)">
                <g id="Group_1527" data-name="Group 1527">
                  <g id="Group_1526" data-name="Group 1526" transform="translate(0 0.033)">
                    <g id="Group_1525" data-name="Group 1525">
                      <path id="Path_680" data-name="Path 680" d="M362.305,200.2c.727-.006,1.6,5.291,2.33,14.8.832,10.783.761,21.665-2.224,28.509a5.915,5.915,0,0,1-3.131,3.314c-7.719,3.188-29.016-19.644-29.016-19.644l5.239-9.2,15,12.106s1.5-12.249,1.21-17.895C351.5,207.909,355.772,200.25,362.305,200.2Z" transform="translate(-330.264 -200.201)" fill="#455a64"/>
                    </g>
                  </g>
                  <path id="Path_681" data-name="Path 681" d="M383.035,200.288s13.026,1.9,16.393,7.024,1.666,50.255,1.666,50.255l-33.487,1.98s2.7-57.456,4.369-58.11C376.125,199.807,382.54,200.121,383.035,200.288Z" transform="translate(-344.358 -200.148)" fill="#455a64"/>
                </g>
              </g>
              <g id="Group_1529" data-name="Group 1529">
                <path id="Path_682" data-name="Path 682" d="M284.441,176.91a8.018,8.018,0,0,1,.742-3.984,4.01,4.01,0,0,0,.4-1.7v-1.516H266.061a3,3,0,0,0-3,3v19.437h-1.316a4.051,4.051,0,0,1-1.761-.422,8.091,8.091,0,1,0-.243,14.7,4.041,4.041,0,0,1,1.632-.36h1.689V225.01a3,3,0,0,0,3,3h52.725a2.441,2.441,0,0,0,2.441-2.441V172.148a2.441,2.441,0,0,0-2.441-2.441H299.733v2.162a3.884,3.884,0,0,0,.286,1.457,8.082,8.082,0,0,1-7.836,11.1A8.156,8.156,0,0,1,284.441,176.91Z" transform="translate(-248.394 -169.707)" fill="#e8505b"/>
              </g>
              <g id="Group_1530" data-name="Group 1530" transform="translate(75.085 28.691)">
                <path id="Path_683" data-name="Path 683" d="M370.4,215.791a1.638,1.638,0,0,1,.032.375c.008.281.017.638.029,1.076.011.978.027,2.32.046,3.959.018,3.343.057,7.962-.045,13.064s-.39,9.722-.733,13.049c-.173,1.664-.344,3.007-.481,3.932-.069.434-.125.786-.169,1.064a1.641,1.641,0,0,1-.081.368,1.612,1.612,0,0,1,.016-.377c.028-.28.064-.634.108-1.071.1-.929.234-2.274.378-3.938.283-3.328.54-7.937.636-13.035s.1-9.714.14-13.057c.024-1.639.044-2.982.057-3.959.013-.439.024-.8.032-1.076A1.623,1.623,0,0,1,370.4,215.791Z" transform="translate(-368.996 -215.791)" fill="#263238"/>
              </g>
            </g>
            <g id="Group_1554" data-name="Group 1554" transform="translate(77.498)">
              <g id="Group_1551" data-name="Group 1551" transform="translate(0.458 7.065)">
                <path id="Path_684" data-name="Path 684" d="M400.675,166.186c-.539,3.4-.509,6.385,1.155,8.6a12.94,12.94,0,0,1,1,1.345,2.05,2.05,0,0,1,.259,1.607,1.423,1.423,0,0,1-2.432.491,1.962,1.962,0,0,1-.949,1.965,1.235,1.235,0,0,1-1.745-.9s.443,1.72-1.537,1.456l1.391-11.832Z" transform="translate(-382.218 -162.414)" fill="#263238"/>
                <g id="Group_1546" data-name="Group 1546">
                  <g id="Group_1545" data-name="Group 1545">
                    <g id="Group_1532" data-name="Group 1532">
                      <path id="Path_685" data-name="Path 685" d="M383.161,190.049h0a5.513,5.513,0,0,1-5.482-6.087c.186-1.769.342-3.209.342-3.209s-4.357-.677-4.411-5.034.7-14.362.7-14.362h0a15.144,15.144,0,0,1,15.215,1.913l.646.5-1.513,21.162A5.512,5.512,0,0,1,383.161,190.049Z" transform="translate(-373.608 -160.127)" fill="#ffbe9d"/>
                    </g>
                    <g id="Group_1536" data-name="Group 1536" transform="translate(0.642 7.104)">
                      <g id="Group_1533" data-name="Group 1533" transform="translate(0.159 0.894)">
                        <path id="Path_686" data-name="Path 686" d="M375.951,174.076a.632.632,0,1,0-.893-.044A.632.632,0,0,0,375.951,174.076Z" transform="translate(-374.893 -172.974)" fill="#263238"/>
                      </g>
                      <g id="Group_1535" data-name="Group 1535">
                        <g id="Group_1534" data-name="Group 1534">
                          <path id="Path_687" data-name="Path 687" d="M374.647,172.157c.068.075.5-.254,1.1-.257s1.035.308,1.1.23c.032-.034-.035-.171-.226-.315a1.478,1.478,0,0,0-1.754.021C374.679,171.986,374.614,172.124,374.647,172.157Z" transform="translate(-374.639 -171.538)" fill="#263238"/>
                        </g>
                      </g>
                    </g>
                    <g id="Group_1540" data-name="Group 1540" transform="translate(7.16 7.633)">
                      <g id="Group_1537" data-name="Group 1537" transform="translate(0.103 0.902)">
                        <path id="Path_688" data-name="Path 688" d="M385.574,173.929a.633.633,0,1,0,.87.208A.633.633,0,0,0,385.574,173.929Z" transform="translate(-385.273 -173.835)" fill="#263238"/>
                      </g>
                      <g id="Group_1539" data-name="Group 1539">
                        <g id="Group_1538" data-name="Group 1538">
                          <path id="Path_689" data-name="Path 689" d="M385.116,173.006c.068.076.5-.253,1.1-.257s1.035.308,1.1.23c.032-.034-.035-.171-.226-.315a1.478,1.478,0,0,0-1.754.021C385.148,172.835,385.083,172.973,385.116,173.006Z" transform="translate(-385.108 -172.387)" fill="#263238"/>
                        </g>
                      </g>
                    </g>
                    <g id="Group_1542" data-name="Group 1542" transform="translate(3.204 7.985)">
                      <g id="Group_1541" data-name="Group 1541">
                        <path id="Path_690" data-name="Path 690" d="M380.312,178.17a2.912,2.912,0,0,0-.97-.205c-.157-.017-.28-.053-.291-.137a.848.848,0,0,1,.112-.45l.474-1.22a16.691,16.691,0,0,0,1.027-3.205,16.7,16.7,0,0,0-1.347,3.085l-.449,1.228a1,1,0,0,0-.085.652.41.41,0,0,0,.27.251,1.032,1.032,0,0,0,.268.035A2.923,2.923,0,0,0,380.312,178.17Z" transform="translate(-378.754 -172.953)" fill="#263238"/>
                      </g>
                    </g>
                    <g id="Group_1543" data-name="Group 1543" transform="translate(3.769 13.798)">
                      <path id="Path_691" data-name="Path 691" d="M382.6,182.357c.625-.372-1.721.915-2.943.855a1.658,1.658,0,0,0,1.957.66C382.922,183.395,382.6,182.357,382.6,182.357Z" transform="translate(-379.661 -182.289)" fill="#fff"/>
                    </g>
                    <g id="Group_1544" data-name="Group 1544" transform="translate(4.397 18.949)">
                      <path id="Path_692" data-name="Path 692" d="M380.68,192.177a10.129,10.129,0,0,0,5.68-1.614s-1.342,3.136-5.69,2.743Z" transform="translate(-380.67 -190.563)" fill="#eb996e"/>
                    </g>
                  </g>
                </g>
                <g id="Group_1550" data-name="Group 1550" transform="translate(15.248 7.844)">
                  <g id="Group_1547" data-name="Group 1547">
                    <path id="Path_693" data-name="Path 693" d="M399.426,172.738c.1-.03,3.247-.243,2.724,3.43s-4.06,1.93-4.051,1.824S399.426,172.738,399.426,172.738Z" transform="translate(-398.099 -172.725)" fill="#ffbe9d"/>
                  </g>
                  <g id="Group_1549" data-name="Group 1549" transform="translate(1.304 1.324)">
                    <g id="Group_1548" data-name="Group 1548">
                      <path id="Path_694" data-name="Path 694" d="M400.2,177.665c.017-.009.057.054.159.119a.647.647,0,0,0,.476.078,1.6,1.6,0,0,0,.935-1.316,2.13,2.13,0,0,0-.049-.942.748.748,0,0,0-.412-.56.329.329,0,0,0-.4.122c-.064.1-.051.172-.072.176s-.07-.073-.019-.22a.413.413,0,0,1,.177-.209.491.491,0,0,1,.367-.044.91.91,0,0,1,.588.665,2.2,2.2,0,0,1,.076,1.055,1.679,1.679,0,0,1-1.159,1.454.694.694,0,0,1-.572-.181C400.193,177.755,400.185,177.67,400.2,177.665Z" transform="translate(-400.194 -174.852)" fill="#eb996e"/>
                    </g>
                  </g>
                </g>
              </g>
              <path id="Path_695" data-name="Path 695" d="M372.9,156.655a1.43,1.43,0,0,1,1.63-1.17,1.634,1.634,0,1,1,1.086-2.967,4.83,4.83,0,0,1-1.149-1.64,1.65,1.65,0,0,1,.422-1.838,1.833,1.833,0,0,1,1.885,0c.9.451,1.577,1.274,2.5,1.662a10.539,10.539,0,0,0,3.006.4,5.373,5.373,0,0,1,3.058,1.273,3.6,3.6,0,0,1,1.217,3.006,5.663,5.663,0,0,1,3.946.852,3.172,3.172,0,0,1,1.2-2.96,4.023,4.023,0,0,1,3.916-.383,2.266,2.266,0,0,1,1.353,1.256,2.332,2.332,0,0,1-.916,2.329,5.244,5.244,0,0,1-4.578,1.1,4.772,4.772,0,0,1,.314,2.038c-.071,1.2-1.036,2.449-1.459,3.577h0l-.093.741-.72,3.079-1.931-.156.525-6.474s.362-2.717-2-2.623-5.72,2.546-10.254,1.6a4.98,4.98,0,0,1-2.094-.743A2.108,2.108,0,0,1,372.9,156.655Z" transform="translate(-372.872 -148.78)" fill="#263238"/>
              <g id="Group_1552" data-name="Group 1552" transform="translate(18.229 7.199)">
                <path id="Path_696" data-name="Path 696" d="M409.328,163.856a2.7,2.7,0,0,1-1.255.537,4.925,4.925,0,0,1-5.566-2.73,2.7,2.7,0,0,1-.344-1.321c.055-.013.153.5.548,1.217a5.064,5.064,0,0,0,5.319,2.609C408.839,164.041,409.3,163.8,409.328,163.856Z" transform="translate(-402.152 -160.343)" fill="#263238"/>
              </g>
              <g id="Group_1553" data-name="Group 1553" transform="translate(18.321 8.228)">
                <path id="Path_697" data-name="Path 697" d="M404.762,168.072c-.054-.008,0-.381-.113-.956a6.639,6.639,0,0,0-.906-2.1,17.084,17.084,0,0,1-1.179-2.055,1.966,1.966,0,0,1-.252-.96,6.781,6.781,0,0,1,.458.859c.28.526.76,1.2,1.251,1.988a5.526,5.526,0,0,1,.855,2.239A1.587,1.587,0,0,1,404.762,168.072Z" transform="translate(-402.299 -161.995)" fill="#263238"/>
              </g>
            </g>
          </g>
          <g id="Group_1556" data-name="Group 1556" transform="translate(57.612 37.037)">
            <path id="Path_698" data-name="Path 698" d="M349.344,221.552a69.532,69.532,0,0,1-6.273-4.3c-2.409-2.04-2.234-2.264-1.955-2.512.751-.664,4.371,3.424,4.089,2.082s-4.994-4.471-4.181-5.133c1.058-.862,4.771,3.489,5.111,3.833s.837-.149.514-.443c-.466-.423-5.248-4.986-4.217-5.843.572-.475,1.307.658,1.307.658s4.168,4.607,4.642,4.186-1.878-3.217-2.737-4.1-.791-1.642-.1-1.707c.47-.045,3.167,2.6,4,3.49s3.066,3.386,2.938,1.236.563-3.851,1.062-4.178,1.124.266.888.89a8.05,8.05,0,0,0-.274,2.153,5.266,5.266,0,0,0,.235,1.725c.152.482.3.9.441,1.279l1.464,4.027-3.672,4.652Z" transform="translate(-340.93 -208.269)" fill="#ffbe9d"/>
          </g>
          <g id="Group_1566" data-name="Group 1566" transform="translate(65.294 35.998)">
            <g id="Group_1565" data-name="Group 1565">
              <g id="Group_1564" data-name="Group 1564">
                <g id="Group_1558" data-name="Group 1558" transform="translate(0 0.055)">
                  <g id="Group_1557" data-name="Group 1557">
                    <path id="Path_699" data-name="Path 699" d="M390.24,207.106c.771.192,5.365,2.57,5.438,12.986.058,8.28-.58,26.661-6.231,29.4a10.319,10.319,0,0,1-9.816-.964c-9.513-6.15-26.363-25.96-26.363-25.96l7.541-8.033s19.575,19.92,20.409,19.189c1.26-1.1-.669-10.618.4-20.022C382.38,207.013,385.457,205.915,390.24,207.106Z" transform="translate(-353.269 -206.687)" fill="#455a64"/>
                  </g>
                </g>
                <g id="Group_1559" data-name="Group 1559" transform="translate(0.064 8.186)">
                  <path id="Path_700" data-name="Path 700" d="M360.844,219.748a.857.857,0,0,1-.13.141l-.4.392c-.355.347-.881.857-1.54,1.539a53.076,53.076,0,0,0-5.166,6.225l-.011-.139,21.684,22.079a17.062,17.062,0,0,0,7.226,4.079,8.755,8.755,0,0,0,3.917.176,7.558,7.558,0,0,0,3.34-1.687,13.031,13.031,0,0,0,3.692-5.908,31.794,31.794,0,0,0,1.194-6.065c.51-3.764.771-6.827.892-8.947.063-1.06.095-1.884.117-2.443l.027-.636a1.128,1.128,0,0,1,.02-.217,1.077,1.077,0,0,1,.013.217c0,.16,0,.37.006.636,0,.56-.013,1.386-.057,2.448-.082,2.125-.309,5.2-.791,8.971a31.539,31.539,0,0,1-1.166,6.119,13.253,13.253,0,0,1-3.755,6.051,7.836,7.836,0,0,1-3.47,1.762,9.038,9.038,0,0,1-4.056-.171,17.32,17.32,0,0,1-7.371-4.151c-8.641-8.782-16.338-16.728-21.619-22.163l-.064-.066.054-.074a49.888,49.888,0,0,1,5.258-6.182c.674-.671,1.214-1.168,1.583-1.5l.425-.37A.951.951,0,0,1,360.844,219.748Z" transform="translate(-353.372 -219.748)" fill="#263238"/>
                </g>
                <g id="Group_1560" data-name="Group 1560" transform="translate(7.54)">
                  <path id="Path_701" data-name="Path 701" d="M365.38,214.5s.04.027.108.092l.293.289,1.11,1.129c.966.981,2.38,2.389,4.156,4.118s3.916,3.773,6.329,6.031l3.815,3.531c1.339,1.205,2.719,2.5,4.2,3.7l-.257.123c.043-.731.088-1.512.134-2.3.245-4.114.479-8.032.692-11.6.128-1.781.157-3.48.35-5.068a12.475,12.475,0,0,1,1.208-4.27,7.224,7.224,0,0,1,2.392-2.767,5.6,5.6,0,0,1,2.614-.892,4.407,4.407,0,0,1,1.734.211,2.342,2.342,0,0,1,.555.252c-.008.019-.193-.083-.574-.189a4.619,4.619,0,0,0-1.7-.148,5.554,5.554,0,0,0-2.525.917,7.087,7.087,0,0,0-2.287,2.719,12.343,12.343,0,0,0-1.146,4.2c-.179,1.568-.2,3.268-.318,5.05-.2,3.569-.43,7.487-.666,11.6-.047.788-.092,1.568-.135,2.3l-.019.316-.238-.192c-1.522-1.228-2.876-2.51-4.22-3.727l-3.8-3.549c-2.4-2.272-4.528-4.336-6.285-6.086s-3.148-3.184-4.088-4.192c-.474-.5-.826-.9-1.068-1.17l-.27-.31A.488.488,0,0,1,365.38,214.5Z" transform="translate(-365.379 -206.599)" fill="#263238"/>
                </g>
                <g id="Group_1561" data-name="Group 1561" transform="translate(3.327 10.844)">
                  <path id="Path_702" data-name="Path 702" d="M358.616,232.432a7.873,7.873,0,0,1,.953-1.332c.623-.8,1.51-1.872,2.521-3.035s1.956-2.19,2.656-2.919a7.943,7.943,0,0,1,1.187-1.128,8.47,8.47,0,0,1-1.017,1.283l-2.581,2.977-2.59,2.968A8.59,8.59,0,0,1,358.616,232.432Z" transform="translate(-358.613 -224.017)" fill="#263238"/>
                </g>
                <g id="Group_1562" data-name="Group 1562" transform="translate(27.444 26.8)">
                  <path id="Path_703" data-name="Path 703" d="M399.153,254.43a61.031,61.031,0,0,1-1.792-4.784,12.2,12.2,0,0,1,1.792,4.784Z" transform="translate(-397.351 -249.645)" fill="#263238"/>
                </g>
                <g id="Group_1563" data-name="Group 1563" transform="translate(27.149 26.796)">
                  <path id="Path_704" data-name="Path 704" d="M400.671,253.1a20.363,20.363,0,0,1-3.791-3.456,20.363,20.363,0,0,1,3.791,3.456Z" transform="translate(-396.877 -249.64)" fill="#263238"/>
                </g>
              </g>
            </g>
          </g>
        </g>
      </g>
      <g id="Character_1" data-name="Character 1" transform="translate(58.49 148.779)">
        <g id="Group_1710" data-name="Group 1710">
          <g id="Group_1604" data-name="Group 1604" transform="translate(0 148.33)">
            <g id="Group_1569" data-name="Group 1569" transform="translate(2.532)">
              <g id="Group_1568" data-name="Group 1568">
                <path id="Path_705" data-name="Path 705" d="M88.037,397.7l-20,18.051-5.482-7.01,17.527-21.71Z" transform="translate(-62.557 -387.03)" fill="#ffbe9d"/>
              </g>
            </g>
            <g id="Group_1603" data-name="Group 1603" transform="translate(0 21.024)">
              <g id="Group_1602" data-name="Group 1602">
                <g id="Group_1572" data-name="Group 1572">
                  <g id="Group_1570" data-name="Group 1570">
                    <path id="Path_706" data-name="Path 706" d="M66.961,429.172l.689-.605L61.337,420.8l-2.847,2.49.379.489c1.7,2.16,8.806,10.861,10.437,11.869C71.125,436.77,66.961,429.172,66.961,429.172Z" transform="translate(-58.49 -420.798)" fill="#e8505b"/>
                  </g>
                  <g id="Group_1571" data-name="Group 1571" transform="translate(0.113 0.566)" opacity="0.5">
                    <path id="Path_707" data-name="Path 707" d="M61,426.285a3.456,3.456,0,0,0,.751-2.356,3.354,3.354,0,0,0-1-2.222l-2.087,1.838Z" transform="translate(-58.672 -421.707)" fill="#fff"/>
                  </g>
                </g>
                <g id="Group_1573" data-name="Group 1573" transform="translate(0 2.355)">
                  <path id="Path_708" data-name="Path 708" d="M68.885,434.41s1.319,2.787.708,2.833-8.12-8.477-11.1-12.526l.177-.135L67.342,434.6S68.484,433.991,68.885,434.41Z" transform="translate(-58.49 -424.581)" fill="#fff" opacity="0.5"/>
                </g>
                <g id="Group_1575" data-name="Group 1575" transform="translate(0.079 2.234)">
                  <g id="Group_1574" data-name="Group 1574">
                    <path id="Path_709" data-name="Path 709" d="M58.617,424.386a.841.841,0,0,0,.1.141l.3.388,1.137,1.408c.969,1.182,2.328,2.8,3.868,4.549s2.97,3.306,4.02,4.417l1.251,1.307.347.349a.969.969,0,0,0,.126.116.859.859,0,0,0-.109-.133l-.33-.365-1.223-1.333c-1.033-1.126-2.451-2.688-3.991-4.438s-2.909-3.356-3.894-4.524l-1.166-1.383-.32-.374A.934.934,0,0,0,58.617,424.386Z" transform="translate(-58.617 -424.386)" fill="#263238"/>
                  </g>
                </g>
                <g id="Group_1577" data-name="Group 1577" transform="translate(8.733 12.009)">
                  <g id="Group_1576" data-name="Group 1576">
                    <path id="Path_710" data-name="Path 710" d="M72.518,440.549a2.626,2.626,0,0,1,1.8-.313,1.609,1.609,0,0,0-1.8.313Z" transform="translate(-72.517 -440.086)" fill="#263238"/>
                  </g>
                </g>
                <g id="Group_1579" data-name="Group 1579" transform="translate(7.911 9.111)">
                  <g id="Group_1578" data-name="Group 1578">
                    <path id="Path_711" data-name="Path 711" d="M71.2,435.606a2.038,2.038,0,0,0,.969-.153,2.018,2.018,0,0,0-.969.153Z" transform="translate(-71.197 -435.432)" fill="#263238"/>
                  </g>
                </g>
                <g id="Group_1581" data-name="Group 1581" transform="translate(7.698 8.37)">
                  <g id="Group_1580" data-name="Group 1580">
                    <path id="Path_712" data-name="Path 712" d="M70.855,434.27c0,.034.179.082.407.109s.418.021.421-.012-.178-.082-.407-.108S70.859,434.237,70.855,434.27Z" transform="translate(-70.855 -434.241)" fill="#263238"/>
                  </g>
                </g>
                <g id="Group_1583" data-name="Group 1583" transform="translate(8.063 7.393)">
                  <g id="Group_1582" data-name="Group 1582">
                    <path id="Path_713" data-name="Path 713" d="M71.444,432.675c-.026.022.106.216.293.433s.36.377.385.355-.106-.216-.294-.433S71.469,432.653,71.444,432.675Z" transform="translate(-71.441 -432.673)" fill="#263238"/>
                  </g>
                </g>
                <g id="Group_1585" data-name="Group 1585" transform="translate(8.441 6.826)">
                  <g id="Group_1584" data-name="Group 1584">
                    <path id="Path_714" data-name="Path 714" d="M72.055,431.763a1.017,1.017,0,0,0,.257.546c.2.27.436.421.456.4s-.166-.212-.359-.469S72.087,431.748,72.055,431.763Z" transform="translate(-72.049 -431.762)" fill="#263238"/>
                  </g>
                </g>
                <g id="Group_1587" data-name="Group 1587" transform="translate(8.718 8.919)">
                  <g id="Group_1586" data-name="Group 1586">
                    <path id="Path_715" data-name="Path 715" d="M72.56,435.169a1.857,1.857,0,0,0,.426.477,3.768,3.768,0,0,0,.563.411,1.858,1.858,0,0,0,.378.186.347.347,0,0,0,.253-.012.251.251,0,0,0,.128-.242,1.172,1.172,0,0,0-1.215-.862,1.149,1.149,0,0,0-.458.126c-.1.053-.144.1-.141.1a1.808,1.808,0,0,1,.6-.142,1.151,1.151,0,0,1,.627.176.99.99,0,0,1,.465.606c.011.126-.105.175-.23.135a1.923,1.923,0,0,1-.352-.168,4.453,4.453,0,0,1-.564-.381C72.737,435.338,72.575,435.156,72.56,435.169Z" transform="translate(-72.494 -435.123)" fill="#263238"/>
                  </g>
                </g>
                <g id="Group_1589" data-name="Group 1589" transform="translate(8.793 7.765)">
                  <g id="Group_1588" data-name="Group 1588">
                    <path id="Path_716" data-name="Path 716" d="M72.692,434.614a.63.63,0,0,0,.382-.238,1.039,1.039,0,0,0,.235-.44.641.641,0,0,0-.107-.615.255.255,0,0,0-.352.047.689.689,0,0,0-.142.27,1.911,1.911,0,0,0-.091.482.921.921,0,0,0,.048.446c.019,0,0-.171.037-.438a2.268,2.268,0,0,1,.111-.454c.044-.155.186-.36.314-.259a.57.57,0,0,1,.075.495,1.05,1.05,0,0,1-.192.411A2.326,2.326,0,0,1,72.692,434.614Z" transform="translate(-72.614 -433.269)" fill="#263238"/>
                  </g>
                </g>
                <g id="Group_1591" data-name="Group 1591" transform="translate(2.255 0.586)">
                  <g id="Group_1590" data-name="Group 1590">
                    <path id="Path_717" data-name="Path 717" d="M62.113,421.74c-.016.017.209.2.466.568a3.118,3.118,0,0,1,.164,3.328c-.22.4-.425.6-.408.611s.062-.039.151-.133a2.582,2.582,0,0,0,.331-.436,3.022,3.022,0,0,0-.169-3.421,2.621,2.621,0,0,0-.372-.4A.579.579,0,0,0,62.113,421.74Z" transform="translate(-62.112 -421.739)" fill="#263238"/>
                  </g>
                </g>
                <g id="Group_1593" data-name="Group 1593" transform="translate(3.991 5.448)">
                  <g id="Group_1592" data-name="Group 1592">
                    <path id="Path_718" data-name="Path 718" d="M64.9,429.55a8.157,8.157,0,0,0,1.918,2.185c.024-.026-.439-.483-.966-1.086S64.93,429.529,64.9,429.55Z" transform="translate(-64.9 -429.549)" fill="#263238"/>
                  </g>
                </g>
                <g id="Group_1595" data-name="Group 1595" transform="translate(2.454 3.977)">
                  <g id="Group_1594" data-name="Group 1594">
                    <path id="Path_719" data-name="Path 719" d="M62.691,427.186c-.034,0-.068.131-.136.279s-.143.263-.119.287.152-.065.229-.237S62.724,427.186,62.691,427.186Z" transform="translate(-62.432 -427.186)" fill="#263238"/>
                  </g>
                </g>
                <g id="Group_1597" data-name="Group 1597" transform="translate(2.833 2.821)">
                  <g id="Group_1596" data-name="Group 1596">
                    <path id="Path_720" data-name="Path 720" d="M63.121,425.329c-.034,0-.068.114-.079.26s.009.267.042.269.068-.114.079-.26S63.154,425.331,63.121,425.329Z" transform="translate(-63.04 -425.329)" fill="#263238"/>
                  </g>
                </g>
                <g id="Group_1599" data-name="Group 1599" transform="translate(2.529 1.75)">
                  <g id="Group_1598" data-name="Group 1598">
                    <path id="Path_721" data-name="Path 721" d="M62.556,423.615c-.021.027.067.126.125.27s.07.274.1.279.082-.149.007-.326S62.572,423.586,62.556,423.615Z" transform="translate(-62.553 -423.609)" fill="#263238"/>
                  </g>
                </g>
                <g id="Group_1601" data-name="Group 1601" transform="translate(2.162 1.062)">
                  <g id="Group_1600" data-name="Group 1600">
                    <path id="Path_722" data-name="Path 722" d="M61.986,422.505c-.032.012-.032.088,0,.171s.08.141.111.13.032-.088,0-.171S62.017,422.494,61.986,422.505Z" transform="translate(-61.962 -422.504)" fill="#263238"/>
                  </g>
                </g>
              </g>
            </g>
          </g>
          <g id="Group_1641" data-name="Group 1641" transform="translate(51.14 158.812)">
            <g id="Group_1606" data-name="Group 1606">
              <g id="Group_1605" data-name="Group 1605">
                <path id="Path_723" data-name="Path 723" d="M153.069,403.865l2.411,27.264H145.174l-4.543-27.264Z" transform="translate(-140.631 -403.865)" fill="#ffbe9d"/>
              </g>
            </g>
            <g id="Group_1640" data-name="Group 1640" transform="translate(4.451 26.463)">
              <g id="Group_1639" data-name="Group 1639">
                <g id="Group_1609" data-name="Group 1609" transform="translate(0.029 0.096)">
                  <g id="Group_1607" data-name="Group 1607">
                    <path id="Path_724" data-name="Path 724" d="M157.867,447.488l-.031-.916-10.01-.047.12,3.78.618.017c2.749.054,13.982.08,15.8-.542C166.383,449.087,157.867,447.488,157.867,447.488Z" transform="translate(-147.826 -446.525)" fill="#e8505b"/>
                  </g>
                  <g id="Group_1608" data-name="Group 1608" transform="translate(0.027 0.838)" opacity="0.5">
                    <path id="Path_725" data-name="Path 725" d="M151.565,450.606a3.453,3.453,0,0,0-1.345-2.074,3.351,3.351,0,0,0-2.35-.639l.1,2.779Z" transform="translate(-147.87 -447.871)" fill="#fff"/>
                  </g>
                </g>
                <g id="Group_1610" data-name="Group 1610" transform="translate(0.149 1.988)">
                  <path id="Path_726" data-name="Path 726" d="M162.106,449.563s2.992.748,2.64,1.249-11.7.9-16.727.64l.008-.223,13.245-.354S161.528,449.608,162.106,449.563Z" transform="translate(-148.019 -449.563)" fill="#fff" opacity="0.5"/>
                </g>
                <g id="Group_1612" data-name="Group 1612" transform="translate(0 3.068)">
                  <g id="Group_1611" data-name="Group 1611">
                    <path id="Path_727" data-name="Path 727" d="M147.78,451.883a.863.863,0,0,0,.172.012l.492.012,1.81.014c1.528,0,3.64-.026,5.971-.106s4.44-.2,5.964-.306l1.8-.139.49-.046a.9.9,0,0,0,.17-.024,1.012,1.012,0,0,0-.172,0l-.492.024-1.806.1c-1.525.085-3.633.19-5.964.271s-4.439.12-5.967.141l-1.809.024-.492.01A.9.9,0,0,0,147.78,451.883Z" transform="translate(-147.78 -451.297)" fill="#263238"/>
                  </g>
                </g>
                <g id="Group_1614" data-name="Group 1614" transform="translate(13.384 1.863)">
                  <g id="Group_1613" data-name="Group 1613">
                    <path id="Path_728" data-name="Path 728" d="M169.3,450.953a2.627,2.627,0,0,1,.9-1.588,1.606,1.606,0,0,0-.9,1.588Z" transform="translate(-169.277 -449.362)" fill="#263238"/>
                  </g>
                </g>
                <g id="Group_1616" data-name="Group 1616" transform="translate(10.413 1.222)">
                  <g id="Group_1615" data-name="Group 1615">
                    <path id="Path_729" data-name="Path 729" d="M164.512,449.18c.029.017.163-.159.3-.393s.225-.436.2-.453-.163.159-.3.392S164.483,449.164,164.512,449.18Z" transform="translate(-164.506 -448.333)" fill="#263238"/>
                  </g>
                </g>
                <g id="Group_1618" data-name="Group 1618" transform="translate(9.596 1.089)">
                  <g id="Group_1617" data-name="Group 1617">
                    <path id="Path_730" data-name="Path 730" d="M163.2,448.7c.023.024.176-.087.342-.247s.282-.309.258-.333-.176.087-.342.247S163.173,448.678,163.2,448.7Z" transform="translate(-163.193 -448.12)" fill="#263238"/>
                  </g>
                </g>
                <g id="Group_1620" data-name="Group 1620" transform="translate(9.057 0.677)">
                  <g id="Group_1619" data-name="Group 1619">
                    <path id="Path_731" data-name="Path 731" d="M162.327,447.532a2.267,2.267,0,1,0,.518-.073A1.166,1.166,0,0,0,162.327,447.532Z" transform="translate(-162.327 -447.458)" fill="#263238"/>
                  </g>
                </g>
                <g id="Group_1622" data-name="Group 1622" transform="translate(8.858 0.084)">
                  <g id="Group_1621" data-name="Group 1621">
                    <path id="Path_732" data-name="Path 732" d="M162.009,446.517a1.461,1.461,0,0,0,1.18.047,3.218,3.218,0,0,0-.59-.02A3.177,3.177,0,0,0,162.009,446.517Z" transform="translate(-162.008 -446.505)" fill="#263238"/>
                  </g>
                </g>
                <g id="Group_1624" data-name="Group 1624" transform="translate(10.725 0.25)">
                  <g id="Group_1623" data-name="Group 1623">
                    <path id="Path_733" data-name="Path 733" d="M165.007,447.712a1.847,1.847,0,0,0,.639-.026,3.758,3.758,0,0,0,.675-.174,1.889,1.889,0,0,0,.384-.174.35.35,0,0,0,.151-.2.252.252,0,0,0-.106-.252,1.172,1.172,0,0,0-1.437.394,1.141,1.141,0,0,0-.194.433.358.358,0,0,0-.011.173,1.811,1.811,0,0,1,.272-.555,1.154,1.154,0,0,1,.533-.374.993.993,0,0,1,.763.025c.1.072.069.192-.041.263a1.915,1.915,0,0,1-.354.166,4.385,4.385,0,0,1-.652.194C165.25,447.683,165.006,447.692,165.007,447.712Z" transform="translate(-165.007 -446.773)" fill="#263238"/>
                  </g>
                </g>
                <g id="Group_1626" data-name="Group 1626" transform="translate(10.023)">
                  <g id="Group_1625" data-name="Group 1625">
                    <path id="Path_734" data-name="Path 734" d="M164.748,447.586a.631.631,0,0,0,.058-.446,1.049,1.049,0,0,0-.191-.461.643.643,0,0,0-.544-.307.254.254,0,0,0-.187.3.7.7,0,0,0,.119.282,1.929,1.929,0,0,0,.315.376.917.917,0,0,0,.375.245c.011-.016-.131-.11-.314-.306a2.249,2.249,0,0,1-.281-.374c-.092-.132-.161-.372,0-.407s.328.132.43.257a1.053,1.053,0,0,1,.2.409A2.3,2.3,0,0,1,164.748,447.586Z" transform="translate(-163.879 -446.37)" fill="#263238"/>
                  </g>
                </g>
                <g id="Group_1628" data-name="Group 1628" transform="translate(0.107 0.838)">
                  <g id="Group_1627" data-name="Group 1627">
                    <path id="Path_735" data-name="Path 735" d="M147.952,447.8c0,.022.284-.037.735,0a3.117,3.117,0,0,1,2.678,1.984c.167.422.191.707.214.7a.558.558,0,0,0-.007-.2,2.6,2.6,0,0,0-.127-.532,3.023,3.023,0,0,0-2.752-2.04,2.572,2.572,0,0,0-.546.034A.562.562,0,0,0,147.952,447.8Z" transform="translate(-147.952 -447.717)" fill="#263238"/>
                  </g>
                </g>
                <g id="Group_1630" data-name="Group 1630" transform="translate(4.968 2.56)">
                  <g id="Group_1629" data-name="Group 1629">
                    <path id="Path_736" data-name="Path 736" d="M155.759,450.589a8.166,8.166,0,0,0,2.906-.1c0-.034-.652.033-1.453.058S155.761,450.553,155.759,450.589Z" transform="translate(-155.759 -450.482)" fill="#263238"/>
                  </g>
                </g>
                <g id="Group_1632" data-name="Group 1632" transform="translate(3.015 2.717)">
                  <g id="Group_1631" data-name="Group 1631">
                    <path id="Path_737" data-name="Path 737" d="M152.627,450.738c-.023.026.058.136.129.283s.113.278.147.274.045-.159-.039-.327S152.647,450.714,152.627,450.738Z" transform="translate(-152.623 -450.734)" fill="#263238"/>
                  </g>
                </g>
                <g id="Group_1634" data-name="Group 1634" transform="translate(2.248 1.828)">
                  <g id="Group_1633" data-name="Group 1633">
                    <path id="Path_738" data-name="Path 738" d="M151.4,449.312c-.023.024.045.125.151.226s.212.162.234.138-.045-.125-.151-.226S151.418,449.288,151.4,449.312Z" transform="translate(-151.391 -449.307)" fill="#263238"/>
                  </g>
                </g>
                <g id="Group_1636" data-name="Group 1636" transform="translate(1.186 1.39)">
                  <g id="Group_1635" data-name="Group 1635">
                    <path id="Path_739" data-name="Path 739" d="M149.686,448.666c.008.034.14.027.288.074s.256.12.281.1-.062-.158-.247-.212S149.674,448.635,149.686,448.666Z" transform="translate(-149.685 -448.603)" fill="#263238"/>
                  </g>
                </g>
                <g id="Group_1638" data-name="Group 1638" transform="translate(0.43 1.257)">
                  <g id="Group_1637" data-name="Group 1637">
                    <path id="Path_740" data-name="Path 740" d="M148.472,448.415c-.011.031.049.08.132.11s.16.027.171,0-.048-.08-.132-.11S148.483,448.383,148.472,448.415Z" transform="translate(-148.471 -448.39)" fill="#263238"/>
                  </g>
                </g>
              </g>
            </g>
          </g>
          <g id="Group_1665" data-name="Group 1665" transform="translate(14.109 73.759)">
            <g id="Group_1659" data-name="Group 1659">
              <g id="Group_1658" data-name="Group 1658">
                <g id="Group_1653" data-name="Group 1653">
                  <g id="Group_1648" data-name="Group 1648" transform="translate(1.163 0.733)">
                    <g id="Group_1644" data-name="Group 1644">
                      <g id="Group_1643" data-name="Group 1643">
                        <g id="Group_1642" data-name="Group 1642">
                          <path id="Path_741" data-name="Path 741" d="M113.217,272.738s8.062,53.561,6.89,56.149S92.82,358.214,92.82,358.214l-9.8-16.784s17.281-19.145,17.033-20.139S87.593,268.43,87.593,268.43Z" transform="translate(-83.02 -268.43)" fill="#263238"/>
                        </g>
                      </g>
                    </g>
                    <g id="Group_1647" data-name="Group 1647" transform="translate(26.478 4.308)">
                      <g id="Group_1646" data-name="Group 1646">
                        <g id="Group_1645" data-name="Group 1645">
                          <path id="Path_742" data-name="Path 742" d="M132.134,295.121c-.08-.567-6.584-15.2-6.584-15.2l3.158-4.455.56-.121Z" transform="translate(-125.55 -275.35)" fill="#263238"/>
                        </g>
                      </g>
                    </g>
                  </g>
                  <g id="Group_1652" data-name="Group 1652">
                    <g id="Group_1651" data-name="Group 1651">
                      <g id="Group_1650" data-name="Group 1650">
                        <g id="Group_1649" data-name="Group 1649">
                          <path id="Path_743" data-name="Path 743" d="M82.312,267.252l-.487,1.987A23.4,23.4,0,0,0,84.283,286.5l21.861,37.892a30.444,30.444,0,0,1,3.35,8.613l5.444,24.5h17.929s-2.217-16.79-4.191-29.068c-1.489-9.259-13.88-38-19.883-51.574l3.719-4.575-6.461-1.078Z" transform="translate(-81.153 -267.252)" fill="#263238"/>
                        </g>
                      </g>
                    </g>
                  </g>
                </g>
                <g id="Group_1655" data-name="Group 1655" transform="translate(28.109 9.513)">
                  <g id="Group_1654" data-name="Group 1654">
                    <path id="Path_744" data-name="Path 744" d="M126.307,282.533a19.8,19.8,0,0,0,.913,2.4c.6,1.465,1.42,3.488,2.295,5.736s1.634,4.3,2.184,5.781a19.847,19.847,0,0,0,.944,2.383,2.561,2.561,0,0,0-.152-.674c-.119-.427-.308-1.04-.552-1.793-.489-1.507-1.213-3.574-2.089-5.827s-1.738-4.266-2.4-5.707c-.329-.721-.6-1.3-.8-1.7A2.546,2.546,0,0,0,126.307,282.533Z" transform="translate(-126.302 -282.532)" fill="#455a64"/>
                  </g>
                </g>
                <g id="Group_1657" data-name="Group 1657" transform="translate(12.678 35.609)">
                  <g id="Group_1656" data-name="Group 1656">
                    <path id="Path_745" data-name="Path 745" d="M118.912,362.017a1.857,1.857,0,0,0-.023-.425c-.035-.316-.08-.717-.135-1.213-.055-.528-.141-1.171-.292-1.909s-.274-1.589-.52-2.506l-.355-1.446c-.133-.5-.3-1.013-.457-1.548-.3-1.076-.723-2.191-1.137-3.375a76.458,76.458,0,0,0-3.327-7.446,131.171,131.171,0,0,0-7.633-12.68c-1.055-1.573-1.926-2.832-2.536-3.7l-.71-.991a1.841,1.841,0,0,0-.268-.332,1.881,1.881,0,0,0,.208.372l.654,1.029,2.44,3.759c2.048,3.178,4.874,7.582,7.525,12.705,1.312,2.566,2.429,5.075,3.337,7.4.421,1.174.852,2.28,1.163,3.346.162.53.335,1.038.474,1.534s.256.975.376,1.433c.261.908.41,1.75.57,2.483s.275,1.369.351,1.892c.083.491.149.888.2,1.2A1.889,1.889,0,0,0,118.912,362.017Z" transform="translate(-101.516 -324.448)" fill="#455a64"/>
                  </g>
                </g>
              </g>
            </g>
            <g id="Group_1660" data-name="Group 1660" transform="translate(3.569 14.635)">
              <path id="Path_746" data-name="Path 746" d="M87.409,293.588a.9.9,0,0,1-.134-.187l-.378-.61-.012-.02.013-.024a4.123,4.123,0,0,1,2.681-1.83,6.438,6.438,0,0,1,2.484-.073,15.85,15.85,0,0,1,2.848.766,20.621,20.621,0,0,1,3.114,1.264,5.306,5.306,0,0,1,2.531,2.719,3.337,3.337,0,0,1,.124,2.014,9.936,9.936,0,0,1-.805,1.887,3.938,3.938,0,0,0-.53,1.9,2.664,2.664,0,0,0,.866,1.761c1.2,1.193,2.961,1.41,4.426,2.148a7.648,7.648,0,0,1,3.325,3.3,7.822,7.822,0,0,1,.933,4.14,7.1,7.1,0,0,1-1.172,3.507,7.968,7.968,0,0,1-4.187,3.224,6.928,6.928,0,0,1-1.424.3,2.9,2.9,0,0,1-.506.016,11.008,11.008,0,0,0,1.89-.431,7.979,7.979,0,0,0,4.035-3.228,6.9,6.9,0,0,0,1.1-3.4,7.58,7.58,0,0,0-.928-3.985,7.376,7.376,0,0,0-3.2-3.155c-.71-.353-1.5-.587-2.285-.886a6.1,6.1,0,0,1-2.229-1.316,2.981,2.981,0,0,1-.96-1.975,4.229,4.229,0,0,1,.565-2.061,9.693,9.693,0,0,0,.788-1.823,3.033,3.033,0,0,0-.106-1.832,5.029,5.029,0,0,0-2.383-2.576,20.772,20.772,0,0,0-3.06-1.272,15.91,15.91,0,0,0-2.8-.789,6.33,6.33,0,0,0-2.41.031,4.123,4.123,0,0,0-2.65,1.7v-.043l.342.631A.925.925,0,0,1,87.409,293.588Z" transform="translate(-86.885 -290.758)" fill="#fafafa"/>
            </g>
            <g id="Group_1661" data-name="Group 1661" transform="translate(35.448 39.096)">
              <path id="Path_747" data-name="Path 747" d="M152.008,364.2a5.8,5.8,0,0,0-1.482-.93,8.689,8.689,0,0,0-1.986-.524c-.8-.132-1.713-.213-2.726-.375a9.2,9.2,0,0,1-3.182-1.077,8.909,8.909,0,0,1-3.924-11.067c.588-1.464,1.48-2.734,1.726-4.151a8.041,8.041,0,0,0-.58-4.06,31.9,31.9,0,0,1-1.21-3.644,7.1,7.1,0,0,1,.013-3.359,7.553,7.553,0,0,1,2.566-4.059,5.2,5.2,0,0,1,1.529-.9,11.413,11.413,0,0,0-1.448,1,7.588,7.588,0,0,0-2.424,4.016,6.918,6.918,0,0,0,.026,3.246,32.867,32.867,0,0,0,1.23,3.6,8.28,8.28,0,0,1,.611,4.216c-.263,1.51-1.175,2.8-1.738,4.215a8.738,8.738,0,0,0,.987,8.2,8.86,8.86,0,0,0,2.769,2.511,9.06,9.06,0,0,0,3.087,1.085c1,.174,1.918.272,2.718.422a8.382,8.382,0,0,1,2.005.588,4.627,4.627,0,0,1,1.116.709A2.483,2.483,0,0,1,152.008,364.2Z" transform="translate(-138.09 -330.049)" fill="#fafafa"/>
            </g>
            <g id="Group_1662" data-name="Group 1662" transform="translate(32.528 80.566)">
              <path id="Path_748" data-name="Path 748" d="M141.856,407.2c-.064,0-.082-.81-.4-2.063a11.921,11.921,0,0,0-.781-2.124,12.146,12.146,0,0,0-3.44-4.286,11.877,11.877,0,0,0-1.905-1.221c-1.153-.586-1.944-.779-1.926-.841a1.938,1.938,0,0,1,.561.105,4.253,4.253,0,0,1,.641.2,7.231,7.231,0,0,1,.824.334,10.768,10.768,0,0,1,1.987,1.192,11.55,11.55,0,0,1,3.528,4.395,10.723,10.723,0,0,1,.733,2.2,7.063,7.063,0,0,1,.148.877,4.324,4.324,0,0,1,.054.668A1.935,1.935,0,0,1,141.856,407.2Z" transform="translate(-133.4 -396.658)" fill="#fafafa"/>
            </g>
            <g id="Group_1663" data-name="Group 1663" transform="translate(20.231 3.822)">
              <path id="Path_749" data-name="Path 749" d="M125.211,290.251a.726.726,0,0,1-.245.049,6.017,6.017,0,0,1-.712.062,9.508,9.508,0,0,1-2.615-.278,10.7,10.7,0,0,1-3.562-1.6,9.961,9.961,0,0,1-4.425-8.154,10.7,10.7,0,0,1,.6-3.857,9.505,9.505,0,0,1,1.193-2.343,5.763,5.763,0,0,1,.44-.563c.106-.125.165-.186.174-.179a13.674,13.674,0,0,0-1.589,3.159,10.883,10.883,0,0,0-.522,3.774,9.867,9.867,0,0,0,4.3,7.918,10.9,10.9,0,0,0,3.448,1.619A13.626,13.626,0,0,0,125.211,290.251Z" transform="translate(-113.649 -273.391)" fill="#fafafa"/>
            </g>
            <g id="Group_1664" data-name="Group 1664" transform="translate(4.995 55.614)">
              <path id="Path_750" data-name="Path 750" d="M100.009,356.581a1.687,1.687,0,0,1,.354.152c.226.11.553.286.963.534a11.515,11.515,0,0,1,3.046,2.668,8.114,8.114,0,0,1,1.334,2.482,6.98,6.98,0,0,1,.209,3.23,5.578,5.578,0,0,1-1.642,3.172c-.925.9-2.272,1.2-3.059,2.178a6.2,6.2,0,0,0-1.076,3.476,12.6,12.6,0,0,1-.621,3.513,4.772,4.772,0,0,1-2.178,2.386,6.843,6.843,0,0,1-2.7.807,13.089,13.089,0,0,1-4.03-.4c-.465-.109-.823-.2-1.065-.271a1.712,1.712,0,0,1-.365-.12,1.675,1.675,0,0,1,.38.057l1.076.212a13.9,13.9,0,0,0,3.982.293,6.686,6.686,0,0,0,2.592-.812,4.517,4.517,0,0,0,2.032-2.264,12.518,12.518,0,0,0,.582-3.43,12.249,12.249,0,0,1,.283-1.873,4.387,4.387,0,0,1,.862-1.782c.895-1.078,2.252-1.369,3.092-2.2a5.291,5.291,0,0,0,1.563-2.991,6.741,6.741,0,0,0-.172-3.1,7.986,7.986,0,0,0-1.259-2.422,12.083,12.083,0,0,0-2.931-2.7c-.4-.261-.712-.454-.926-.582A1.751,1.751,0,0,1,100.009,356.581Z" transform="translate(-89.175 -356.58)" fill="#fafafa"/>
            </g>
          </g>
          <path id="Path_751" data-name="Path 751" d="M102.406,149.543c-3.453-.856-7.17,1.3-8.889,4.415s-1.737,6.927-.926,10.392a9.867,9.867,0,0,1,.483,4.406c-.362,1.568-1.607,2.779-2.2,4.275-1.141,2.879.309,6.073,1.73,8.825.648,1.255,1.472,2.649,2.858,2.921,1.55.3,2.914-.936,4.219-1.825a11.106,11.106,0,0,1,7.869-1.774c3.09.481,5.928,2.269,9.055,2.322a8.472,8.472,0,0,0,7.14-3.828c.93-1.452,1.262-3.638-.091-4.707-.89-.7-2.24-.679-3.018-1.5-.943-1-.536-2.613-.047-3.9s.968-2.853.107-3.924c-.968-1.2-3.061-.976-3.981-2.216-.97-1.307.049-3.128.009-4.757a4.824,4.824,0,0,0-2.137-3.608c-1.17-.852-1.329-1.13-2.944-4.058" transform="translate(-70.558 -148.996)" fill="#263238"/>
          <g id="Group_1669" data-name="Group 1669" transform="translate(11.497 28.832)">
            <g id="Group_1666" data-name="Group 1666">
              <path id="Path_752" data-name="Path 752" d="M92.492,195.279l12.464,1.06s9.069-1.326,12.548,21.678l13.78-.562.614,9.164-18.961.933-2.233-1.342.225,18.847-31.36-2.307c.71-4.279,4.051-9.908,5.174-13.521-1.139-2.849-7.444-14.476-7.754-20.446-.848-16.347,15.5-13.506,15.5-13.506" transform="translate(-76.957 -195.09)" fill="#e8505b"/>
            </g>
            <path id="Path_753" data-name="Path 753" d="M132.97,222.48s2.2,2.467,2.24,4.59c.055,3.358-.786,5.085.262,8.755l-3,.723a4.58,4.58,0,0,1-.065-2.81c.394-1.916,1.149-4.255,1.486-6.342A7.1,7.1,0,0,0,132.97,222.48Z" transform="translate(-97.823 -205.428)" opacity="0.3"/>
            <g id="Group_1667" data-name="Group 1667" transform="translate(32.048 13.61)">
              <path id="Path_754" data-name="Path 754" d="M131.031,234.461a3.345,3.345,0,0,1-.184-.734,8.15,8.15,0,0,1,.006-2.063,20.9,20.9,0,0,1,.639-2.983,26.857,26.857,0,0,0,.823-3.6,7.043,7.043,0,0,0-.377-3.577A9.309,9.309,0,0,0,130.332,219c-1.134-1.289-1.942-2-1.9-2.046a3.209,3.209,0,0,1,.592.466,18.477,18.477,0,0,1,1.478,1.429,9.028,9.028,0,0,1,1.71,2.546,7.169,7.169,0,0,1,.423,3.731,24.536,24.536,0,0,1-.857,3.638,23.8,23.8,0,0,0-.7,2.934,9.593,9.593,0,0,0-.107,2.019A3.407,3.407,0,0,1,131.031,234.461Z" transform="translate(-128.432 -216.95)" fill="#263238"/>
            </g>
            <g id="Group_1668" data-name="Group 1668" transform="translate(16.954 20.277)" opacity="0.2">
              <path id="Path_755" data-name="Path 755" d="M122.292,238.27l-9.288.214a5.258,5.258,0,0,1-2.177-.257,5.142,5.142,0,0,1-2.155-2.273q-2.446-4.032-4.483-8.294s2.455,7.8,3.992,11.2a1.777,1.777,0,0,0,2.175,1.119A42.005,42.005,0,0,0,122.292,238.27Z" transform="translate(-104.189 -227.659)"/>
            </g>
          </g>
          <g id="Group_1670" data-name="Group 1670" transform="translate(56.186 3.127)">
            <path id="Path_756" data-name="Path 756" d="M199.834,189.849a8.024,8.024,0,0,1,3.983.742,4.013,4.013,0,0,0,1.7.4h1.517V171.47a3,3,0,0,0-3-3H184.6v-1.316a4.05,4.05,0,0,1,.423-1.761,8.092,8.092,0,1,0-14.7-.244,4.034,4.034,0,0,1,.36,1.632v1.689H151.734a3,3,0,0,0-3,3V224.2a2.44,2.44,0,0,0,2.441,2.441H204.6a2.441,2.441,0,0,0,2.441-2.441V205.141h-2.162a3.884,3.884,0,0,0-1.457.286,8.082,8.082,0,0,1-11.1-7.836A8.157,8.157,0,0,1,199.834,189.849Z" transform="translate(-148.737 -153.801)" fill="#e8505b"/>
            <path id="Path_757" data-name="Path 757" d="M199.834,189.849a8.024,8.024,0,0,1,3.983.742,4.013,4.013,0,0,0,1.7.4h1.517V171.47a3,3,0,0,0-3-3H184.6v-1.316a4.05,4.05,0,0,1,.423-1.761,8.092,8.092,0,1,0-14.7-.244,4.034,4.034,0,0,1,.36,1.632v1.689H151.734a3,3,0,0,0-3,3V224.2a2.44,2.44,0,0,0,2.441,2.441H204.6a2.441,2.441,0,0,0,2.441-2.441V205.141h-2.162a3.884,3.884,0,0,0-1.457.286,8.082,8.082,0,0,1-11.1-7.836A8.157,8.157,0,0,1,199.834,189.849Z" transform="translate(-148.737 -153.801)" fill="#fff" opacity="0.2"/>
          </g>
          <g id="Group_1701" data-name="Group 1701" transform="translate(25.428)">
            <g id="Group_1700" data-name="Group 1700" transform="translate(0.474)">
              <g id="Group_1698" data-name="Group 1698" transform="translate(0 0.866)">
                <g id="Group_1697" data-name="Group 1697">
                  <g id="Group_1673" data-name="Group 1673">
                    <g id="Group_1672" data-name="Group 1672">
                      <g id="Group_1671" data-name="Group 1671">
                        <path id="Path_758" data-name="Path 758" d="M101.056,178.759l-.961-21.977,8.727-6.611,7.933,3.879s.265,9.96,0,14.28-4.62,4.78-4.62,4.78.1,2.531.2,5.191a5.645,5.645,0,0,1-5.694,5.856h0A5.645,5.645,0,0,1,101.056,178.759Z" transform="translate(-100.095 -150.171)" fill="#ffbe9d"/>
                      </g>
                    </g>
                  </g>
                  <g id="Group_1681" data-name="Group 1681" transform="translate(14.145 9.866)">
                    <g id="Group_1676" data-name="Group 1676" transform="translate(0.544 0.719)">
                      <g id="Group_1675" data-name="Group 1675">
                        <g id="Group_1674" data-name="Group 1674">
                          <path id="Path_759" data-name="Path 759" d="M124.8,167.727a.553.553,0,1,1-.553-.553A.553.553,0,0,1,124.8,167.727Z" transform="translate(-123.69 -167.174)" fill="#263238"/>
                        </g>
                      </g>
                    </g>
                    <g id="Group_1680" data-name="Group 1680">
                      <g id="Group_1679" data-name="Group 1679">
                        <g id="Group_1678" data-name="Group 1678">
                          <g id="Group_1677" data-name="Group 1677">
                            <path id="Path_760" data-name="Path 760" d="M125,166.688c-.072.072-.479-.276-1.075-.308s-1.042.255-1.1.175c-.03-.035.044-.167.24-.3a1.468,1.468,0,0,1,1.739.106C124.979,166.517,125.036,166.657,125,166.688Z" transform="translate(-122.816 -166.019)" fill="#263238"/>
                          </g>
                        </g>
                      </g>
                    </g>
                  </g>
                  <g id="Group_1689" data-name="Group 1689" transform="translate(7.548 9.866)">
                    <g id="Group_1684" data-name="Group 1684" transform="translate(0.736 0.719)">
                      <g id="Group_1683" data-name="Group 1683">
                        <g id="Group_1682" data-name="Group 1682">
                          <path id="Path_761" data-name="Path 761" d="M114.507,167.727a.553.553,0,1,1-.553-.553A.553.553,0,0,1,114.507,167.727Z" transform="translate(-113.401 -167.174)" fill="#263238"/>
                        </g>
                      </g>
                    </g>
                    <g id="Group_1688" data-name="Group 1688">
                      <g id="Group_1687" data-name="Group 1687">
                        <g id="Group_1686" data-name="Group 1686">
                          <g id="Group_1685" data-name="Group 1685">
                            <path id="Path_762" data-name="Path 762" d="M114.4,166.688c-.072.072-.48-.276-1.075-.308s-1.042.255-1.1.175c-.031-.035.044-.167.239-.3a1.469,1.469,0,0,1,1.74.106C114.381,166.517,114.438,166.657,114.4,166.688Z" transform="translate(-112.218 -166.019)" fill="#263238"/>
                          </g>
                        </g>
                      </g>
                    </g>
                  </g>
                  <g id="Group_1692" data-name="Group 1692" transform="translate(6.32 21.005)">
                    <g id="Group_1691" data-name="Group 1691">
                      <g id="Group_1690" data-name="Group 1690">
                        <path id="Path_763" data-name="Path 763" d="M115.969,185.843a10.783,10.783,0,0,1-5.723-1.933,5.869,5.869,0,0,0,5.764,3.056Z" transform="translate(-110.246 -183.91)" fill="#eb996e"/>
                      </g>
                    </g>
                  </g>
                  <g id="Group_1696" data-name="Group 1696" transform="translate(11.778 10.371)">
                    <g id="Group_1695" data-name="Group 1695">
                      <g id="Group_1694" data-name="Group 1694">
                        <g id="Group_1693" data-name="Group 1693">
                          <path id="Path_764" data-name="Path 764" d="M119.115,172.022a4.032,4.032,0,0,1,.974-.122c.151-.007.3-.03.332-.141a.85.85,0,0,0-.085-.481q-.193-.586-.408-1.234c-.283-.877-.527-1.675-.692-2.257a3.988,3.988,0,0,1-.219-.957,4.042,4.042,0,0,1,.38.9c.206.568.475,1.358.758,2.236q.2.65.391,1.24a.962.962,0,0,1,.059.622.372.372,0,0,1-.253.214,1.011,1.011,0,0,1-.258.024A4,4,0,0,1,119.115,172.022Z" transform="translate(-119.013 -166.83)" fill="#263238"/>
                        </g>
                      </g>
                    </g>
                  </g>
                </g>
              </g>
              <path id="Path_765" data-name="Path 765" d="M118,175.981a1.4,1.4,0,0,0-.6.35.631.631,0,0,0-.147.646.657.657,0,0,0,.75.319.8.8,0,0,0,.545-.409.615.615,0,0,0-.073-.661.5.5,0,0,0-.637-.1" transform="translate(-106.558 -159.046)" fill="#eb996e"/>
              <g id="Group_1699" data-name="Group 1699" transform="translate(10.58 16.892)">
                <path id="Path_766" data-name="Path 766" d="M118.718,176.825c.025.085-.487.225-1.017-.078s-.675-.811-.59-.832c.084-.039.317.313.749.55S118.708,176.733,118.718,176.825Z" transform="translate(-117.089 -175.911)" fill="#263238"/>
              </g>
              <path id="Path_767" data-name="Path 767" d="M110.875,148.788a6.187,6.187,0,0,0-4.869,2.083,7.1,7.1,0,0,0-1.713,5.058,3.108,3.108,0,0,0,.642,1.921,3.917,3.917,0,0,0,2.625.957,6.3,6.3,0,0,0,2.912-.156,2.159,2.159,0,0,0,1.481-2.263,1.425,1.425,0,0,0,.57,1.939,4.13,4.13,0,0,0,2.211.4l3.261-.024a1.356,1.356,0,0,0,1.606-1.573c.179-1.737.339-3.588-.458-5.141a6.129,6.129,0,0,0-3.6-2.828c-1.486-.494-3.1-.27-4.663-.368" transform="translate(-101.675 -148.779)" fill="#263238"/>
            </g>
            <path id="Path_768" data-name="Path 768" d="M99.807,178.952c1.186.633,3.442-1.829,4.176-2.957a5.878,5.878,0,0,0,.642-3.9c-.158-1.335-.514-2.65-.541-3.994-.044-2.177.775-4.269,1.159-6.413a16.266,16.266,0,0,0-.292-7.031,3.054,3.054,0,0,0-1.49-2.2,2.179,2.179,0,0,0-2.14.443,5.156,5.156,0,0,0-1.3,1.871l-.692,5.245.518,7.342Z" transform="translate(-99.333 -150.119)" fill="#263238"/>
          </g>
          <g id="Group_1706" data-name="Group 1706" transform="translate(12.707 29.15)">
            <g id="Group_1703" data-name="Group 1703">
              <g id="Group_1702" data-name="Group 1702">
                <path id="Path_769" data-name="Path 769" d="M123.436,222.928l3.173,10.832s-16.615,6.044-25.616,5.933c-8.431-.1-10.847-1.06-13.814-7.869s-6.334-14.63-7.04-19.136c0,0-6.78-18.809,11.377-16.959l2.511,14.294s2.011,6.646,2.156,7.031c1.355,3.589,3.11,8.839,4.809,9.475S123.436,222.928,123.436,222.928Z" transform="translate(-78.901 -195.601)" fill="#e8505b"/>
              </g>
            </g>
            <g id="Group_1704" data-name="Group 1704" transform="translate(12.791 3.738)">
              <path id="Path_770" data-name="Path 770" d="M131.19,225.194a2.608,2.608,0,0,1-.439.111l-1.274.264c-1.108.233-2.714.578-4.707,1.034s-4.373,1.027-7.071,1.527a43.6,43.6,0,0,1-8.955.826l-.108,0-.039-.1c-.342-.89-.7-1.832-1.045-2.794-2.386-6.712-4.207-12.892-5.679-17.313-.726-2.215-1.336-4-1.771-5.227l-.5-1.415a3.155,3.155,0,0,1-.156-.5,3.144,3.144,0,0,1,.217.477c.129.318.327.784.558,1.395.472,1.216,1.116,2.99,1.87,5.2,1.528,4.406,3.385,10.579,5.766,17.276.344.959.7,1.9,1.04,2.787l-.146-.1a44.4,44.4,0,0,0,8.9-.786c2.69-.481,5.073-1.036,7.076-1.456s3.615-.741,4.731-.938l1.286-.209A2.541,2.541,0,0,1,131.19,225.194Z" transform="translate(-99.445 -201.605)" fill="#263238"/>
            </g>
            <g id="Group_1705" data-name="Group 1705" transform="translate(4.655 27.677)">
              <path id="Path_771" data-name="Path 771" d="M129.431,250.538a3.179,3.179,0,0,1-.487.221c-.322.138-.8.324-1.427.555-1.248.459-3.074,1.072-5.357,1.739s-5.018,1.4-8.064,2.164a51.5,51.5,0,0,1-10.08,1.764,18.511,18.511,0,0,1-2.7-.072,11.147,11.147,0,0,1-2.581-.539,12.458,12.458,0,0,1-4.229-2.584,25.351,25.351,0,0,1-4.966-6.715c-1.123-2.1-1.885-3.871-2.4-5.094-.259-.613-.45-1.091-.577-1.418a3.316,3.316,0,0,1-.178-.5,3.225,3.225,0,0,1,.238.478l.633,1.393c.553,1.206,1.346,2.958,2.489,5.035a25.648,25.648,0,0,0,4.964,6.6,12.219,12.219,0,0,0,4.13,2.505,10.92,10.92,0,0,0,2.512.519,18.385,18.385,0,0,0,2.658.068,52.593,52.593,0,0,0,10.02-1.73c3.049-.753,5.788-1.454,8.074-2.1s4.119-1.216,5.377-1.637l1.446-.5A3.458,3.458,0,0,1,129.431,250.538Z" transform="translate(-86.377 -240.056)" fill="#263238"/>
            </g>
            <path id="Path_772" data-name="Path 772" d="M91.2,251.142s3.143,11.953,11.2,11.711a46.975,46.975,0,0,0,15.7-3.7l-.36-.371s-13.694,2.952-17.5,1.1C93.014,256.361,91.2,251.142,91.2,251.142Z" transform="translate(-83.544 -216.563)" opacity="0.2"/>
          </g>
          <g id="Group_1709" data-name="Group 1709" transform="translate(57.243 51.198)">
            <g id="Group_1708" data-name="Group 1708">
              <g id="Group_1707" data-name="Group 1707">
                <path id="Path_773" data-name="Path 773" d="M152.482,245.878l2.541-.027c2.309-.225,3.6-.262,4.248-.877.864-.822-.324-1.631-.324-1.631s1.672-.573,1.515-1.593c-.107-.7-.9-.773-.9-.773s1.475-.575,1.766-1.19c.4-.839-.644-1.286-.644-1.286,2.012-1.24,1.829-2.465,1.364-2.588a5.958,5.958,0,0,0-2.034.6c-1.325.379-4.938,1.482-3.6-.511s1.617-4.031,1.309-4.634a.751.751,0,0,0-1.378.341,8.779,8.779,0,0,1-.944,2.229,5.748,5.748,0,0,1-1.206,1.523c-.568.5-1.068.911-1.5,1.245l-2.262,2.183Z" transform="translate(-150.434 -231.014)" fill="#ffbe9d"/>
              </g>
            </g>
          </g>
        </g>
      </g>
    </g>
    <g id="Group_1808" data-name="Group 1808" transform="translate(107.62 223.912)">
      <g id="Group_1799" data-name="Group 1799" transform="translate(38.38 258.895)">
        <g id="Group_1714" data-name="Group 1714" transform="translate(9.028)">
          <g id="Group_1713" data-name="Group 1713">
            <g id="Group_1712" data-name="Group 1712">
              <path id="Path_774" data-name="Path 774" d="M63.066,383.856a1.884,1.884,0,0,1,.129-.312l.419-.893a22.548,22.548,0,0,0,1.231-3.577,31.576,31.576,0,0,0-.105-13.813,74.251,74.251,0,0,0-2.562-9.278c-1.085-3.293-2.344-6.787-3.373-10.563a40.866,40.866,0,0,1-1.665-12.145c.156-4.3,1.427-8.584,2.826-12.852s2.839-8.455,3.272-12.658a19.292,19.292,0,0,0-2.321-11.69c-1.851-3.41-4.18-6.327-5.924-9.35a32.481,32.481,0,0,1-3.561-8.989,33.478,33.478,0,0,1-.226-13.925,25.915,25.915,0,0,1,1.453-4.918,1.911,1.911,0,0,1-.086.326c-.073.233-.17.545-.294.943a35.778,35.778,0,0,0-.9,3.681,33.906,33.906,0,0,0,.361,13.82,32.4,32.4,0,0,0,3.572,8.875c1.74,2.986,4.079,5.89,5.966,9.341a19.675,19.675,0,0,1,2.393,11.927c-.435,4.275-1.89,8.481-3.282,12.751s-2.656,8.508-2.814,12.732A40.646,40.646,0,0,0,59.2,345.313c1.012,3.758,2.256,7.253,3.327,10.554a73.2,73.2,0,0,1,2.521,9.333,31.224,31.224,0,0,1-.036,13.916,20.673,20.673,0,0,1-1.318,3.572l-.46.877A1.913,1.913,0,0,1,63.066,383.856Z" transform="translate(-50.586 -258.895)" fill="#263238"/>
            </g>
          </g>
        </g>
        <g id="Group_1720" data-name="Group 1720" transform="translate(14.822 12.741)">
          <g id="Group_1716" data-name="Group 1716">
            <g id="Group_1715" data-name="Group 1715">
              <path id="Path_775" data-name="Path 775" d="M59.4,294.193s-3.539-11.319,2.81-17.947a.393.393,0,0,1,.673.195C63.224,278.31,63.648,284,59.4,294.193Z" transform="translate(-58.419 -276.122)" fill="#e8505b"/>
            </g>
          </g>
          <g id="Group_1719" data-name="Group 1719" transform="translate(0.856 3.896)">
            <g id="Group_1718" data-name="Group 1718">
              <g id="Group_1717" data-name="Group 1717">
                <path id="Path_776" data-name="Path 776" d="M61.825,281.39a10.437,10.437,0,0,1-.239,2.088c-.232,1.439-.506,3.127-.808,4.992s-.564,3.554-.792,4.992a11.335,11.335,0,0,1-.375,2.066,8.814,8.814,0,0,1,.064-2.1c.117-1.293.345-3.072.666-5.026s.66-3.711.936-4.978A9.375,9.375,0,0,1,61.825,281.39Z" transform="translate(-59.576 -281.39)" fill="#263238"/>
              </g>
            </g>
          </g>
        </g>
        <g id="Group_1726" data-name="Group 1726" transform="translate(19.894 42.938)">
          <g id="Group_1722" data-name="Group 1722" transform="translate(0.069)">
            <g id="Group_1721" data-name="Group 1721">
              <path id="Path_777" data-name="Path 777" d="M65.371,331.52s2.165-11.66,10.876-14.549a.393.393,0,0,1,.5.487C76.177,319.268,73.888,324.5,65.371,331.52Z" transform="translate(-65.371 -316.95)" fill="#e8505b"/>
            </g>
          </g>
          <g id="Group_1725" data-name="Group 1725" transform="translate(0 3.031)">
            <g id="Group_1724" data-name="Group 1724">
              <g id="Group_1723" data-name="Group 1723">
                <path id="Path_778" data-name="Path 778" d="M73.85,321.049a10.463,10.463,0,0,1-1.187,1.734l-3.049,4.035-3.035,4.042a11.356,11.356,0,0,1-1.3,1.651,8.832,8.832,0,0,1,1.04-1.83c.709-1.088,1.742-2.555,2.939-4.131s2.319-2.972,3.157-3.962A9.417,9.417,0,0,1,73.85,321.049Z" transform="translate(-65.278 -321.047)" fill="#263238"/>
              </g>
            </g>
          </g>
        </g>
        <g id="Group_1732" data-name="Group 1732" transform="translate(17.515 69.605)">
          <g id="Group_1728" data-name="Group 1728" transform="translate(0.006)">
            <g id="Group_1727" data-name="Group 1727">
              <path id="Path_779" data-name="Path 779" d="M62.157,370.16s-1.315-11.787,6.182-17.081a.392.392,0,0,1,.623.32C68.938,355.3,68.268,360.968,62.157,370.16Z" transform="translate(-62.068 -353.004)" fill="#e8505b"/>
            </g>
          </g>
          <g id="Group_1731" data-name="Group 1731" transform="translate(0 3.645)">
            <g id="Group_1730" data-name="Group 1730">
              <g id="Group_1729" data-name="Group 1729">
                <path id="Path_780" data-name="Path 780" d="M66.941,357.933a10.392,10.392,0,0,1-.632,2l-1.745,4.746-1.73,4.75a11.479,11.479,0,0,1-.762,1.956,8.728,8.728,0,0,1,.464-2.053c.362-1.247.925-2.95,1.612-4.806s1.356-3.518,1.869-4.708A9.432,9.432,0,0,1,66.941,357.933Z" transform="translate(-62.06 -357.932)" fill="#263238"/>
              </g>
            </g>
          </g>
        </g>
        <g id="Group_1738" data-name="Group 1738" transform="translate(24.08 99.269)">
          <g id="Group_1734" data-name="Group 1734" transform="translate(0.06)">
            <g id="Group_1733" data-name="Group 1733">
              <path id="Path_781" data-name="Path 781" d="M71.05,410.025s-.893-11.826,6.79-16.848a.392.392,0,0,1,.612.341C78.359,395.416,77.486,401.057,71.05,410.025Z" transform="translate(-71.018 -393.111)" fill="#e8505b"/>
            </g>
          </g>
          <g id="Group_1737" data-name="Group 1737" transform="translate(0 3.584)">
            <g id="Group_1736" data-name="Group 1736">
              <g id="Group_1735" data-name="Group 1735">
                <path id="Path_782" data-name="Path 782" d="M76.3,397.958a10.449,10.449,0,0,1-.7,1.98l-1.914,4.681c-.709,1.751-1.352,3.335-1.9,4.685a11.321,11.321,0,0,1-.831,1.927,8.745,8.745,0,0,1,.537-2.035c.406-1.234,1.03-2.916,1.783-4.745s1.481-3.467,2.037-4.638A9.382,9.382,0,0,1,76.3,397.958Z" transform="translate(-70.937 -397.957)" fill="#263238"/>
              </g>
            </g>
          </g>
        </g>
        <g id="Group_1744" data-name="Group 1744" transform="translate(0 5.793)">
          <g id="Group_1740" data-name="Group 1740">
            <g id="Group_1739" data-name="Group 1739">
              <path id="Path_783" data-name="Path 783" d="M49.1,281.8s-10.512-5.49-10.719-14.666a.393.393,0,0,1,.613-.339C40.555,267.877,44.885,271.6,49.1,281.8Z" transform="translate(-38.38 -266.728)" fill="#e8505b"/>
            </g>
          </g>
          <g id="Group_1743" data-name="Group 1743" transform="translate(2.178 3.56)">
            <g id="Group_1742" data-name="Group 1742">
              <g id="Group_1741" data-name="Group 1741">
                <path id="Path_784" data-name="Path 784" d="M41.329,271.542a10.415,10.415,0,0,1,1.31,1.643l2.964,4.1,2.974,4.087a11.406,11.406,0,0,1,1.2,1.725,8.783,8.783,0,0,1-1.444-1.531c-.833-1-1.931-2.415-3.087-4.021s-2.16-3.089-2.862-4.18A9.436,9.436,0,0,1,41.329,271.542Z" transform="translate(-41.325 -271.54)" fill="#263238"/>
              </g>
            </g>
          </g>
        </g>
        <g id="Group_1750" data-name="Group 1750" transform="translate(10.415 30.756)">
          <g id="Group_1746" data-name="Group 1746">
            <g id="Group_1745" data-name="Group 1745">
              <path id="Path_785" data-name="Path 785" d="M64.053,314.9s-10.827-4.842-11.59-13.988a.393.393,0,0,1,.592-.376C54.68,301.519,59.227,304.97,64.053,314.9Z" transform="translate(-52.462 -300.478)" fill="#e8505b"/>
            </g>
          </g>
          <g id="Group_1749" data-name="Group 1749" transform="translate(2.368 3.445)">
            <g id="Group_1748" data-name="Group 1748">
              <g id="Group_1747" data-name="Group 1747">
                <path id="Path_786" data-name="Path 786" d="M55.668,305.137a10.387,10.387,0,0,1,1.407,1.561l3.206,3.91,3.217,3.9a11.4,11.4,0,0,1,1.3,1.649,8.752,8.752,0,0,1-1.535-1.44c-.891-.944-2.074-2.293-3.325-3.827s-2.345-2.952-3.111-4A9.448,9.448,0,0,1,55.668,305.137Z" transform="translate(-55.664 -305.136)" fill="#263238"/>
              </g>
            </g>
          </g>
        </g>
        <g id="Group_1756" data-name="Group 1756" transform="translate(10.9 54.311)">
          <g id="Group_1752" data-name="Group 1752">
            <g id="Group_1751" data-name="Group 1751">
              <path id="Path_787" data-name="Path 787" d="M57.994,350.305s-7.433-9.241-3.947-17.731a.393.393,0,0,1,.7-.065C55.744,334.125,58.22,339.269,57.994,350.305Z" transform="translate(-53.117 -332.326)" fill="#e8505b"/>
            </g>
          </g>
          <g id="Group_1755" data-name="Group 1755" transform="translate(1.65 4.011)">
            <g id="Group_1754" data-name="Group 1754">
              <g id="Group_1753" data-name="Group 1753">
                <path id="Path_788" data-name="Path 788" d="M55.366,337.749a10.408,10.408,0,0,1,.542,2.031c.309,1.424.672,3.1,1.074,4.942s.774,3.514,1.087,4.936a11.4,11.4,0,0,1,.407,2.06,8.778,8.778,0,0,1-.71-1.981c-.364-1.247-.8-2.986-1.218-4.921s-.743-3.7-.948-4.976A9.5,9.5,0,0,1,55.366,337.749Z" transform="translate(-55.347 -337.749)" fill="#263238"/>
              </g>
            </g>
          </g>
        </g>
        <g id="Group_1762" data-name="Group 1762" transform="translate(11.786 89.592)">
          <g id="Group_1758" data-name="Group 1758">
            <g id="Group_1757" data-name="Group 1757">
              <path id="Path_789" data-name="Path 789" d="M65.669,394.635s-10.743-5.023-11.352-14.181a.393.393,0,0,1,.6-.365C56.523,381.1,61.012,384.627,65.669,394.635Z" transform="translate(-54.316 -380.028)" fill="#e8505b"/>
            </g>
          </g>
          <g id="Group_1761" data-name="Group 1761" transform="translate(2.317 3.477)">
            <g id="Group_1760" data-name="Group 1760">
              <g id="Group_1759" data-name="Group 1759">
                <path id="Path_790" data-name="Path 790" d="M57.452,384.731a10.414,10.414,0,0,1,1.381,1.584l3.14,3.964,3.151,3.953A11.386,11.386,0,0,1,66.4,395.9a8.791,8.791,0,0,1-1.51-1.466c-.876-.958-2.035-2.328-3.26-3.882s-2.3-2.99-3.044-4.049A9.452,9.452,0,0,1,57.452,384.731Z" transform="translate(-57.448 -384.73)" fill="#263238"/>
              </g>
            </g>
          </g>
        </g>
        <g id="Group_1798" data-name="Group 1798" transform="translate(20.51 54.874)">
          <g id="Group_1765" data-name="Group 1765" transform="translate(3.514 2.698)">
            <g id="Group_1764" data-name="Group 1764">
              <g id="Group_1763" data-name="Group 1763">
                <path id="Path_791" data-name="Path 791" d="M91.377,336.735a.849.849,0,0,1,.013.261c-.005.206-.011.456-.018.758-.032.712-.074,1.674-.127,2.876-.138,2.528-.331,6.052-.563,10.269v.01l0,.014c-.767,4.291-2.952,9.048-5.888,13.666-2.154,3.4-4.41,6.495-6.358,9.371a66.519,66.519,0,0,0-4.766,7.879,33.4,33.4,0,0,0-2.23,5.782c-.189.709-.331,1.261-.413,1.639a2.9,2.9,0,0,1-.158.571,3.017,3.017,0,0,1,.07-.588c.054-.385.169-.946.334-1.666a30.493,30.493,0,0,1,2.115-5.875,62.9,62.9,0,0,1,4.71-7.972c1.934-2.9,4.179-5.995,6.322-9.379,2.92-4.6,5.094-9.279,5.89-13.5l0,.024c.3-4.212.544-7.733.721-10.259.1-1.2.175-2.158.232-2.869.03-.3.055-.549.075-.754A.909.909,0,0,1,91.377,336.735Z" transform="translate(-70.862 -336.735)" fill="#263238"/>
              </g>
            </g>
          </g>
          <g id="Group_1773" data-name="Group 1773" transform="translate(15.25 11.391)">
            <g id="Group_1767" data-name="Group 1767">
              <g id="Group_1766" data-name="Group 1766">
                <path id="Path_792" data-name="Path 792" d="M89.111,366.767s4.55-10.952-1.173-18.127a.393.393,0,0,0-.688.133C86.744,350.6,85.806,356.235,89.111,366.767Z" transform="translate(-86.729 -348.488)" fill="#e8505b"/>
              </g>
            </g>
            <g id="Group_1770" data-name="Group 1770" transform="translate(1.521 3.97)">
              <g id="Group_1769" data-name="Group 1769">
                <g id="Group_1768" data-name="Group 1768">
                  <path id="Path_793" data-name="Path 793" d="M88.818,353.856a9.5,9.5,0,0,1,.361,2.072c.16,1.286.341,3.069.482,5.042s.209,3.767.208,5.066a8.727,8.727,0,0,1-.127,2.1,11.414,11.414,0,0,1-.186-2.092c-.1-1.453-.211-3.158-.337-5.043s-.251-3.592-.352-5.045A10.347,10.347,0,0,1,88.818,353.856Z" transform="translate(-88.785 -353.856)" fill="#263238"/>
                </g>
              </g>
            </g>
            <g id="Group_1772" data-name="Group 1772" opacity="0.3">
              <g id="Group_1771" data-name="Group 1771">
                <path id="Path_794" data-name="Path 794" d="M89.111,366.767s4.55-10.952-1.173-18.127a.393.393,0,0,0-.688.133C86.744,350.6,85.806,356.235,89.111,366.767Z" transform="translate(-86.729 -348.488)"/>
              </g>
            </g>
          </g>
          <g id="Group_1781" data-name="Group 1781" transform="translate(0 37.962)">
            <g id="Group_1775" data-name="Group 1775">
              <g id="Group_1774" data-name="Group 1774">
                <path id="Path_795" data-name="Path 795" d="M69.65,402.513s3.647-11.285-2.639-17.972a.392.392,0,0,0-.675.188C65.979,386.6,65.5,392.284,69.65,402.513Z" transform="translate(-66.111 -384.414)" fill="#e8505b"/>
              </g>
            </g>
            <g id="Group_1778" data-name="Group 1778" transform="translate(1.535 3.905)">
              <g id="Group_1777" data-name="Group 1777">
                <g id="Group_1776" data-name="Group 1776">
                  <path id="Path_796" data-name="Path 796" d="M68.2,389.694a9.422,9.422,0,0,1,.527,2.035c.265,1.27.589,3.032.89,4.987s.513,3.737.618,5.032a8.782,8.782,0,0,1,.044,2.1,11.346,11.346,0,0,1-.356-2.069c-.214-1.44-.466-3.131-.745-5s-.541-3.559-.76-5A10.409,10.409,0,0,1,68.2,389.694Z" transform="translate(-68.187 -389.694)" fill="#263238"/>
                </g>
              </g>
            </g>
            <g id="Group_1780" data-name="Group 1780" opacity="0.3">
              <g id="Group_1779" data-name="Group 1779">
                <path id="Path_797" data-name="Path 797" d="M69.65,402.513s3.647-11.285-2.639-17.972a.392.392,0,0,0-.675.188C65.979,386.6,65.5,392.284,69.65,402.513Z" transform="translate(-66.111 -384.414)"/>
              </g>
            </g>
          </g>
          <g id="Group_1789" data-name="Group 1789" transform="translate(23.427)">
            <g id="Group_1783" data-name="Group 1783">
              <g id="Group_1782" data-name="Group 1782">
                <path id="Path_798" data-name="Path 798" d="M97.785,349.372s9.715-6.8,8.735-15.926a.393.393,0,0,0-.652-.257C104.459,334.461,100.646,338.711,97.785,349.372Z" transform="translate(-97.785 -333.088)" fill="#e8505b"/>
              </g>
            </g>
            <g id="Group_1785" data-name="Group 1785" opacity="0.3">
              <g id="Group_1784" data-name="Group 1784">
                <path id="Path_799" data-name="Path 799" d="M97.785,349.372s9.715-6.8,8.735-15.926a.393.393,0,0,0-.652-.257C104.459,334.461,100.646,338.711,97.785,349.372Z" transform="translate(-97.785 -333.088)"/>
              </g>
            </g>
            <g id="Group_1788" data-name="Group 1788" transform="translate(0.09 3.764)">
              <g id="Group_1787" data-name="Group 1787">
                <g id="Group_1786" data-name="Group 1786">
                  <path id="Path_800" data-name="Path 800" d="M104.793,338.178a9.369,9.369,0,0,1-.807,1.942c-.555,1.172-1.359,2.774-2.3,4.515s-1.845,3.291-2.541,4.386a8.74,8.74,0,0,1-1.235,1.7,11.427,11.427,0,0,1,.965-1.865l2.422-4.437,2.409-4.447A10.5,10.5,0,0,1,104.793,338.178Z" transform="translate(-97.906 -338.177)" fill="#263238"/>
                </g>
              </g>
            </g>
          </g>
          <g id="Group_1797" data-name="Group 1797" transform="translate(7.457 33.889)">
            <g id="Group_1791" data-name="Group 1791">
              <g id="Group_1790" data-name="Group 1790">
                <path id="Path_801" data-name="Path 801" d="M76.193,389.892s11.718-1.828,14.857-10.452a.392.392,0,0,0-.472-.518C88.752,379.444,83.457,381.58,76.193,389.892Z" transform="translate(-76.193 -378.907)" fill="#e8505b"/>
              </g>
            </g>
            <g id="Group_1793" data-name="Group 1793" opacity="0.3">
              <g id="Group_1792" data-name="Group 1792">
                <path id="Path_802" data-name="Path 802" d="M76.193,389.892s11.718-1.828,14.857-10.452a.392.392,0,0,0-.472-.518C88.752,379.444,83.457,381.58,76.193,389.892Z" transform="translate(-76.193 -378.907)"/>
              </g>
            </g>
            <g id="Group_1796" data-name="Group 1796" transform="translate(0.072 2.814)">
              <g id="Group_1795" data-name="Group 1795">
                <g id="Group_1794" data-name="Group 1794">
                  <path id="Path_803" data-name="Path 803" d="M88,382.716a9.458,9.458,0,0,1-1.581,1.388c-1.014.808-2.441,1.89-4.052,3.041s-3.106,2.141-4.214,2.818a8.732,8.732,0,0,1-1.859.987,11.406,11.406,0,0,1,1.688-1.249l4.128-2.917,4.121-2.93A10.385,10.385,0,0,1,88,382.716Z" transform="translate(-76.29 -382.712)" fill="#263238"/>
                </g>
              </g>
            </g>
          </g>
        </g>
      </g>
      <g id="Group_1801" data-name="Group 1801" transform="translate(51.751 380.207)">
        <g id="Group_1800" data-name="Group 1800">
          <path id="Path_804" data-name="Path 804" d="M59.876,422.915l-3.418,23.006h21.3L75,422.915Z" transform="translate(-56.458 -422.915)" fill="#455a64"/>
        </g>
      </g>
      <g id="Group_1804" data-name="Group 1804" transform="translate(53.962 387.114)">
        <g id="Group_1803" data-name="Group 1803">
          <g id="Group_1802" data-name="Group 1802">
            <path id="Path_805" data-name="Path 805" d="M76.628,432.475a83.27,83.27,0,0,1-8.59.222,83.258,83.258,0,0,1-8.59-.222,83.624,83.624,0,0,1,8.59-.221A83.636,83.636,0,0,1,76.628,432.475Z" transform="translate(-59.448 -432.254)" fill="#263238"/>
          </g>
        </g>
      </g>
      <g id="Group_1807" data-name="Group 1807" transform="translate(53.822 388.945)">
        <g id="Group_1806" data-name="Group 1806">
          <g id="Group_1805" data-name="Group 1805">
            <path id="Path_806" data-name="Path 806" d="M77,434.95c0,.123-3.972.222-8.871.222s-8.872-.1-8.872-.222,3.971-.221,8.872-.221S77,434.828,77,434.95Z" transform="translate(-59.258 -434.729)" fill="#263238"/>
          </g>
        </g>
      </g>
    </g>
  </g>
</svg>
